ISO-10303-21;
HEADER;
/* Generated by software containing ST-Developer
 * from STEP Tools, Inc. (www.steptools.com) 
 */
/* OPTION: using custom renumber hook */

FILE_DESCRIPTION(
/* description */ ('STEP AP242 Edition 2',
'CAx-IF Rec.Pracs.---Representation and Presentation of Product Manufa
cturing Information (PMI)---4.0---2014-10-13',
'CAx-IF Rec.Pracs.---3D Tessellated Geometry---0.4---2014-09-14','2;1',
'CAx-IF Rec.Pracs.---User Defined Attributes---1.5---2016-08-15'),
/* implementation_level */ '2;1');

FILE_NAME(
/* name */ 'Part Studio 1',
/* time_stamp */ '2026-08-04T10:51:46Z',
/* author */ (''),
/* organization */ (''),
/* preprocessor_version */ 'ST-DEVELOPER v20',
/* originating_system */ 'ONSHAPE BY PTC INC, 1.218',
/* authorisation */ '  ');

FILE_SCHEMA (('AP242_MANAGED_MODEL_BASED_3D_ENGINEERING_MIM_LF { 1 0 10303 442 3 1 4 }'));
ENDSEC;

DATA;
#10=SHAPE_REPRESENTATION_RELATIONSHIP('','',#840,#12);
#11=SHAPE_REPRESENTATION_RELATIONSHIP('','',#841,#13);
#12=ADVANCED_BREP_SHAPE_REPRESENTATION('',(#836),#1332);
#13=ADVANCED_BREP_SHAPE_REPRESENTATION('',(#837),#1333);
#14=ELLIPSE('',#854,0.00141421356237309,0.001);
#15=ELLIPSE('',#855,0.00141421356237309,0.001);
#16=ELLIPSE('',#857,0.00141421356237309,0.001);
#17=ELLIPSE('',#859,0.00141421356237309,0.001);
#18=CYLINDRICAL_SURFACE('',#853,0.001);
#19=CYLINDRICAL_SURFACE('',#856,0.001);
#20=CYLINDRICAL_SURFACE('',#858,0.001);
#21=CYLINDRICAL_SURFACE('',#860,0.001);
#22=ORIENTED_EDGE('',*,*,#240,.T.);
#23=ORIENTED_EDGE('',*,*,#241,.T.);
#24=ORIENTED_EDGE('',*,*,#242,.T.);
#25=ORIENTED_EDGE('',*,*,#243,.F.);
#26=ORIENTED_EDGE('',*,*,#244,.F.);
#27=ORIENTED_EDGE('',*,*,#245,.T.);
#28=ORIENTED_EDGE('',*,*,#246,.T.);
#29=ORIENTED_EDGE('',*,*,#247,.F.);
#30=ORIENTED_EDGE('',*,*,#248,.T.);
#31=ORIENTED_EDGE('',*,*,#249,.T.);
#32=ORIENTED_EDGE('',*,*,#250,.T.);
#33=ORIENTED_EDGE('',*,*,#251,.T.);
#34=ORIENTED_EDGE('',*,*,#252,.F.);
#35=ORIENTED_EDGE('',*,*,#253,.T.);
#36=ORIENTED_EDGE('',*,*,#254,.T.);
#37=ORIENTED_EDGE('',*,*,#245,.F.);
#38=ORIENTED_EDGE('',*,*,#255,.F.);
#39=ORIENTED_EDGE('',*,*,#256,.T.);
#40=ORIENTED_EDGE('',*,*,#257,.T.);
#41=ORIENTED_EDGE('',*,*,#243,.T.);
#42=ORIENTED_EDGE('',*,*,#257,.F.);
#43=ORIENTED_EDGE('',*,*,#258,.T.);
#44=ORIENTED_EDGE('',*,*,#252,.T.);
#45=ORIENTED_EDGE('',*,*,#244,.T.);
#46=ORIENTED_EDGE('',*,*,#254,.F.);
#47=ORIENTED_EDGE('',*,*,#259,.T.);
#48=ORIENTED_EDGE('',*,*,#255,.T.);
#49=ORIENTED_EDGE('',*,*,#242,.F.);
#50=ORIENTED_EDGE('',*,*,#260,.F.);
#51=ORIENTED_EDGE('',*,*,#261,.F.);
#52=ORIENTED_EDGE('',*,*,#262,.T.);
#53=ORIENTED_EDGE('',*,*,#246,.F.);
#54=ORIENTED_EDGE('',*,*,#263,.F.);
#55=ORIENTED_EDGE('',*,*,#264,.T.);
#56=ORIENTED_EDGE('',*,*,#265,.F.);
#57=ORIENTED_EDGE('',*,*,#251,.F.);
#58=ORIENTED_EDGE('',*,*,#266,.F.);
#59=ORIENTED_EDGE('',*,*,#267,.T.);
#60=ORIENTED_EDGE('',*,*,#263,.T.);
#61=ORIENTED_EDGE('',*,*,#250,.F.);
#62=ORIENTED_EDGE('',*,*,#265,.T.);
#63=ORIENTED_EDGE('',*,*,#268,.T.);
#64=ORIENTED_EDGE('',*,*,#269,.F.);
#65=ORIENTED_EDGE('',*,*,#248,.F.);
#66=ORIENTED_EDGE('',*,*,#269,.T.);
#67=ORIENTED_EDGE('',*,*,#270,.T.);
#68=ORIENTED_EDGE('',*,*,#266,.T.);
#69=ORIENTED_EDGE('',*,*,#249,.F.);
#70=ORIENTED_EDGE('',*,*,#271,.F.);
#71=ORIENTED_EDGE('',*,*,#264,.F.);
#72=ORIENTED_EDGE('',*,*,#272,.F.);
#73=ORIENTED_EDGE('',*,*,#256,.F.);
#74=ORIENTED_EDGE('',*,*,#272,.T.);
#75=ORIENTED_EDGE('',*,*,#267,.F.);
#76=ORIENTED_EDGE('',*,*,#273,.F.);
#77=ORIENTED_EDGE('',*,*,#258,.F.);
#78=ORIENTED_EDGE('',*,*,#271,.T.);
#79=ORIENTED_EDGE('',*,*,#259,.F.);
#80=ORIENTED_EDGE('',*,*,#274,.F.);
#81=ORIENTED_EDGE('',*,*,#268,.F.);
#82=ORIENTED_EDGE('',*,*,#273,.T.);
#83=ORIENTED_EDGE('',*,*,#270,.F.);
#84=ORIENTED_EDGE('',*,*,#274,.T.);
#85=ORIENTED_EDGE('',*,*,#253,.F.);
#86=ORIENTED_EDGE('',*,*,#240,.F.);
#87=ORIENTED_EDGE('',*,*,#275,.F.);
#88=ORIENTED_EDGE('',*,*,#276,.T.);
#89=ORIENTED_EDGE('',*,*,#277,.T.);
#90=ORIENTED_EDGE('',*,*,#247,.T.);
#91=ORIENTED_EDGE('',*,*,#262,.F.);
#92=ORIENTED_EDGE('',*,*,#278,.F.);
#93=ORIENTED_EDGE('',*,*,#275,.T.);
#94=ORIENTED_EDGE('',*,*,#241,.F.);
#95=ORIENTED_EDGE('',*,*,#277,.F.);
#96=ORIENTED_EDGE('',*,*,#279,.T.);
#97=ORIENTED_EDGE('',*,*,#260,.T.);
#98=ORIENTED_EDGE('',*,*,#280,.F.);
#99=ORIENTED_EDGE('',*,*,#281,.T.);
#100=ORIENTED_EDGE('',*,*,#282,.T.);
#101=ORIENTED_EDGE('',*,*,#283,.F.);
#102=ORIENTED_EDGE('',*,*,#276,.F.);
#103=ORIENTED_EDGE('',*,*,#278,.T.);
#104=ORIENTED_EDGE('',*,*,#261,.T.);
#105=ORIENTED_EDGE('',*,*,#279,.F.);
#106=ORIENTED_EDGE('',*,*,#284,.T.);
#107=ORIENTED_EDGE('',*,*,#285,.T.);
#108=ORIENTED_EDGE('',*,*,#286,.F.);
#109=ORIENTED_EDGE('',*,*,#287,.T.);
#110=ORIENTED_EDGE('',*,*,#286,.T.);
#111=ORIENTED_EDGE('',*,*,#288,.T.);
#112=ORIENTED_EDGE('',*,*,#283,.T.);
#113=ORIENTED_EDGE('',*,*,#289,.F.);
#114=ORIENTED_EDGE('',*,*,#289,.T.);
#115=ORIENTED_EDGE('',*,*,#282,.F.);
#116=ORIENTED_EDGE('',*,*,#290,.F.);
#117=ORIENTED_EDGE('',*,*,#287,.F.);
#118=ORIENTED_EDGE('',*,*,#290,.T.);
#119=ORIENTED_EDGE('',*,*,#281,.F.);
#120=ORIENTED_EDGE('',*,*,#291,.F.);
#121=ORIENTED_EDGE('',*,*,#284,.F.);
#122=ORIENTED_EDGE('',*,*,#291,.T.);
#123=ORIENTED_EDGE('',*,*,#280,.T.);
#124=ORIENTED_EDGE('',*,*,#288,.F.);
#125=ORIENTED_EDGE('',*,*,#285,.F.);
#126=ORIENTED_EDGE('',*,*,#292,.F.);
#127=ORIENTED_EDGE('',*,*,#293,.T.);
#128=ORIENTED_EDGE('',*,*,#294,.T.);
#129=ORIENTED_EDGE('',*,*,#295,.F.);
#130=ORIENTED_EDGE('',*,*,#296,.F.);
#131=ORIENTED_EDGE('',*,*,#297,.T.);
#132=ORIENTED_EDGE('',*,*,#298,.F.);
#133=ORIENTED_EDGE('',*,*,#299,.F.);
#134=ORIENTED_EDGE('',*,*,#300,.T.);
#135=ORIENTED_EDGE('',*,*,#301,.T.);
#136=ORIENTED_EDGE('',*,*,#302,.T.);
#137=ORIENTED_EDGE('',*,*,#303,.T.);
#138=ORIENTED_EDGE('',*,*,#304,.F.);
#139=ORIENTED_EDGE('',*,*,#305,.F.);
#140=ORIENTED_EDGE('',*,*,#302,.F.);
#141=ORIENTED_EDGE('',*,*,#306,.T.);
#142=ORIENTED_EDGE('',*,*,#307,.T.);
#143=ORIENTED_EDGE('',*,*,#296,.T.);
#144=ORIENTED_EDGE('',*,*,#305,.T.);
#145=ORIENTED_EDGE('',*,*,#308,.T.);
#146=ORIENTED_EDGE('',*,*,#306,.F.);
#147=ORIENTED_EDGE('',*,*,#303,.F.);
#148=ORIENTED_EDGE('',*,*,#309,.T.);
#149=ORIENTED_EDGE('',*,*,#292,.T.);
#150=ORIENTED_EDGE('',*,*,#310,.T.);
#151=ORIENTED_EDGE('',*,*,#311,.T.);
#152=ORIENTED_EDGE('',*,*,#294,.F.);
#153=ORIENTED_EDGE('',*,*,#312,.F.);
#154=ORIENTED_EDGE('',*,*,#313,.F.);
#155=ORIENTED_EDGE('',*,*,#314,.F.);
#156=ORIENTED_EDGE('',*,*,#315,.F.);
#157=ORIENTED_EDGE('',*,*,#316,.F.);
#158=ORIENTED_EDGE('',*,*,#317,.T.);
#159=ORIENTED_EDGE('',*,*,#318,.T.);
#160=ORIENTED_EDGE('',*,*,#314,.T.);
#161=ORIENTED_EDGE('',*,*,#319,.F.);
#162=ORIENTED_EDGE('',*,*,#310,.F.);
#163=ORIENTED_EDGE('',*,*,#295,.T.);
#164=ORIENTED_EDGE('',*,*,#313,.T.);
#165=ORIENTED_EDGE('',*,*,#320,.F.);
#166=ORIENTED_EDGE('',*,*,#311,.F.);
#167=ORIENTED_EDGE('',*,*,#319,.T.);
#168=ORIENTED_EDGE('',*,*,#312,.T.);
#169=ORIENTED_EDGE('',*,*,#293,.F.);
#170=ORIENTED_EDGE('',*,*,#309,.F.);
#171=ORIENTED_EDGE('',*,*,#320,.T.);
#172=ORIENTED_EDGE('',*,*,#304,.T.);
#173=ORIENTED_EDGE('',*,*,#301,.F.);
#174=ORIENTED_EDGE('',*,*,#321,.F.);
#175=ORIENTED_EDGE('',*,*,#322,.T.);
#176=ORIENTED_EDGE('',*,*,#323,.T.);
#177=ORIENTED_EDGE('',*,*,#297,.F.);
#178=ORIENTED_EDGE('',*,*,#307,.F.);
#179=ORIENTED_EDGE('',*,*,#308,.F.);
#180=ORIENTED_EDGE('',*,*,#300,.F.);
#181=ORIENTED_EDGE('',*,*,#324,.F.);
#182=ORIENTED_EDGE('',*,*,#325,.T.);
#183=ORIENTED_EDGE('',*,*,#321,.T.);
#184=ORIENTED_EDGE('',*,*,#299,.T.);
#185=ORIENTED_EDGE('',*,*,#326,.F.);
#186=ORIENTED_EDGE('',*,*,#327,.F.);
#187=ORIENTED_EDGE('',*,*,#324,.T.);
#188=ORIENTED_EDGE('',*,*,#298,.T.);
#189=ORIENTED_EDGE('',*,*,#323,.F.);
#190=ORIENTED_EDGE('',*,*,#328,.F.);
#191=ORIENTED_EDGE('',*,*,#326,.T.);
#192=ORIENTED_EDGE('',*,*,#329,.F.);
#193=ORIENTED_EDGE('',*,*,#330,.F.);
#194=ORIENTED_EDGE('',*,*,#331,.T.);
#195=ORIENTED_EDGE('',*,*,#332,.F.);
#196=ORIENTED_EDGE('',*,*,#322,.F.);
#197=ORIENTED_EDGE('',*,*,#325,.F.);
#198=ORIENTED_EDGE('',*,*,#327,.T.);
#199=ORIENTED_EDGE('',*,*,#328,.T.);
#200=ORIENTED_EDGE('',*,*,#333,.F.);
#201=ORIENTED_EDGE('',*,*,#334,.F.);
#202=ORIENTED_EDGE('',*,*,#335,.T.);
#203=ORIENTED_EDGE('',*,*,#336,.T.);
#204=ORIENTED_EDGE('',*,*,#337,.T.);
#205=ORIENTED_EDGE('',*,*,#338,.T.);
#206=ORIENTED_EDGE('',*,*,#339,.F.);
#207=ORIENTED_EDGE('',*,*,#340,.F.);
#208=ORIENTED_EDGE('',*,*,#341,.F.);
#209=ORIENTED_EDGE('',*,*,#332,.T.);
#210=ORIENTED_EDGE('',*,*,#342,.T.);
#211=ORIENTED_EDGE('',*,*,#334,.T.);
#212=ORIENTED_EDGE('',*,*,#343,.T.);
#213=ORIENTED_EDGE('',*,*,#330,.T.);
#214=ORIENTED_EDGE('',*,*,#344,.F.);
#215=ORIENTED_EDGE('',*,*,#336,.F.);
#216=ORIENTED_EDGE('',*,*,#344,.T.);
#217=ORIENTED_EDGE('',*,*,#329,.T.);
#218=ORIENTED_EDGE('',*,*,#341,.T.);
#219=ORIENTED_EDGE('',*,*,#333,.T.);
#220=ORIENTED_EDGE('',*,*,#331,.F.);
#221=ORIENTED_EDGE('',*,*,#343,.F.);
#222=ORIENTED_EDGE('',*,*,#335,.F.);
#223=ORIENTED_EDGE('',*,*,#342,.F.);
#224=ORIENTED_EDGE('',*,*,#345,.T.);
#225=ORIENTED_EDGE('',*,*,#316,.T.);
#226=ORIENTED_EDGE('',*,*,#346,.F.);
#227=ORIENTED_EDGE('',*,*,#337,.F.);
#228=ORIENTED_EDGE('',*,*,#346,.T.);
#229=ORIENTED_EDGE('',*,*,#315,.T.);
#230=ORIENTED_EDGE('',*,*,#347,.F.);
#231=ORIENTED_EDGE('',*,*,#338,.F.);
#232=ORIENTED_EDGE('',*,*,#340,.T.);
#233=ORIENTED_EDGE('',*,*,#348,.T.);
#234=ORIENTED_EDGE('',*,*,#317,.F.);
#235=ORIENTED_EDGE('',*,*,#345,.F.);
#236=ORIENTED_EDGE('',*,*,#339,.T.);
#237=ORIENTED_EDGE('',*,*,#347,.T.);
#238=ORIENTED_EDGE('',*,*,#318,.F.);
#239=ORIENTED_EDGE('',*,*,#348,.F.);
#240=EDGE_CURVE('',#349,#350,#419,.T.);
#241=EDGE_CURVE('',#350,#351,#420,.T.);
#242=EDGE_CURVE('',#351,#352,#421,.T.);
#243=EDGE_CURVE('',#353,#352,#422,.T.);
#244=EDGE_CURVE('',#354,#353,#423,.T.);
#245=EDGE_CURVE('',#354,#355,#424,.T.);
#246=EDGE_CURVE('',#355,#356,#425,.T.);
#247=EDGE_CURVE('',#349,#356,#426,.T.);
#248=EDGE_CURVE('',#357,#358,#427,.T.);
#249=EDGE_CURVE('',#358,#359,#428,.T.);
#250=EDGE_CURVE('',#359,#360,#429,.T.);
#251=EDGE_CURVE('',#360,#357,#430,.T.);
#252=EDGE_CURVE('',#361,#354,#431,.T.);
#253=EDGE_CURVE('',#361,#362,#432,.T.);
#254=EDGE_CURVE('',#362,#355,#433,.T.);
#255=EDGE_CURVE('',#363,#352,#434,.T.);
#256=EDGE_CURVE('',#363,#364,#435,.F.);
#257=EDGE_CURVE('',#364,#353,#436,.T.);
#258=EDGE_CURVE('',#364,#361,#437,.T.);
#259=EDGE_CURVE('',#362,#363,#438,.F.);
#260=EDGE_CURVE('',#365,#351,#439,.T.);
#261=EDGE_CURVE('',#366,#365,#440,.T.);
#262=EDGE_CURVE('',#366,#356,#441,.T.);
#263=EDGE_CURVE('',#367,#360,#442,.F.);
#264=EDGE_CURVE('',#367,#368,#443,.F.);
#265=EDGE_CURVE('',#357,#368,#444,.F.);
#266=EDGE_CURVE('',#369,#359,#445,.F.);
#267=EDGE_CURVE('',#369,#367,#446,.F.);
#268=EDGE_CURVE('',#368,#370,#447,.F.);
#269=EDGE_CURVE('',#358,#370,#448,.T.);
#270=EDGE_CURVE('',#370,#369,#449,.F.);
#271=EDGE_CURVE('',#368,#363,#14,.F.);
#272=EDGE_CURVE('',#364,#367,#15,.T.);
#273=EDGE_CURVE('',#361,#369,#16,.T.);
#274=EDGE_CURVE('',#370,#362,#17,.F.);
#275=EDGE_CURVE('',#371,#349,#450,.T.);
#276=EDGE_CURVE('',#371,#372,#451,.T.);
#277=EDGE_CURVE('',#372,#350,#452,.T.);
#278=EDGE_CURVE('',#371,#366,#453,.T.);
#279=EDGE_CURVE('',#372,#365,#454,.T.);
#280=EDGE_CURVE('',#373,#374,#455,.T.);
#281=EDGE_CURVE('',#373,#375,#456,.T.);
#282=EDGE_CURVE('',#375,#376,#457,.T.);
#283=EDGE_CURVE('',#374,#376,#458,.T.);
#284=EDGE_CURVE('',#377,#378,#459,.T.);
#285=EDGE_CURVE('',#378,#379,#460,.T.);
#286=EDGE_CURVE('',#380,#379,#461,.T.);
#287=EDGE_CURVE('',#380,#377,#462,.T.);
#288=EDGE_CURVE('',#379,#374,#463,.T.);
#289=EDGE_CURVE('',#380,#376,#464,.T.);
#290=EDGE_CURVE('',#377,#375,#465,.T.);
#291=EDGE_CURVE('',#378,#373,#466,.T.);
#292=EDGE_CURVE('',#381,#382,#467,.T.);
#293=EDGE_CURVE('',#381,#383,#468,.T.);
#294=EDGE_CURVE('',#383,#384,#469,.T.);
#295=EDGE_CURVE('',#382,#384,#470,.T.);
#296=EDGE_CURVE('',#385,#386,#471,.T.);
#297=EDGE_CURVE('',#385,#387,#472,.T.);
#298=EDGE_CURVE('',#388,#387,#473,.T.);
#299=EDGE_CURVE('',#389,#388,#474,.T.);
#300=EDGE_CURVE('',#389,#390,#475,.T.);
#301=EDGE_CURVE('',#390,#391,#476,.T.);
#302=EDGE_CURVE('',#391,#392,#477,.T.);
#303=EDGE_CURVE('',#392,#386,#478,.T.);
#304=EDGE_CURVE('',#393,#391,#479,.T.);
#305=EDGE_CURVE('',#392,#393,#480,.T.);
#306=EDGE_CURVE('',#386,#394,#481,.T.);
#307=EDGE_CURVE('',#394,#385,#482,.T.);
#308=EDGE_CURVE('',#393,#394,#483,.T.);
#309=EDGE_CURVE('',#395,#381,#484,.T.);
#310=EDGE_CURVE('',#382,#396,#485,.T.);
#311=EDGE_CURVE('',#396,#395,#486,.T.);
#312=EDGE_CURVE('',#397,#383,#487,.T.);
#313=EDGE_CURVE('',#398,#397,#488,.T.);
#314=EDGE_CURVE('',#384,#398,#489,.T.);
#315=EDGE_CURVE('',#399,#400,#490,.T.);
#316=EDGE_CURVE('',#401,#399,#491,.T.);
#317=EDGE_CURVE('',#401,#402,#492,.T.);
#318=EDGE_CURVE('',#402,#400,#493,.T.);
#319=EDGE_CURVE('',#396,#398,#494,.T.);
#320=EDGE_CURVE('',#395,#397,#495,.T.);
#321=EDGE_CURVE('',#403,#390,#496,.T.);
#322=EDGE_CURVE('',#403,#404,#497,.T.);
#323=EDGE_CURVE('',#404,#387,#498,.T.);
#324=EDGE_CURVE('',#405,#389,#499,.T.);
#325=EDGE_CURVE('',#405,#403,#500,.T.);
#326=EDGE_CURVE('',#406,#388,#501,.T.);
#327=EDGE_CURVE('',#405,#406,#502,.T.);
#328=EDGE_CURVE('',#406,#404,#503,.T.);
#329=EDGE_CURVE('',#407,#408,#504,.T.);
#330=EDGE_CURVE('',#409,#407,#505,.T.);
#331=EDGE_CURVE('',#409,#410,#506,.T.);
#332=EDGE_CURVE('',#408,#410,#507,.T.);
#333=EDGE_CURVE('',#411,#412,#508,.T.);
#334=EDGE_CURVE('',#413,#411,#509,.T.);
#335=EDGE_CURVE('',#413,#414,#510,.T.);
#336=EDGE_CURVE('',#414,#412,#511,.T.);
#337=EDGE_CURVE('',#415,#416,#512,.T.);
#338=EDGE_CURVE('',#416,#417,#513,.T.);
#339=EDGE_CURVE('',#418,#417,#514,.T.);
#340=EDGE_CURVE('',#415,#418,#515,.T.);
#341=EDGE_CURVE('',#408,#411,#516,.T.);
#342=EDGE_CURVE('',#410,#413,#517,.T.);
#343=EDGE_CURVE('',#414,#409,#518,.T.);
#344=EDGE_CURVE('',#412,#407,#519,.T.);
#345=EDGE_CURVE('',#415,#401,#520,.T.);
#346=EDGE_CURVE('',#416,#399,#521,.T.);
#347=EDGE_CURVE('',#417,#400,#522,.T.);
#348=EDGE_CURVE('',#418,#402,#523,.T.);
#349=VERTEX_POINT('',#1106);
#350=VERTEX_POINT('',#1107);
#351=VERTEX_POINT('',#1109);
#352=VERTEX_POINT('',#1111);
#353=VERTEX_POINT('',#1113);
#354=VERTEX_POINT('',#1115);
#355=VERTEX_POINT('',#1117);
#356=VERTEX_POINT('',#1119);
#357=VERTEX_POINT('',#1123);
#358=VERTEX_POINT('',#1124);
#359=VERTEX_POINT('',#1126);
#360=VERTEX_POINT('',#1128);
#361=VERTEX_POINT('',#1132);
#362=VERTEX_POINT('',#1134);
#363=VERTEX_POINT('',#1138);
#364=VERTEX_POINT('',#1140);
#365=VERTEX_POINT('',#1147);
#366=VERTEX_POINT('',#1149);
#367=VERTEX_POINT('',#1153);
#368=VERTEX_POINT('',#1155);
#369=VERTEX_POINT('',#1159);
#370=VERTEX_POINT('',#1163);
#371=VERTEX_POINT('',#1177);
#372=VERTEX_POINT('',#1179);
#373=VERTEX_POINT('',#1187);
#374=VERTEX_POINT('',#1188);
#375=VERTEX_POINT('',#1190);
#376=VERTEX_POINT('',#1192);
#377=VERTEX_POINT('',#1196);
#378=VERTEX_POINT('',#1197);
#379=VERTEX_POINT('',#1199);
#380=VERTEX_POINT('',#1201);
#381=VERTEX_POINT('',#1214);
#382=VERTEX_POINT('',#1215);
#383=VERTEX_POINT('',#1217);
#384=VERTEX_POINT('',#1219);
#385=VERTEX_POINT('',#1222);
#386=VERTEX_POINT('',#1223);
#387=VERTEX_POINT('',#1225);
#388=VERTEX_POINT('',#1227);
#389=VERTEX_POINT('',#1229);
#390=VERTEX_POINT('',#1231);
#391=VERTEX_POINT('',#1233);
#392=VERTEX_POINT('',#1235);
#393=VERTEX_POINT('',#1239);
#394=VERTEX_POINT('',#1243);
#395=VERTEX_POINT('',#1249);
#396=VERTEX_POINT('',#1251);
#397=VERTEX_POINT('',#1255);
#398=VERTEX_POINT('',#1257);
#399=VERTEX_POINT('',#1261);
#400=VERTEX_POINT('',#1262);
#401=VERTEX_POINT('',#1264);
#402=VERTEX_POINT('',#1266);
#403=VERTEX_POINT('',#1274);
#404=VERTEX_POINT('',#1276);
#405=VERTEX_POINT('',#1280);
#406=VERTEX_POINT('',#1284);
#407=VERTEX_POINT('',#1290);
#408=VERTEX_POINT('',#1291);
#409=VERTEX_POINT('',#1293);
#410=VERTEX_POINT('',#1295);
#411=VERTEX_POINT('',#1299);
#412=VERTEX_POINT('',#1300);
#413=VERTEX_POINT('',#1302);
#414=VERTEX_POINT('',#1304);
#415=VERTEX_POINT('',#1308);
#416=VERTEX_POINT('',#1309);
#417=VERTEX_POINT('',#1311);
#418=VERTEX_POINT('',#1313);
#419=LINE('',#1105,#524);
#420=LINE('',#1108,#525);
#421=LINE('',#1110,#526);
#422=LINE('',#1112,#527);
#423=LINE('',#1114,#528);
#424=LINE('',#1116,#529);
#425=LINE('',#1118,#530);
#426=LINE('',#1120,#531);
#427=LINE('',#1122,#532);
#428=LINE('',#1125,#533);
#429=LINE('',#1127,#534);
#430=LINE('',#1129,#535);
#431=LINE('',#1131,#536);
#432=LINE('',#1133,#537);
#433=LINE('',#1135,#538);
#434=LINE('',#1137,#539);
#435=LINE('',#1139,#540);
#436=LINE('',#1141,#541);
#437=LINE('',#1143,#542);
#438=LINE('',#1145,#543);
#439=LINE('',#1146,#544);
#440=LINE('',#1148,#545);
#441=LINE('',#1150,#546);
#442=LINE('',#1152,#547);
#443=LINE('',#1154,#548);
#444=LINE('',#1156,#549);
#445=LINE('',#1158,#550);
#446=LINE('',#1160,#551);
#447=LINE('',#1162,#552);
#448=LINE('',#1164,#553);
#449=LINE('',#1166,#554);
#450=LINE('',#1176,#555);
#451=LINE('',#1178,#556);
#452=LINE('',#1180,#557);
#453=LINE('',#1182,#558);
#454=LINE('',#1184,#559);
#455=LINE('',#1186,#560);
#456=LINE('',#1189,#561);
#457=LINE('',#1191,#562);
#458=LINE('',#1193,#563);
#459=LINE('',#1195,#564);
#460=LINE('',#1198,#565);
#461=LINE('',#1200,#566);
#462=LINE('',#1202,#567);
#463=LINE('',#1204,#568);
#464=LINE('',#1205,#569);
#465=LINE('',#1207,#570);
#466=LINE('',#1209,#571);
#467=LINE('',#1213,#572);
#468=LINE('',#1216,#573);
#469=LINE('',#1218,#574);
#470=LINE('',#1220,#575);
#471=LINE('',#1221,#576);
#472=LINE('',#1224,#577);
#473=LINE('',#1226,#578);
#474=LINE('',#1228,#579);
#475=LINE('',#1230,#580);
#476=LINE('',#1232,#581);
#477=LINE('',#1234,#582);
#478=LINE('',#1236,#583);
#479=LINE('',#1238,#584);
#480=LINE('',#1240,#585);
#481=LINE('',#1242,#586);
#482=LINE('',#1244,#587);
#483=LINE('',#1246,#588);
#484=LINE('',#1248,#589);
#485=LINE('',#1250,#590);
#486=LINE('',#1252,#591);
#487=LINE('',#1254,#592);
#488=LINE('',#1256,#593);
#489=LINE('',#1258,#594);
#490=LINE('',#1260,#595);
#491=LINE('',#1263,#596);
#492=LINE('',#1265,#597);
#493=LINE('',#1267,#598);
#494=LINE('',#1268,#599);
#495=LINE('',#1270,#600);
#496=LINE('',#1273,#601);
#497=LINE('',#1275,#602);
#498=LINE('',#1277,#603);
#499=LINE('',#1279,#604);
#500=LINE('',#1281,#605);
#501=LINE('',#1283,#606);
#502=LINE('',#1285,#607);
#503=LINE('',#1287,#608);
#504=LINE('',#1289,#609);
#505=LINE('',#1292,#610);
#506=LINE('',#1294,#611);
#507=LINE('',#1296,#612);
#508=LINE('',#1298,#613);
#509=LINE('',#1301,#614);
#510=LINE('',#1303,#615);
#511=LINE('',#1305,#616);
#512=LINE('',#1307,#617);
#513=LINE('',#1310,#618);
#514=LINE('',#1312,#619);
#515=LINE('',#1314,#620);
#516=LINE('',#1315,#621);
#517=LINE('',#1316,#622);
#518=LINE('',#1318,#623);
#519=LINE('',#1319,#624);
#520=LINE('',#1323,#625);
#521=LINE('',#1324,#626);
#522=LINE('',#1326,#627);
#523=LINE('',#1328,#628);
#524=VECTOR('',#898,1.);
#525=VECTOR('',#899,1.);
#526=VECTOR('',#900,1.);
#527=VECTOR('',#901,1.);
#528=VECTOR('',#902,1.);
#529=VECTOR('',#903,1.);
#530=VECTOR('',#904,1.);
#531=VECTOR('',#905,1.);
#532=VECTOR('',#908,1.);
#533=VECTOR('',#909,1.);
#534=VECTOR('',#910,1.);
#535=VECTOR('',#911,1.);
#536=VECTOR('',#914,1.);
#537=VECTOR('',#915,1.);
#538=VECTOR('',#916,1.);
#539=VECTOR('',#919,1.);
#540=VECTOR('',#920,1.);
#541=VECTOR('',#921,1.);
#542=VECTOR('',#924,1.);
#543=VECTOR('',#927,1.);
#544=VECTOR('',#928,1.);
#545=VECTOR('',#929,1.);
#546=VECTOR('',#930,1.);
#547=VECTOR('',#933,1.);
#548=VECTOR('',#934,1.);
#549=VECTOR('',#935,1.);
#550=VECTOR('',#938,1.);
#551=VECTOR('',#939,1.);
#552=VECTOR('',#942,1.);
#553=VECTOR('',#943,1.);
#554=VECTOR('',#946,1.);
#555=VECTOR('',#965,1.);
#556=VECTOR('',#966,1.);
#557=VECTOR('',#967,1.);
#558=VECTOR('',#970,1.);
#559=VECTOR('',#973,1.);
#560=VECTOR('',#976,1.);
#561=VECTOR('',#977,1.);
#562=VECTOR('',#978,1.);
#563=VECTOR('',#979,1.);
#564=VECTOR('',#982,1.);
#565=VECTOR('',#983,1.);
#566=VECTOR('',#984,1.);
#567=VECTOR('',#985,1.);
#568=VECTOR('',#988,1.);
#569=VECTOR('',#989,1.);
#570=VECTOR('',#992,1.);
#571=VECTOR('',#995,1.);
#572=VECTOR('',#1002,1.);
#573=VECTOR('',#1003,1.);
#574=VECTOR('',#1004,1.);
#575=VECTOR('',#1005,1.);
#576=VECTOR('',#1006,1.);
#577=VECTOR('',#1007,1.);
#578=VECTOR('',#1008,1.);
#579=VECTOR('',#1009,1.);
#580=VECTOR('',#1010,1.);
#581=VECTOR('',#1011,1.);
#582=VECTOR('',#1012,1.);
#583=VECTOR('',#1013,1.);
#584=VECTOR('',#1016,1.);
#585=VECTOR('',#1017,1.);
#586=VECTOR('',#1020,1.);
#587=VECTOR('',#1021,1.);
#588=VECTOR('',#1024,1.);
#589=VECTOR('',#1027,1.);
#590=VECTOR('',#1028,1.);
#591=VECTOR('',#1029,1.);
#592=VECTOR('',#1032,1.);
#593=VECTOR('',#1033,1.);
#594=VECTOR('',#1034,1.);
#595=VECTOR('',#1037,1.);
#596=VECTOR('',#1038,1.);
#597=VECTOR('',#1039,1.);
#598=VECTOR('',#1040,1.);
#599=VECTOR('',#1041,1.);
#600=VECTOR('',#1044,1.);
#601=VECTOR('',#1049,1.);
#602=VECTOR('',#1050,1.);
#603=VECTOR('',#1051,1.);
#604=VECTOR('',#1054,1.);
#605=VECTOR('',#1055,1.);
#606=VECTOR('',#1058,1.);
#607=VECTOR('',#1059,1.);
#608=VECTOR('',#1062,1.);
#609=VECTOR('',#1065,1.);
#610=VECTOR('',#1066,1.);
#611=VECTOR('',#1067,1.);
#612=VECTOR('',#1068,1.);
#613=VECTOR('',#1071,1.);
#614=VECTOR('',#1072,1.);
#615=VECTOR('',#1073,1.);
#616=VECTOR('',#1074,1.);
#617=VECTOR('',#1077,1.);
#618=VECTOR('',#1078,1.);
#619=VECTOR('',#1079,1.);
#620=VECTOR('',#1080,1.);
#621=VECTOR('',#1081,1.);
#622=VECTOR('',#1082,1.);
#623=VECTOR('',#1085,1.);
#624=VECTOR('',#1086,1.);
#625=VECTOR('',#1093,1.);
#626=VECTOR('',#1094,1.);
#627=VECTOR('',#1097,1.);
#628=VECTOR('',#1100,1.);
#629=EDGE_LOOP('',(#22,#23,#24,#25,#26,#27,#28,#29));
#630=EDGE_LOOP('',(#30,#31,#32,#33));
#631=EDGE_LOOP('',(#34,#35,#36,#37));
#632=EDGE_LOOP('',(#38,#39,#40,#41));
#633=EDGE_LOOP('',(#42,#43,#44,#45));
#634=EDGE_LOOP('',(#46,#47,#48,#49,#50,#51,#52,#53));
#635=EDGE_LOOP('',(#54,#55,#56,#57));
#636=EDGE_LOOP('',(#58,#59,#60,#61));
#637=EDGE_LOOP('',(#62,#63,#64,#65));
#638=EDGE_LOOP('',(#66,#67,#68,#69));
#639=EDGE_LOOP('',(#70,#71,#72,#73));
#640=EDGE_LOOP('',(#74,#75,#76,#77));
#641=EDGE_LOOP('',(#78,#79,#80,#81));
#642=EDGE_LOOP('',(#82,#83,#84,#85));
#643=EDGE_LOOP('',(#86,#87,#88,#89));
#644=EDGE_LOOP('',(#90,#91,#92,#93));
#645=EDGE_LOOP('',(#94,#95,#96,#97));
#646=EDGE_LOOP('',(#98,#99,#100,#101));
#647=EDGE_LOOP('',(#102,#103,#104,#105));
#648=EDGE_LOOP('',(#106,#107,#108,#109));
#649=EDGE_LOOP('',(#110,#111,#112,#113));
#650=EDGE_LOOP('',(#114,#115,#116,#117));
#651=EDGE_LOOP('',(#118,#119,#120,#121));
#652=EDGE_LOOP('',(#122,#123,#124,#125));
#653=EDGE_LOOP('',(#126,#127,#128,#129));
#654=EDGE_LOOP('',(#130,#131,#132,#133,#134,#135,#136,#137));
#655=EDGE_LOOP('',(#138,#139,#140));
#656=EDGE_LOOP('',(#141,#142,#143));
#657=EDGE_LOOP('',(#144,#145,#146,#147));
#658=EDGE_LOOP('',(#148,#149,#150,#151));
#659=EDGE_LOOP('',(#152,#153,#154,#155));
#660=EDGE_LOOP('',(#156,#157,#158,#159));
#661=EDGE_LOOP('',(#160,#161,#162,#163));
#662=EDGE_LOOP('',(#164,#165,#166,#167));
#663=EDGE_LOOP('',(#168,#169,#170,#171));
#664=EDGE_LOOP('',(#172,#173,#174,#175,#176,#177,#178,#179));
#665=EDGE_LOOP('',(#180,#181,#182,#183));
#666=EDGE_LOOP('',(#184,#185,#186,#187));
#667=EDGE_LOOP('',(#188,#189,#190,#191));
#668=EDGE_LOOP('',(#192,#193,#194,#195));
#669=EDGE_LOOP('',(#196,#197,#198,#199));
#670=EDGE_LOOP('',(#200,#201,#202,#203));
#671=EDGE_LOOP('',(#204,#205,#206,#207));
#672=EDGE_LOOP('',(#208,#209,#210,#211));
#673=EDGE_LOOP('',(#212,#213,#214,#215));
#674=EDGE_LOOP('',(#216,#217,#218,#219));
#675=EDGE_LOOP('',(#220,#221,#222,#223));
#676=EDGE_LOOP('',(#224,#225,#226,#227));
#677=EDGE_LOOP('',(#228,#229,#230,#231));
#678=EDGE_LOOP('',(#232,#233,#234,#235));
#679=EDGE_LOOP('',(#236,#237,#238,#239));
#680=FACE_BOUND('',#629,.T.);
#681=FACE_BOUND('',#630,.T.);
#682=FACE_BOUND('',#631,.T.);
#683=FACE_BOUND('',#632,.T.);
#684=FACE_BOUND('',#633,.T.);
#685=FACE_BOUND('',#634,.T.);
#686=FACE_BOUND('',#635,.T.);
#687=FACE_BOUND('',#636,.T.);
#688=FACE_BOUND('',#637,.T.);
#689=FACE_BOUND('',#638,.T.);
#690=FACE_BOUND('',#639,.T.);
#691=FACE_BOUND('',#640,.T.);
#692=FACE_BOUND('',#641,.T.);
#693=FACE_BOUND('',#642,.T.);
#694=FACE_BOUND('',#643,.T.);
#695=FACE_BOUND('',#644,.T.);
#696=FACE_BOUND('',#645,.T.);
#697=FACE_BOUND('',#646,.T.);
#698=FACE_BOUND('',#647,.T.);
#699=FACE_BOUND('',#648,.T.);
#700=FACE_BOUND('',#649,.T.);
#701=FACE_BOUND('',#650,.T.);
#702=FACE_BOUND('',#651,.T.);
#703=FACE_BOUND('',#652,.T.);
#704=FACE_BOUND('',#653,.T.);
#705=FACE_BOUND('',#654,.T.);
#706=FACE_BOUND('',#655,.T.);
#707=FACE_BOUND('',#656,.T.);
#708=FACE_BOUND('',#657,.T.);
#709=FACE_BOUND('',#658,.T.);
#710=FACE_BOUND('',#659,.T.);
#711=FACE_BOUND('',#660,.T.);
#712=FACE_BOUND('',#661,.T.);
#713=FACE_BOUND('',#662,.T.);
#714=FACE_BOUND('',#663,.T.);
#715=FACE_BOUND('',#664,.T.);
#716=FACE_BOUND('',#665,.T.);
#717=FACE_BOUND('',#666,.T.);
#718=FACE_BOUND('',#667,.T.);
#719=FACE_BOUND('',#668,.T.);
#720=FACE_BOUND('',#669,.T.);
#721=FACE_BOUND('',#670,.T.);
#722=FACE_BOUND('',#671,.T.);
#723=FACE_BOUND('',#672,.T.);
#724=FACE_BOUND('',#673,.T.);
#725=FACE_BOUND('',#674,.T.);
#726=FACE_BOUND('',#675,.T.);
#727=FACE_BOUND('',#676,.T.);
#728=FACE_BOUND('',#677,.T.);
#729=FACE_BOUND('',#678,.T.);
#730=FACE_BOUND('',#679,.T.);
#731=PLANE('',#843);
#732=PLANE('',#844);
#733=PLANE('',#845);
#734=PLANE('',#846);
#735=PLANE('',#847);
#736=PLANE('',#848);
#737=PLANE('',#849);
#738=PLANE('',#850);
#739=PLANE('',#851);
#740=PLANE('',#852);
#741=PLANE('',#861);
#742=PLANE('',#862);
#743=PLANE('',#863);
#744=PLANE('',#864);
#745=PLANE('',#865);
#746=PLANE('',#866);
#747=PLANE('',#867);
#748=PLANE('',#868);
#749=PLANE('',#869);
#750=PLANE('',#871);
#751=PLANE('',#872);
#752=PLANE('',#873);
#753=PLANE('',#874);
#754=PLANE('',#875);
#755=PLANE('',#876);
#756=PLANE('',#877);
#757=PLANE('',#878);
#758=PLANE('',#879);
#759=PLANE('',#880);
#760=PLANE('',#881);
#761=PLANE('',#882);
#762=PLANE('',#883);
#763=PLANE('',#884);
#764=PLANE('',#885);
#765=PLANE('',#886);
#766=PLANE('',#887);
#767=PLANE('',#888);
#768=PLANE('',#889);
#769=PLANE('',#890);
#770=PLANE('',#891);
#771=PLANE('',#892);
#772=PLANE('',#893);
#773=ADVANCED_FACE('',(#680),#731,.F.);
#774=ADVANCED_FACE('',(#681),#732,.F.);
#775=ADVANCED_FACE('',(#682),#733,.T.);
#776=ADVANCED_FACE('',(#683),#734,.F.);
#777=ADVANCED_FACE('',(#684),#735,.T.);
#778=ADVANCED_FACE('',(#685),#736,.F.);
#779=ADVANCED_FACE('',(#686),#737,.F.);
#780=ADVANCED_FACE('',(#687),#738,.T.);
#781=ADVANCED_FACE('',(#688),#739,.F.);
#782=ADVANCED_FACE('',(#689),#740,.T.);
#783=ADVANCED_FACE('',(#690),#18,.T.);
#784=ADVANCED_FACE('',(#691),#19,.T.);
#785=ADVANCED_FACE('',(#692),#20,.T.);
#786=ADVANCED_FACE('',(#693),#21,.T.);
#787=ADVANCED_FACE('',(#694),#741,.T.);
#788=ADVANCED_FACE('',(#695),#742,.F.);
#789=ADVANCED_FACE('',(#696),#743,.T.);
#790=ADVANCED_FACE('',(#697,#698),#744,.T.);
#791=ADVANCED_FACE('',(#699),#745,.T.);
#792=ADVANCED_FACE('',(#700),#746,.T.);
#793=ADVANCED_FACE('',(#701),#747,.T.);
#794=ADVANCED_FACE('',(#702),#748,.F.);
#795=ADVANCED_FACE('',(#703),#749,.F.);
#796=ADVANCED_FACE('',(#704,#705),#750,.T.);
#797=ADVANCED_FACE('',(#706),#751,.F.);
#798=ADVANCED_FACE('',(#707),#752,.T.);
#799=ADVANCED_FACE('',(#708),#753,.T.);
#800=ADVANCED_FACE('',(#709),#754,.T.);
#801=ADVANCED_FACE('',(#710),#755,.F.);
#802=ADVANCED_FACE('',(#711,#712),#756,.F.);
#803=ADVANCED_FACE('',(#713),#757,.F.);
#804=ADVANCED_FACE('',(#714),#758,.F.);
#805=ADVANCED_FACE('',(#715),#759,.T.);
#806=ADVANCED_FACE('',(#716),#760,.T.);
#807=ADVANCED_FACE('',(#717),#761,.F.);
#808=ADVANCED_FACE('',(#718),#762,.F.);
#809=ADVANCED_FACE('',(#719,#720),#763,.T.);
#810=ADVANCED_FACE('',(#721),#764,.T.);
#811=ADVANCED_FACE('',(#722,#723),#765,.T.);
#812=ADVANCED_FACE('',(#724),#766,.T.);
#813=ADVANCED_FACE('',(#725),#767,.T.);
#814=ADVANCED_FACE('',(#726),#768,.F.);
#815=ADVANCED_FACE('',(#727),#769,.F.);
#816=ADVANCED_FACE('',(#728),#770,.F.);
#817=ADVANCED_FACE('',(#729),#771,.T.);
#818=ADVANCED_FACE('',(#730),#772,.T.);
#819=CLOSED_SHELL('',(#773,#774,#775,#776,#777,#778,#779,#780,#781,#782,
#783,#784,#785,#786,#787,#788,#789,#790,#791,#792,#793,#794,#795));
#820=CLOSED_SHELL('',(#796,#797,#798,#799,#800,#801,#802,#803,#804,#805,
#806,#807,#808,#809,#810,#811,#812,#813,#814,#815,#816,#817,#818));
#821=STYLED_ITEM('',(#823),#836);
#822=STYLED_ITEM('',(#824),#837);
#823=PRESENTATION_STYLE_ASSIGNMENT((#825));
#824=PRESENTATION_STYLE_ASSIGNMENT((#826));
#825=SURFACE_STYLE_USAGE(.BOTH.,#827);
#826=SURFACE_STYLE_USAGE(.BOTH.,#828);
#827=SURFACE_SIDE_STYLE('',(#829));
#828=SURFACE_SIDE_STYLE('',(#830));
#829=SURFACE_STYLE_FILL_AREA(#831);
#830=SURFACE_STYLE_FILL_AREA(#832);
#831=FILL_AREA_STYLE('',(#833));
#832=FILL_AREA_STYLE('',(#834));
#833=FILL_AREA_STYLE_COLOUR('',#835);
#834=FILL_AREA_STYLE_COLOUR('',#835);
#835=COLOUR_RGB('',0.615686274509804,0.811764705882353,0.929411764705882);
#836=MANIFOLD_SOLID_BREP('Part 1',#819);
#837=MANIFOLD_SOLID_BREP('Part 2',#820);
#838=SHAPE_DEFINITION_REPRESENTATION(#1342,#840);
#839=SHAPE_DEFINITION_REPRESENTATION(#1343,#841);
#840=SHAPE_REPRESENTATION('Part 1',(#842),#1332);
#841=SHAPE_REPRESENTATION('Part 2',(#870),#1333);
#842=AXIS2_PLACEMENT_3D('',#1103,#894,#895);
#843=AXIS2_PLACEMENT_3D('',#1104,#896,#897);
#844=AXIS2_PLACEMENT_3D('',#1121,#906,#907);
#845=AXIS2_PLACEMENT_3D('',#1130,#912,#913);
#846=AXIS2_PLACEMENT_3D('',#1136,#917,#918);
#847=AXIS2_PLACEMENT_3D('',#1142,#922,#923);
#848=AXIS2_PLACEMENT_3D('',#1144,#925,#926);
#849=AXIS2_PLACEMENT_3D('',#1151,#931,#932);
#850=AXIS2_PLACEMENT_3D('',#1157,#936,#937);
#851=AXIS2_PLACEMENT_3D('',#1161,#940,#941);
#852=AXIS2_PLACEMENT_3D('',#1165,#944,#945);
#853=AXIS2_PLACEMENT_3D('',#1167,#947,#948);
#854=AXIS2_PLACEMENT_3D('',#1168,#949,#950);
#855=AXIS2_PLACEMENT_3D('',#1169,#951,#952);
#856=AXIS2_PLACEMENT_3D('',#1170,#953,#954);
#857=AXIS2_PLACEMENT_3D('',#1171,#955,#956);
#858=AXIS2_PLACEMENT_3D('',#1172,#957,#958);
#859=AXIS2_PLACEMENT_3D('',#1173,#959,#960);
#860=AXIS2_PLACEMENT_3D('',#1174,#961,#962);
#861=AXIS2_PLACEMENT_3D('',#1175,#963,#964);
#862=AXIS2_PLACEMENT_3D('',#1181,#968,#969);
#863=AXIS2_PLACEMENT_3D('',#1183,#971,#972);
#864=AXIS2_PLACEMENT_3D('',#1185,#974,#975);
#865=AXIS2_PLACEMENT_3D('',#1194,#980,#981);
#866=AXIS2_PLACEMENT_3D('',#1203,#986,#987);
#867=AXIS2_PLACEMENT_3D('',#1206,#990,#991);
#868=AXIS2_PLACEMENT_3D('',#1208,#993,#994);
#869=AXIS2_PLACEMENT_3D('',#1210,#996,#997);
#870=AXIS2_PLACEMENT_3D('',#1211,#998,#999);
#871=AXIS2_PLACEMENT_3D('',#1212,#1000,#1001);
#872=AXIS2_PLACEMENT_3D('',#1237,#1014,#1015);
#873=AXIS2_PLACEMENT_3D('',#1241,#1018,#1019);
#874=AXIS2_PLACEMENT_3D('',#1245,#1022,#1023);
#875=AXIS2_PLACEMENT_3D('',#1247,#1025,#1026);
#876=AXIS2_PLACEMENT_3D('',#1253,#1030,#1031);
#877=AXIS2_PLACEMENT_3D('',#1259,#1035,#1036);
#878=AXIS2_PLACEMENT_3D('',#1269,#1042,#1043);
#879=AXIS2_PLACEMENT_3D('',#1271,#1045,#1046);
#880=AXIS2_PLACEMENT_3D('',#1272,#1047,#1048);
#881=AXIS2_PLACEMENT_3D('',#1278,#1052,#1053);
#882=AXIS2_PLACEMENT_3D('',#1282,#1056,#1057);
#883=AXIS2_PLACEMENT_3D('',#1286,#1060,#1061);
#884=AXIS2_PLACEMENT_3D('',#1288,#1063,#1064);
#885=AXIS2_PLACEMENT_3D('',#1297,#1069,#1070);
#886=AXIS2_PLACEMENT_3D('',#1306,#1075,#1076);
#887=AXIS2_PLACEMENT_3D('',#1317,#1083,#1084);
#888=AXIS2_PLACEMENT_3D('',#1320,#1087,#1088);
#889=AXIS2_PLACEMENT_3D('',#1321,#1089,#1090);
#890=AXIS2_PLACEMENT_3D('',#1322,#1091,#1092);
#891=AXIS2_PLACEMENT_3D('',#1325,#1095,#1096);
#892=AXIS2_PLACEMENT_3D('',#1327,#1098,#1099);
#893=AXIS2_PLACEMENT_3D('',#1329,#1101,#1102);
#894=DIRECTION('',(0.,0.,1.));
#895=DIRECTION('',(1.,0.,0.));
#896=DIRECTION('',(0.,0.,-1.));
#897=DIRECTION('',(1.,0.,0.));
#898=DIRECTION('',(-1.,0.,0.));
#899=DIRECTION('',(0.,1.,0.));
#900=DIRECTION('',(-1.,0.,0.));
#901=DIRECTION('',(0.,1.,0.));
#902=DIRECTION('',(-1.,0.,0.));
#903=DIRECTION('',(0.,1.,0.));
#904=DIRECTION('',(-1.,0.,0.));
#905=DIRECTION('',(0.,1.,0.));
#906=DIRECTION('',(0.,0.,1.));
#907=DIRECTION('',(1.,0.,0.));
#908=DIRECTION('',(1.,0.,0.));
#909=DIRECTION('',(0.,-1.,0.));
#910=DIRECTION('',(-1.,0.,0.));
#911=DIRECTION('',(0.,1.,0.));
#912=DIRECTION('',(1.,0.,0.));
#913=DIRECTION('',(0.,1.,0.));
#914=DIRECTION('',(0.,0.,1.));
#915=DIRECTION('',(0.,1.,0.));
#916=DIRECTION('',(0.,-9.25185853854297E-16,1.));
#917=DIRECTION('',(1.,0.,0.));
#918=DIRECTION('',(0.,1.,0.));
#919=DIRECTION('',(0.,-9.25185853854297E-16,1.));
#920=DIRECTION('',(0.,1.,0.));
#921=DIRECTION('',(0.,0.,1.));
#922=DIRECTION('',(0.,-1.,0.));
#923=DIRECTION('',(0.,0.,-1.));
#924=DIRECTION('',(1.,0.,0.));
#925=DIRECTION('',(0.,-1.,-9.25185853854297E-16));
#926=DIRECTION('',(0.,9.25185853854297E-16,-1.));
#927=DIRECTION('',(1.,0.,0.));
#928=DIRECTION('',(0.,0.,-1.));
#929=DIRECTION('',(-1.,0.,0.));
#930=DIRECTION('',(0.,0.,-1.));
#931=DIRECTION('',(0.707106781186548,0.,0.707106781186548));
#932=DIRECTION('',(0.,1.,0.));
#933=DIRECTION('',(-0.577350269189626,-0.577350269189626,0.577350269189626));
#934=DIRECTION('',(0.,-1.,0.));
#935=DIRECTION('',(0.577350269189626,-0.577350269189626,-0.577350269189626));
#936=DIRECTION('',(0.,-0.707106781186547,-0.707106781186548));
#937=DIRECTION('',(1.,0.,0.));
#938=DIRECTION('',(0.577350269189626,-0.577350269189626,0.577350269189626));
#939=DIRECTION('',(1.,0.,0.));
#940=DIRECTION('',(0.,-0.707106781186548,0.707106781186548));
#941=DIRECTION('',(-1.,0.,0.));
#942=DIRECTION('',(-1.,0.,0.));
#943=DIRECTION('',(0.577350269189626,0.577350269189626,0.577350269189626));
#944=DIRECTION('',(0.707106781186548,0.,-0.707106781186548));
#945=DIRECTION('',(0.,-1.,0.));
#946=DIRECTION('',(0.,1.,0.));
#947=DIRECTION('',(0.,-1.,0.));
#948=DIRECTION('',(0.,0.,-1.));
#949=DIRECTION('',(-0.707106781186548,-0.707106781186548,0.));
#950=DIRECTION('',(0.707106781186548,-0.707106781186548,0.));
#951=DIRECTION('',(0.707106781186548,-0.707106781186548,0.));
#952=DIRECTION('',(0.707106781186548,0.707106781186548,0.));
#953=DIRECTION('',(1.,0.,0.));
#954=DIRECTION('',(0.,0.,-1.));
#955=DIRECTION('',(0.707106781186548,0.707106781186548,0.));
#956=DIRECTION('',(0.707106781186548,-0.707106781186548,0.));
#957=DIRECTION('',(-1.,0.,0.));
#958=DIRECTION('',(0.,0.,1.));
#959=DIRECTION('',(-0.707106781186548,0.707106781186548,0.));
#960=DIRECTION('',(-0.707106781186548,-0.707106781186548,0.));
#961=DIRECTION('',(0.,1.,0.));
#962=DIRECTION('',(0.,0.,1.));
#963=DIRECTION('',(0.,-1.,0.));
#964=DIRECTION('',(0.,0.,-1.));
#965=DIRECTION('',(0.,0.,-1.));
#966=DIRECTION('',(-1.,0.,0.));
#967=DIRECTION('',(0.,0.,-1.));
#968=DIRECTION('',(-1.,0.,0.));
#969=DIRECTION('',(0.,0.,1.));
#970=DIRECTION('',(0.,1.,0.));
#971=DIRECTION('',(-1.,0.,0.));
#972=DIRECTION('',(0.,0.,1.));
#973=DIRECTION('',(0.,1.,0.));
#974=DIRECTION('',(0.,0.,1.));
#975=DIRECTION('',(1.,0.,0.));
#976=DIRECTION('',(0.,1.,0.));
#977=DIRECTION('',(-1.,0.,0.));
#978=DIRECTION('',(0.,1.,0.));
#979=DIRECTION('',(-1.,0.,0.));
#980=DIRECTION('',(0.,0.,1.));
#981=DIRECTION('',(1.,0.,0.));
#982=DIRECTION('',(1.,0.,0.));
#983=DIRECTION('',(0.,1.,0.));
#984=DIRECTION('',(1.,0.,0.));
#985=DIRECTION('',(0.,-1.,0.));
#986=DIRECTION('',(0.,-1.,-9.25185853854297E-16));
#987=DIRECTION('',(0.,9.25185853854297E-16,-1.));
#988=DIRECTION('',(0.,-9.25185853854297E-16,1.));
#989=DIRECTION('',(0.,-9.25185853854297E-16,1.));
#990=DIRECTION('',(1.,0.,0.));
#991=DIRECTION('',(0.,1.,0.));
#992=DIRECTION('',(0.,0.,1.));
#993=DIRECTION('',(0.,-1.,0.));
#994=DIRECTION('',(0.,0.,-1.));
#995=DIRECTION('',(0.,0.,1.));
#996=DIRECTION('',(1.,0.,0.));
#997=DIRECTION('',(0.,1.,0.));
#998=DIRECTION('',(0.,0.,1.));
#999=DIRECTION('',(1.,0.,0.));
#1000=DIRECTION('',(0.,0.,-1.));
#1001=DIRECTION('',(1.,0.,0.));
#1002=DIRECTION('',(0.,1.,0.));
#1003=DIRECTION('',(-1.,0.,0.));
#1004=DIRECTION('',(0.,1.,0.));
#1005=DIRECTION('',(-1.,0.,0.));
#1006=DIRECTION('',(0.,1.,0.));
#1007=DIRECTION('',(-1.,0.,0.));
#1008=DIRECTION('',(0.,1.,0.));
#1009=DIRECTION('',(-1.,0.,0.));
#1010=DIRECTION('',(0.,1.,0.));
#1011=DIRECTION('',(-1.,0.,0.));
#1012=DIRECTION('',(0.,1.,0.));
#1013=DIRECTION('',(-1.,0.,0.));
#1014=DIRECTION('',(1.,0.,0.));
#1015=DIRECTION('',(0.,1.,0.));
#1016=DIRECTION('',(0.,0.,-1.));
#1017=DIRECTION('',(0.,-0.64278760968654,0.766044443118978));
#1018=DIRECTION('',(1.,0.,0.));
#1019=DIRECTION('',(0.,1.,0.));
#1020=DIRECTION('',(0.,-0.64278760968654,0.766044443118978));
#1021=DIRECTION('',(0.,0.,-1.));
#1022=DIRECTION('',(0.,-0.766044443118978,-0.64278760968654));
#1023=DIRECTION('',(0.,0.64278760968654,-0.766044443118978));
#1024=DIRECTION('',(-1.,0.,0.));
#1025=DIRECTION('',(1.,0.,0.));
#1026=DIRECTION('',(0.,1.,0.));
#1027=DIRECTION('',(0.,-0.258819045102521,-0.965925826289068));
#1028=DIRECTION('',(0.,-0.64278760968654,0.766044443118978));
#1029=DIRECTION('',(0.,-1.,0.));
#1030=DIRECTION('',(1.,0.,0.));
#1031=DIRECTION('',(0.,1.,0.));
#1032=DIRECTION('',(0.,-0.258819045102521,-0.965925826289068));
#1033=DIRECTION('',(0.,-1.,0.));
#1034=DIRECTION('',(0.,-0.64278760968654,0.766044443118978));
#1035=DIRECTION('',(0.,-0.766044443118978,-0.64278760968654));
#1036=DIRECTION('',(0.,0.64278760968654,-0.766044443118978));
#1037=DIRECTION('',(2.82643336208034E-16,-0.64278760968654,0.766044443118978));
#1038=DIRECTION('',(-1.,0.,0.));
#1039=DIRECTION('',(2.82643336208034E-16,-0.64278760968654,0.766044443118978));
#1040=DIRECTION('',(-1.,0.,0.));
#1041=DIRECTION('',(-1.,0.,0.));
#1042=DIRECTION('',(0.,0.,-1.));
#1043=DIRECTION('',(-1.,0.,0.));
#1044=DIRECTION('',(-1.,0.,0.));
#1045=DIRECTION('',(0.,0.965925826289068,-0.258819045102521));
#1046=DIRECTION('',(0.,0.258819045102521,0.965925826289068));
#1047=DIRECTION('',(0.,-1.,0.));
#1048=DIRECTION('',(0.,0.,-1.));
#1049=DIRECTION('',(0.,0.,-1.));
#1050=DIRECTION('',(-1.,0.,0.));
#1051=DIRECTION('',(0.,0.,-1.));
#1052=DIRECTION('',(-1.,0.,0.));
#1053=DIRECTION('',(0.,0.,1.));
#1054=DIRECTION('',(0.,0.,-1.));
#1055=DIRECTION('',(0.,1.,0.));
#1056=DIRECTION('',(0.,-1.,0.));
#1057=DIRECTION('',(0.,0.,-1.));
#1058=DIRECTION('',(0.,0.,-1.));
#1059=DIRECTION('',(-1.,0.,0.));
#1060=DIRECTION('',(-1.,0.,0.));
#1061=DIRECTION('',(0.,0.,1.));
#1062=DIRECTION('',(0.,1.,0.));
#1063=DIRECTION('',(0.,0.,-1.));
#1064=DIRECTION('',(1.,0.,0.));
#1065=DIRECTION('',(0.,1.,0.));
#1066=DIRECTION('',(-1.,0.,0.));
#1067=DIRECTION('',(0.,1.,0.));
#1068=DIRECTION('',(1.,0.,0.));
#1069=DIRECTION('',(0.,0.,-1.));
#1070=DIRECTION('',(-1.,0.,0.));
#1071=DIRECTION('',(0.,-1.,0.));
#1072=DIRECTION('',(-1.,0.,0.));
#1073=DIRECTION('',(0.,-1.,0.));
#1074=DIRECTION('',(-1.,0.,0.));
#1075=DIRECTION('',(0.,-0.766044443118978,-0.64278760968654));
#1076=DIRECTION('',(0.,0.64278760968654,-0.766044443118978));
#1077=DIRECTION('',(-1.,0.,0.));
#1078=DIRECTION('',(2.82643336208034E-16,-0.64278760968654,0.766044443118978));
#1079=DIRECTION('',(-1.,0.,0.));
#1080=DIRECTION('',(2.82643336208034E-16,-0.64278760968654,0.766044443118978));
#1081=DIRECTION('',(0.,-0.64278760968654,0.766044443118978));
#1082=DIRECTION('',(0.,-0.64278760968654,0.766044443118978));
#1083=DIRECTION('',(0.,0.965925826289068,-0.258819045102521));
#1084=DIRECTION('',(0.,0.258819045102521,0.965925826289068));
#1085=DIRECTION('',(0.,-0.258819045102521,-0.965925826289068));
#1086=DIRECTION('',(0.,-0.258819045102521,-0.965925826289068));
#1087=DIRECTION('',(1.,0.,0.));
#1088=DIRECTION('',(0.,1.,0.));
#1089=DIRECTION('',(1.,0.,0.));
#1090=DIRECTION('',(0.,1.,0.));
#1091=DIRECTION('',(0.,0.64278760968654,-0.766044443118978));
#1092=DIRECTION('',(0.,0.766044443118978,0.64278760968654));
#1093=DIRECTION('',(0.,0.766044443118978,0.64278760968654));
#1094=DIRECTION('',(0.,0.766044443118978,0.64278760968654));
#1095=DIRECTION('',(-1.,-1.81679634474991E-16,2.16517357086773E-16));
#1096=DIRECTION('',(2.16517357086773E-16,0.,1.));
#1097=DIRECTION('',(0.,0.766044443118978,0.64278760968654));
#1098=DIRECTION('',(-1.,-1.81679634474991E-16,2.16517357086773E-16));
#1099=DIRECTION('',(2.16517357086773E-16,0.,1.));
#1100=DIRECTION('',(0.,0.766044443118978,0.64278760968654));
#1101=DIRECTION('',(0.,0.64278760968654,-0.766044443118978));
#1102=DIRECTION('',(0.,0.766044443118978,0.64278760968654));
#1103=CARTESIAN_POINT('',(0.,0.,0.));
#1104=CARTESIAN_POINT('',(0.,0.0583829159751971,0.015));
#1105=CARTESIAN_POINT('',(0.,0.000999999999999981,0.015));
#1106=CARTESIAN_POINT('',(0.0915,0.000999999999999981,0.015));
#1107=CARTESIAN_POINT('',(-0.0915,0.000999999999999987,0.015));
#1108=CARTESIAN_POINT('',(-0.0915,0.0844435779317981,0.015));
#1109=CARTESIAN_POINT('',(-0.0915,0.116765831950394,0.015));
#1110=CARTESIAN_POINT('',(0.0925,0.116765831950394,0.015));
#1111=CARTESIAN_POINT('',(-0.0925,0.116765831950394,0.015));
#1112=CARTESIAN_POINT('',(-0.0925,0.0583829159751971,0.015));
#1113=CARTESIAN_POINT('',(-0.0925,-2.77555756156289E-17,0.015));
#1114=CARTESIAN_POINT('',(0.0925,-2.60208521396521E-17,0.015));
#1115=CARTESIAN_POINT('',(0.0925,0.,0.015));
#1116=CARTESIAN_POINT('',(0.0925,0.0583829159751971,0.015));
#1117=CARTESIAN_POINT('',(0.0925,0.116765831950394,0.015));
#1118=CARTESIAN_POINT('',(0.0925,0.116765831950394,0.015));
#1119=CARTESIAN_POINT('',(0.0915,0.116765831950394,0.015));
#1120=CARTESIAN_POINT('',(0.0915,0.0844435779317981,0.015));
#1121=CARTESIAN_POINT('',(0.0925,0.0583829159751971,0.));
#1122=CARTESIAN_POINT('',(0.0925,0.115765831950394,0.));
#1123=CARTESIAN_POINT('',(-0.0915,0.115765831950394,0.));
#1124=CARTESIAN_POINT('',(0.0915,0.115765831950394,0.));
#1125=CARTESIAN_POINT('',(0.0915,0.,0.));
#1126=CARTESIAN_POINT('',(0.0915,0.001,0.));
#1127=CARTESIAN_POINT('',(-0.0925,0.001,0.));
#1128=CARTESIAN_POINT('',(-0.0915,0.001,0.));
#1129=CARTESIAN_POINT('',(-0.0915,0.0583829159751971,0.));
#1130=CARTESIAN_POINT('',(0.0925,0.0583829159751971,0.0534626665871387));
#1131=CARTESIAN_POINT('',(0.0925,0.,0.0075));
#1132=CARTESIAN_POINT('',(0.0925,0.,0.00141421356237309));
#1133=CARTESIAN_POINT('',(0.0925,0.0583829159751971,0.00141421356237309));
#1134=CARTESIAN_POINT('',(0.0925,0.116765831950394,0.0014142135623731));
#1135=CARTESIAN_POINT('',(0.0925,0.116765831950394,0.0075));
#1136=CARTESIAN_POINT('',(-0.0925,0.0583829159751971,0.0534626665871387));
#1137=CARTESIAN_POINT('',(-0.0925,0.116765831950394,0.0075));
#1138=CARTESIAN_POINT('',(-0.0925,0.116765831950394,0.00141421356237309));
#1139=CARTESIAN_POINT('',(-0.0925,0.,0.00141421356237309));
#1140=CARTESIAN_POINT('',(-0.0925,0.,0.00141421356237309));
#1141=CARTESIAN_POINT('',(-0.0925,0.,0.0075));
#1142=CARTESIAN_POINT('',(0.0925,0.,0.0075));
#1143=CARTESIAN_POINT('',(0.0925,0.,0.00141421356237309));
#1144=CARTESIAN_POINT('',(0.0925,0.116765831950394,0.0075));
#1145=CARTESIAN_POINT('',(-0.0925,0.116765831950394,0.0014142135623731));
#1146=CARTESIAN_POINT('',(-0.0915,0.116765831950394,0.0165));
#1147=CARTESIAN_POINT('',(-0.0915,0.116765831950394,0.0165));
#1148=CARTESIAN_POINT('',(0.0925,0.116765831950394,0.0165));
#1149=CARTESIAN_POINT('',(0.0915,0.116765831950394,0.0165));
#1150=CARTESIAN_POINT('',(0.0915,0.116765831950394,0.0165));
#1151=CARTESIAN_POINT('',(-0.0915,0.0583829159751971,0.));
#1152=CARTESIAN_POINT('',(-0.0301666666666667,0.0623333333333333,-0.0613333333333333));
#1153=CARTESIAN_POINT('',(-0.0922071067811866,0.000292893218813449,0.000707106781186566));
#1154=CARTESIAN_POINT('',(-0.0922071067811865,0.116765831950394,0.000707106781186545));
#1155=CARTESIAN_POINT('',(-0.0922071067811865,0.116472938731581,0.000707106781186542));
#1156=CARTESIAN_POINT('',(-0.072372361341601,0.0966381932919952,-0.019127638658399));
#1157=CARTESIAN_POINT('',(0.0925,0.001,0.));
#1158=CARTESIAN_POINT('',(0.0918333333333333,0.000666666666666667,0.000333333333333334));
#1159=CARTESIAN_POINT('',(0.0922071067811866,0.000292893218813451,0.00070710678118655));
#1160=CARTESIAN_POINT('',(0.0925,0.000292893218813453,0.000707106781186548));
#1161=CARTESIAN_POINT('',(0.0925,0.116765831950394,0.001));
#1162=CARTESIAN_POINT('',(0.0925,0.116472938731581,0.000707106781186547));
#1163=CARTESIAN_POINT('',(0.0922071067811865,0.116472938731581,0.00070710678118655));
#1164=CARTESIAN_POINT('',(0.0925,0.116765831950394,0.001));
#1165=CARTESIAN_POINT('',(0.0925,0.0583829159751971,0.001));
#1166=CARTESIAN_POINT('',(0.0922071067811865,0.0583829159751971,0.000707106781186545));
#1167=CARTESIAN_POINT('',(-0.0915,0.0583829159751971,0.00141421356237309));
#1168=CARTESIAN_POINT('',(-0.0915,0.115765831950394,0.00141421356237309));
#1169=CARTESIAN_POINT('',(-0.0915,0.001,0.00141421356237309));
#1170=CARTESIAN_POINT('',(0.0925,0.001,0.00141421356237309));
#1171=CARTESIAN_POINT('',(0.0915,0.001,0.00141421356237309));
#1172=CARTESIAN_POINT('',(0.0925,0.115765831950394,0.0014142135623731));
#1173=CARTESIAN_POINT('',(0.0915,0.115765831950394,0.00141421356237309));
#1174=CARTESIAN_POINT('',(0.0915,0.0583829159751971,0.00141421356237309));
#1175=CARTESIAN_POINT('',(0.,0.000999999999999981,0.0165));
#1176=CARTESIAN_POINT('',(0.0915,0.000999999999999981,0.0165));
#1177=CARTESIAN_POINT('',(0.0915,0.000999999999999981,0.0165));
#1178=CARTESIAN_POINT('',(0.,0.000999999999999981,0.0165));
#1179=CARTESIAN_POINT('',(-0.0915,0.000999999999999987,0.0165));
#1180=CARTESIAN_POINT('',(-0.0915,0.000999999999999987,0.0165));
#1181=CARTESIAN_POINT('',(0.0915,0.0844435779317981,0.0165));
#1182=CARTESIAN_POINT('',(0.0915,0.0844435779317981,0.0165));
#1183=CARTESIAN_POINT('',(-0.0915,0.0844435779317981,0.0165));
#1184=CARTESIAN_POINT('',(-0.0915,0.0844435779317981,0.0165));
#1185=CARTESIAN_POINT('',(0.,0.0845,0.0165));
#1186=CARTESIAN_POINT('',(0.0905,0.0583829159751971,0.0165));
#1187=CARTESIAN_POINT('',(0.0905,0.002,0.0165));
#1188=CARTESIAN_POINT('',(0.0905,0.114765831950394,0.0165));
#1189=CARTESIAN_POINT('',(0.,0.002,0.0165));
#1190=CARTESIAN_POINT('',(-0.0905,0.002,0.0165));
#1191=CARTESIAN_POINT('',(-0.0905,0.0583829159751971,0.0165));
#1192=CARTESIAN_POINT('',(-0.0905,0.114765831950394,0.0165));
#1193=CARTESIAN_POINT('',(0.,0.114765831950394,0.0165));
#1194=CARTESIAN_POINT('',(0.0925,0.0583829159751971,0.002));
#1195=CARTESIAN_POINT('',(0.0925,0.002,0.002));
#1196=CARTESIAN_POINT('',(-0.0905,0.002,0.002));
#1197=CARTESIAN_POINT('',(0.0905,0.002,0.002));
#1198=CARTESIAN_POINT('',(0.0905,0.0583829159751971,0.002));
#1199=CARTESIAN_POINT('',(0.0905,0.114765831950394,0.002));
#1200=CARTESIAN_POINT('',(0.0925,0.114765831950394,0.002));
#1201=CARTESIAN_POINT('',(-0.0905,0.114765831950394,0.002));
#1202=CARTESIAN_POINT('',(-0.0905,0.0583829159751971,0.002));
#1203=CARTESIAN_POINT('',(0.0925,0.114765831950394,0.0075));
#1204=CARTESIAN_POINT('',(0.0905,0.114765831950394,0.0075));
#1205=CARTESIAN_POINT('',(-0.0905,0.114765831950394,0.0075));
#1206=CARTESIAN_POINT('',(-0.0905,0.0583829159751971,0.0534626665871387));
#1207=CARTESIAN_POINT('',(-0.0905,0.002,0.0075));
#1208=CARTESIAN_POINT('',(0.0925,0.002,0.0075));
#1209=CARTESIAN_POINT('',(0.0905,0.002,0.0075));
#1210=CARTESIAN_POINT('',(0.0905,0.0583829159751971,0.0534626665871387));
#1211=CARTESIAN_POINT('',(0.,0.,0.));
#1212=CARTESIAN_POINT('',(0.,0.0583829159751971,0.015));
#1213=CARTESIAN_POINT('',(0.0925,0.0583829159751971,0.015));
#1214=CARTESIAN_POINT('',(0.0925,-2.60208521396521E-17,0.015));
#1215=CARTESIAN_POINT('',(0.0925,0.116765831950394,0.015));
#1216=CARTESIAN_POINT('',(0.0925,-2.60208521396521E-17,0.015));
#1217=CARTESIAN_POINT('',(-0.0925,-2.60208521396521E-17,0.015));
#1218=CARTESIAN_POINT('',(-0.0925,0.0583829159751971,0.015));
#1219=CARTESIAN_POINT('',(-0.0925,0.116765831950394,0.015));
#1220=CARTESIAN_POINT('',(0.0925,0.116765831950394,0.015));
#1221=CARTESIAN_POINT('',(-0.0905,0.0583829159751971,0.015));
#1222=CARTESIAN_POINT('',(-0.0905,0.114008923887633,0.015));
#1223=CARTESIAN_POINT('',(-0.0905,0.11415501737173,0.015));
#1224=CARTESIAN_POINT('',(0.,0.114008923887633,0.015));
#1225=CARTESIAN_POINT('',(-0.0917,0.114008923887633,0.015));
#1226=CARTESIAN_POINT('',(-0.0917,0.0574044619438163,0.015));
#1227=CARTESIAN_POINT('',(-0.0917,0.000799999999999974,0.015));
#1228=CARTESIAN_POINT('',(0.,0.000799999999999974,0.015));
#1229=CARTESIAN_POINT('',(0.0917,0.000799999999999974,0.015));
#1230=CARTESIAN_POINT('',(0.0917,0.0574044619438163,0.015));
#1231=CARTESIAN_POINT('',(0.0917,0.114008923887633,0.015));
#1232=CARTESIAN_POINT('',(0.,0.114008923887633,0.015));
#1233=CARTESIAN_POINT('',(0.0905,0.114008923887633,0.015));
#1234=CARTESIAN_POINT('',(0.0905,0.0583829159751971,0.015));
#1235=CARTESIAN_POINT('',(0.0905,0.11415501737173,0.015));
#1236=CARTESIAN_POINT('',(0.,0.11415501737173,0.015));
#1237=CARTESIAN_POINT('',(0.0905,0.0583829159751971,0.0534626665871387));
#1238=CARTESIAN_POINT('',(0.0905,0.114008923887633,0.0534626665871387));
#1239=CARTESIAN_POINT('',(0.0905,0.114008923887633,0.0151741074345271));
#1240=CARTESIAN_POINT('',(0.0905,0.0766664864829639,0.0596770913677656));
#1241=CARTESIAN_POINT('',(-0.0905,0.0583829159751971,0.0534626665871387));
#1242=CARTESIAN_POINT('',(-0.0905,0.0766664864829639,0.0596770913677656));
#1243=CARTESIAN_POINT('',(-0.0905,0.114008923887633,0.0151741074345271));
#1244=CARTESIAN_POINT('',(-0.0905,0.114008923887633,0.0534626665871387));
#1245=CARTESIAN_POINT('',(0.0925,0.0766664864829639,0.0596770913677656));
#1246=CARTESIAN_POINT('',(0.0925,0.114008923887633,0.0151741074345271));
#1247=CARTESIAN_POINT('',(0.0925,0.0583829159751971,0.0534626665871387));
#1248=CARTESIAN_POINT('',(0.0925,0.0123156593940047,0.0609626665871386));
#1249=CARTESIAN_POINT('',(0.0925,0.0246313187880095,0.106925333174277));
#1250=CARTESIAN_POINT('',(0.0925,0.0781985753692018,0.0609626665871387));
#1251=CARTESIAN_POINT('',(0.0925,0.0396313187880094,0.106925333174277));
#1252=CARTESIAN_POINT('',(0.0925,0.0321313187880094,0.106925333174277));
#1253=CARTESIAN_POINT('',(-0.0925,0.0583829159751971,0.0534626665871387));
#1254=CARTESIAN_POINT('',(-0.0925,0.0123156593940047,0.0609626665871386));
#1255=CARTESIAN_POINT('',(-0.0925,0.0246313187880095,0.106925333174277));
#1256=CARTESIAN_POINT('',(-0.0925,0.0321313187880094,0.106925333174277));
#1257=CARTESIAN_POINT('',(-0.0925,0.0396313187880094,0.106925333174277));
#1258=CARTESIAN_POINT('',(-0.0925,0.0781985753692018,0.0609626665871387));
#1259=CARTESIAN_POINT('',(0.0925,0.0781985753692018,0.0609626665871387));
#1260=CARTESIAN_POINT('',(-0.08175,0.0781985753692018,0.0609626665871387));
#1261=CARTESIAN_POINT('',(-0.08175,0.109759447004811,0.0233498844299968));
#1262=CARTESIAN_POINT('',(-0.08175,0.0466377037335927,0.0985754487442805));
#1263=CARTESIAN_POINT('',(-1.38777878078145E-17,0.109759447004811,0.0233498844299968));
#1264=CARTESIAN_POINT('',(0.08175,0.109759447004811,0.0233498844299968));
#1265=CARTESIAN_POINT('',(0.08175,0.0781985753692018,0.0609626665871387));
#1266=CARTESIAN_POINT('',(0.08175,0.0466377037335927,0.0985754487442805));
#1267=CARTESIAN_POINT('',(1.38777878078145E-17,0.0466377037335927,0.0985754487442805));
#1268=CARTESIAN_POINT('',(0.0925,0.0396313187880094,0.106925333174277));
#1269=CARTESIAN_POINT('',(0.0925,0.0321313187880094,0.106925333174277));
#1270=CARTESIAN_POINT('',(0.0925,0.0246313187880095,0.106925333174277));
#1271=CARTESIAN_POINT('',(0.0925,0.0123156593940047,0.0609626665871386));
#1272=CARTESIAN_POINT('',(0.,0.114008923887633,0.0167));
#1273=CARTESIAN_POINT('',(0.0917,0.114008923887633,0.0167));
#1274=CARTESIAN_POINT('',(0.0917,0.114008923887633,0.0167));
#1275=CARTESIAN_POINT('',(0.,0.114008923887633,0.0167));
#1276=CARTESIAN_POINT('',(-0.0917,0.114008923887633,0.0167));
#1277=CARTESIAN_POINT('',(-0.0917,0.114008923887633,0.0167));
#1278=CARTESIAN_POINT('',(0.0917,0.0574044619438163,0.0167));
#1279=CARTESIAN_POINT('',(0.0917,0.000799999999999974,0.0167));
#1280=CARTESIAN_POINT('',(0.0917,0.000799999999999974,0.0167));
#1281=CARTESIAN_POINT('',(0.0917,0.0574044619438163,0.0167));
#1282=CARTESIAN_POINT('',(0.,0.000799999999999974,0.0167));
#1283=CARTESIAN_POINT('',(-0.0917,0.000799999999999974,0.0167));
#1284=CARTESIAN_POINT('',(-0.0917,0.000799999999999974,0.0167));
#1285=CARTESIAN_POINT('',(0.,0.000799999999999974,0.0167));
#1286=CARTESIAN_POINT('',(-0.0917,0.0574044619438163,0.0167));
#1287=CARTESIAN_POINT('',(-0.0917,0.0574044619438163,0.0167));
#1288=CARTESIAN_POINT('',(0.,0.0583829159751971,0.0167));
#1289=CARTESIAN_POINT('',(-0.0905,0.0583829159751971,0.0167));
#1290=CARTESIAN_POINT('',(-0.0905,0.00252606598795307,0.0167));
#1291=CARTESIAN_POINT('',(-0.0905,0.112728547998728,0.0167));
#1292=CARTESIAN_POINT('',(0.0925,0.00252606598795307,0.0167));
#1293=CARTESIAN_POINT('',(0.0905,0.00252606598795307,0.0167));
#1294=CARTESIAN_POINT('',(0.0905,0.0583829159751971,0.0167));
#1295=CARTESIAN_POINT('',(0.0905,0.112728547998728,0.0167));
#1296=CARTESIAN_POINT('',(0.0925,0.112728547998728,0.0167));
#1297=CARTESIAN_POINT('',(0.0925,0.0321313187880094,0.104925333174277));
#1298=CARTESIAN_POINT('',(-0.0905,0.0321313187880094,0.104925333174277));
#1299=CARTESIAN_POINT('',(-0.0905,0.0386987034716995,0.104925333174277));
#1300=CARTESIAN_POINT('',(-0.0905,0.0261659727639674,0.104925333174277));
#1301=CARTESIAN_POINT('',(0.0925,0.0386987034716995,0.104925333174277));
#1302=CARTESIAN_POINT('',(0.0905,0.0386987034716995,0.104925333174277));
#1303=CARTESIAN_POINT('',(0.0905,0.0321313187880094,0.104925333174277));
#1304=CARTESIAN_POINT('',(0.0905,0.0261659727639674,0.104925333174277));
#1305=CARTESIAN_POINT('',(0.0925,0.0261659727639674,0.104925333174277));
#1306=CARTESIAN_POINT('',(0.0925,0.0766664864829639,0.0596770913677656));
#1307=CARTESIAN_POINT('',(-1.38777878078145E-17,0.108227358118573,0.0220643092106237));
#1308=CARTESIAN_POINT('',(0.08175,0.108227358118573,0.0220643092106237));
#1309=CARTESIAN_POINT('',(-0.08175,0.108227358118573,0.0220643092106237));
#1310=CARTESIAN_POINT('',(-0.08175,0.0766664864829638,0.0596770913677656));
#1311=CARTESIAN_POINT('',(-0.08175,0.0451056148473547,0.0972898735249074));
#1312=CARTESIAN_POINT('',(1.38777878078145E-17,0.0451056148473547,0.0972898735249074));
#1313=CARTESIAN_POINT('',(0.08175,0.0451056148473548,0.0972898735249074));
#1314=CARTESIAN_POINT('',(0.08175,0.0766664864829638,0.0596770913677656));
#1315=CARTESIAN_POINT('',(-0.0905,0.0766664864829639,0.0596770913677656));
#1316=CARTESIAN_POINT('',(0.0905,0.0766664864829639,0.0596770913677656));
#1317=CARTESIAN_POINT('',(0.0925,0.0142475110465829,0.0604450284969336));
#1318=CARTESIAN_POINT('',(0.0905,0.0142475110465829,0.0604450284969336));
#1319=CARTESIAN_POINT('',(-0.0905,0.0142475110465829,0.0604450284969336));
#1320=CARTESIAN_POINT('',(-0.0905,0.0583829159751971,0.0534626665871387));
#1321=CARTESIAN_POINT('',(0.0905,0.0583829159751971,0.0534626665871387));
#1322=CARTESIAN_POINT('',(-1.38777878078145E-17,0.0412369119747531,-0.034147349441057));
#1323=CARTESIAN_POINT('',(0.08175,0.0412369119747531,-0.034147349441057));
#1324=CARTESIAN_POINT('',(-0.08175,0.0412369119747531,-0.034147349441057));
#1325=CARTESIAN_POINT('',(-0.08175,0.00967604033914397,0.00346543271608484));
#1326=CARTESIAN_POINT('',(-0.08175,-0.0218848312964651,0.0410782148732266));
#1327=CARTESIAN_POINT('',(0.08175,0.00967604033914397,0.00346543271608484));
#1328=CARTESIAN_POINT('',(0.08175,-0.0218848312964651,0.0410782148732266));
#1329=CARTESIAN_POINT('',(1.38777878078145E-17,-0.0218848312964651,0.0410782148732266));
#1330=MECHANICAL_DESIGN_GEOMETRIC_PRESENTATION_REPRESENTATION('',(#821),
#1332);
#1331=MECHANICAL_DESIGN_GEOMETRIC_PRESENTATION_REPRESENTATION('',(#822),
#1333);
#1332=(
GEOMETRIC_REPRESENTATION_CONTEXT(3)
GLOBAL_UNCERTAINTY_ASSIGNED_CONTEXT((#1334))
GLOBAL_UNIT_ASSIGNED_CONTEXT((#1340,#1338,#1336))
REPRESENTATION_CONTEXT('Part 1','TOP_LEVEL_ASSEMBLY_PART')
);
#1333=(
GEOMETRIC_REPRESENTATION_CONTEXT(3)
GLOBAL_UNCERTAINTY_ASSIGNED_CONTEXT((#1335))
GLOBAL_UNIT_ASSIGNED_CONTEXT((#1341,#1339,#1337))
REPRESENTATION_CONTEXT('Part 2','TOP_LEVEL_ASSEMBLY_PART')
);
#1334=UNCERTAINTY_MEASURE_WITH_UNIT(LENGTH_MEASURE(1.E-8),#1340,
'DISTANCE_ACCURACY_VALUE','Maximum Tolerance applied to model');
#1335=UNCERTAINTY_MEASURE_WITH_UNIT(LENGTH_MEASURE(1.E-8),#1341,
'DISTANCE_ACCURACY_VALUE','Maximum Tolerance applied to model');
#1336=(
NAMED_UNIT(*)
SI_UNIT($,.STERADIAN.)
SOLID_ANGLE_UNIT()
);
#1337=(
NAMED_UNIT(*)
SI_UNIT($,.STERADIAN.)
SOLID_ANGLE_UNIT()
);
#1338=(
NAMED_UNIT(*)
PLANE_ANGLE_UNIT()
SI_UNIT($,.RADIAN.)
);
#1339=(
NAMED_UNIT(*)
PLANE_ANGLE_UNIT()
SI_UNIT($,.RADIAN.)
);
#1340=(
LENGTH_UNIT()
NAMED_UNIT(*)
SI_UNIT($,.METRE.)
);
#1341=(
LENGTH_UNIT()
NAMED_UNIT(*)
SI_UNIT($,.METRE.)
);
#1342=PRODUCT_DEFINITION_SHAPE('','',#1344);
#1343=PRODUCT_DEFINITION_SHAPE('','',#1345);
#1344=PRODUCT_DEFINITION('','',#1348,#1346);
#1345=PRODUCT_DEFINITION('','',#1349,#1347);
#1346=PRODUCT_DEFINITION_CONTEXT('',#1360,'design');
#1347=PRODUCT_DEFINITION_CONTEXT('',#1361,'design');
#1348=PRODUCT_DEFINITION_FORMATION_WITH_SPECIFIED_SOURCE('','',#1352,
 .NOT_KNOWN.);
#1349=PRODUCT_DEFINITION_FORMATION_WITH_SPECIFIED_SOURCE('','',#1353,
 .NOT_KNOWN.);
#1350=PRODUCT_RELATED_PRODUCT_CATEGORY('','',(#1352));
#1351=PRODUCT_RELATED_PRODUCT_CATEGORY('','',(#1353));
#1352=PRODUCT('Part 1','Part 1','Part 1',(#1356));
#1353=PRODUCT('Part 2','Part 2','Part 2',(#1357));
#1354=PRODUCT_CATEGORY('','');
#1355=PRODUCT_CATEGORY('','');
#1356=PRODUCT_CONTEXT('',#1360,'mechanical');
#1357=PRODUCT_CONTEXT('',#1361,'mechanical');
#1358=APPLICATION_PROTOCOL_DEFINITION('international standard',
'ap242_managed_model_based_3d_engineering',2020,#1360);
#1359=APPLICATION_PROTOCOL_DEFINITION('international standard',
'ap242_managed_model_based_3d_engineering',2020,#1361);
#1360=APPLICATION_CONTEXT('managed model based 3d engineering');
#1361=APPLICATION_CONTEXT('managed model based 3d engineering');
ENDSEC;
END-ISO-10303-21;
