ISO-10303-21;
HEADER;
/* Generated by software containing ST-Developer
 * from STEP Tools, Inc. (www.steptools.com) 
 */
/* OPTION: using custom renumber hook */

FILE_DESCRIPTION(
/* description */ ('STEP AP242 Edition 2',
'CAx-IF Rec.Pracs.---Representation and Presentation of Product Manufa
cturing Information (PMI)---4.0---2014-10-13',
'CAx-IF Rec.Pracs.---3D Tessellated Geometry---0.4---2014-09-14','2;1',
'CAx-IF Rec.Pracs.---User Defined Attributes---1.5---2016-08-15'),
/* implementation_level */ '2;1');

FILE_NAME(
/* name */ 'Part Studio 1 - Top Cover',
/* time_stamp */ '2026-08-04T12:56:55Z',
/* author */ (''),
/* organization */ (''),
/* preprocessor_version */ 'ST-DEVELOPER v20',
/* originating_system */ 'ONSHAPE BY PTC INC, 1.218',
/* authorisation */ '  ');

FILE_SCHEMA (('AP242_MANAGED_MODEL_BASED_3D_ENGINEERING_MIM_LF { 1 0 10303 442 3 1 4 }'));
ENDSEC;

DATA;
#10=SHAPE_REPRESENTATION_RELATIONSHIP('','',#1049,#11);
#11=ADVANCED_BREP_SHAPE_REPRESENTATION('',(#1047),#1647);
#12=ORIENTED_EDGE('',*,*,#296,.F.);
#13=ORIENTED_EDGE('',*,*,#297,.T.);
#14=ORIENTED_EDGE('',*,*,#298,.T.);
#15=ORIENTED_EDGE('',*,*,#299,.F.);
#16=ORIENTED_EDGE('',*,*,#300,.F.);
#17=ORIENTED_EDGE('',*,*,#301,.T.);
#18=ORIENTED_EDGE('',*,*,#302,.T.);
#19=ORIENTED_EDGE('',*,*,#303,.F.);
#20=ORIENTED_EDGE('',*,*,#304,.T.);
#21=ORIENTED_EDGE('',*,*,#305,.T.);
#22=ORIENTED_EDGE('',*,*,#306,.T.);
#23=ORIENTED_EDGE('',*,*,#307,.T.);
#24=ORIENTED_EDGE('',*,*,#308,.T.);
#25=ORIENTED_EDGE('',*,*,#309,.T.);
#26=ORIENTED_EDGE('',*,*,#310,.T.);
#27=ORIENTED_EDGE('',*,*,#311,.T.);
#28=ORIENTED_EDGE('',*,*,#312,.F.);
#29=ORIENTED_EDGE('',*,*,#313,.F.);
#30=ORIENTED_EDGE('',*,*,#314,.F.);
#31=ORIENTED_EDGE('',*,*,#315,.F.);
#32=ORIENTED_EDGE('',*,*,#316,.F.);
#33=ORIENTED_EDGE('',*,*,#317,.F.);
#34=ORIENTED_EDGE('',*,*,#318,.F.);
#35=ORIENTED_EDGE('',*,*,#319,.F.);
#36=ORIENTED_EDGE('',*,*,#320,.T.);
#37=ORIENTED_EDGE('',*,*,#321,.T.);
#38=ORIENTED_EDGE('',*,*,#322,.T.);
#39=ORIENTED_EDGE('',*,*,#323,.F.);
#40=ORIENTED_EDGE('',*,*,#324,.F.);
#41=ORIENTED_EDGE('',*,*,#325,.F.);
#42=ORIENTED_EDGE('',*,*,#326,.F.);
#43=ORIENTED_EDGE('',*,*,#327,.F.);
#44=ORIENTED_EDGE('',*,*,#328,.T.);
#45=ORIENTED_EDGE('',*,*,#329,.F.);
#46=ORIENTED_EDGE('',*,*,#330,.F.);
#47=ORIENTED_EDGE('',*,*,#331,.T.);
#48=ORIENTED_EDGE('',*,*,#332,.T.);
#49=ORIENTED_EDGE('',*,*,#333,.T.);
#50=ORIENTED_EDGE('',*,*,#334,.T.);
#51=ORIENTED_EDGE('',*,*,#335,.T.);
#52=ORIENTED_EDGE('',*,*,#336,.F.);
#53=ORIENTED_EDGE('',*,*,#303,.T.);
#54=ORIENTED_EDGE('',*,*,#337,.T.);
#55=ORIENTED_EDGE('',*,*,#338,.F.);
#56=ORIENTED_EDGE('',*,*,#339,.F.);
#57=ORIENTED_EDGE('',*,*,#299,.T.);
#58=ORIENTED_EDGE('',*,*,#340,.T.);
#59=ORIENTED_EDGE('',*,*,#341,.F.);
#60=ORIENTED_EDGE('',*,*,#342,.T.);
#61=ORIENTED_EDGE('',*,*,#330,.T.);
#62=ORIENTED_EDGE('',*,*,#343,.F.);
#63=ORIENTED_EDGE('',*,*,#344,.F.);
#64=ORIENTED_EDGE('',*,*,#300,.T.);
#65=ORIENTED_EDGE('',*,*,#339,.T.);
#66=ORIENTED_EDGE('',*,*,#345,.T.);
#67=ORIENTED_EDGE('',*,*,#346,.T.);
#68=ORIENTED_EDGE('',*,*,#337,.F.);
#69=ORIENTED_EDGE('',*,*,#302,.F.);
#70=ORIENTED_EDGE('',*,*,#347,.F.);
#71=ORIENTED_EDGE('',*,*,#348,.F.);
#72=ORIENTED_EDGE('',*,*,#349,.F.);
#73=ORIENTED_EDGE('',*,*,#350,.F.);
#74=ORIENTED_EDGE('',*,*,#351,.T.);
#75=ORIENTED_EDGE('',*,*,#352,.T.);
#76=ORIENTED_EDGE('',*,*,#348,.T.);
#77=ORIENTED_EDGE('',*,*,#353,.F.);
#78=ORIENTED_EDGE('',*,*,#345,.F.);
#79=ORIENTED_EDGE('',*,*,#338,.T.);
#80=ORIENTED_EDGE('',*,*,#347,.T.);
#81=ORIENTED_EDGE('',*,*,#301,.F.);
#82=ORIENTED_EDGE('',*,*,#346,.F.);
#83=ORIENTED_EDGE('',*,*,#353,.T.);
#84=ORIENTED_EDGE('',*,*,#354,.F.);
#85=ORIENTED_EDGE('',*,*,#355,.F.);
#86=ORIENTED_EDGE('',*,*,#331,.F.);
#87=ORIENTED_EDGE('',*,*,#342,.F.);
#88=ORIENTED_EDGE('',*,*,#343,.T.);
#89=ORIENTED_EDGE('',*,*,#329,.T.);
#90=ORIENTED_EDGE('',*,*,#356,.T.);
#91=ORIENTED_EDGE('',*,*,#357,.T.);
#92=ORIENTED_EDGE('',*,*,#356,.F.);
#93=ORIENTED_EDGE('',*,*,#328,.F.);
#94=ORIENTED_EDGE('',*,*,#358,.F.);
#95=ORIENTED_EDGE('',*,*,#322,.F.);
#96=ORIENTED_EDGE('',*,*,#359,.F.);
#97=ORIENTED_EDGE('',*,*,#332,.F.);
#98=ORIENTED_EDGE('',*,*,#355,.T.);
#99=ORIENTED_EDGE('',*,*,#360,.T.);
#100=ORIENTED_EDGE('',*,*,#361,.F.);
#101=ORIENTED_EDGE('',*,*,#344,.T.);
#102=ORIENTED_EDGE('',*,*,#357,.F.);
#103=ORIENTED_EDGE('',*,*,#360,.F.);
#104=ORIENTED_EDGE('',*,*,#354,.T.);
#105=ORIENTED_EDGE('',*,*,#341,.T.);
#106=ORIENTED_EDGE('',*,*,#362,.T.);
#107=ORIENTED_EDGE('',*,*,#363,.T.);
#108=ORIENTED_EDGE('',*,*,#364,.T.);
#109=ORIENTED_EDGE('',*,*,#350,.T.);
#110=ORIENTED_EDGE('',*,*,#365,.F.);
#111=ORIENTED_EDGE('',*,*,#310,.F.);
#112=ORIENTED_EDGE('',*,*,#365,.T.);
#113=ORIENTED_EDGE('',*,*,#349,.T.);
#114=ORIENTED_EDGE('',*,*,#366,.F.);
#115=ORIENTED_EDGE('',*,*,#311,.F.);
#116=ORIENTED_EDGE('',*,*,#313,.T.);
#117=ORIENTED_EDGE('',*,*,#367,.T.);
#118=ORIENTED_EDGE('',*,*,#351,.F.);
#119=ORIENTED_EDGE('',*,*,#364,.F.);
#120=ORIENTED_EDGE('',*,*,#312,.T.);
#121=ORIENTED_EDGE('',*,*,#366,.T.);
#122=ORIENTED_EDGE('',*,*,#352,.F.);
#123=ORIENTED_EDGE('',*,*,#367,.F.);
#124=ORIENTED_EDGE('',*,*,#368,.F.);
#125=ORIENTED_EDGE('',*,*,#369,.T.);
#126=ORIENTED_EDGE('',*,*,#370,.T.);
#127=ORIENTED_EDGE('',*,*,#324,.T.);
#128=ORIENTED_EDGE('',*,*,#371,.F.);
#129=ORIENTED_EDGE('',*,*,#372,.T.);
#130=ORIENTED_EDGE('',*,*,#368,.T.);
#131=ORIENTED_EDGE('',*,*,#323,.T.);
#132=ORIENTED_EDGE('',*,*,#373,.F.);
#133=ORIENTED_EDGE('',*,*,#358,.T.);
#134=ORIENTED_EDGE('',*,*,#374,.F.);
#135=ORIENTED_EDGE('',*,*,#375,.F.);
#136=ORIENTED_EDGE('',*,*,#373,.T.);
#137=ORIENTED_EDGE('',*,*,#327,.T.);
#138=ORIENTED_EDGE('',*,*,#376,.F.);
#139=ORIENTED_EDGE('',*,*,#377,.F.);
#140=ORIENTED_EDGE('',*,*,#374,.T.);
#141=ORIENTED_EDGE('',*,*,#378,.F.);
#142=ORIENTED_EDGE('',*,*,#379,.T.);
#143=ORIENTED_EDGE('',*,*,#380,.F.);
#144=ORIENTED_EDGE('',*,*,#376,.T.);
#145=ORIENTED_EDGE('',*,*,#326,.T.);
#146=ORIENTED_EDGE('',*,*,#370,.F.);
#147=ORIENTED_EDGE('',*,*,#381,.T.);
#148=ORIENTED_EDGE('',*,*,#378,.T.);
#149=ORIENTED_EDGE('',*,*,#325,.T.);
#150=ORIENTED_EDGE('',*,*,#382,.T.);
#151=ORIENTED_EDGE('',*,*,#383,.T.);
#152=ORIENTED_EDGE('',*,*,#371,.T.);
#153=ORIENTED_EDGE('',*,*,#375,.T.);
#154=ORIENTED_EDGE('',*,*,#377,.T.);
#155=ORIENTED_EDGE('',*,*,#380,.T.);
#156=ORIENTED_EDGE('',*,*,#384,.F.);
#157=ORIENTED_EDGE('',*,*,#385,.T.);
#158=ORIENTED_EDGE('',*,*,#386,.T.);
#159=ORIENTED_EDGE('',*,*,#387,.T.);
#160=ORIENTED_EDGE('',*,*,#321,.F.);
#161=ORIENTED_EDGE('',*,*,#388,.F.);
#162=ORIENTED_EDGE('',*,*,#389,.T.);
#163=ORIENTED_EDGE('',*,*,#384,.T.);
#164=ORIENTED_EDGE('',*,*,#320,.F.);
#165=ORIENTED_EDGE('',*,*,#390,.F.);
#166=ORIENTED_EDGE('',*,*,#391,.T.);
#167=ORIENTED_EDGE('',*,*,#388,.T.);
#168=ORIENTED_EDGE('',*,*,#335,.F.);
#169=ORIENTED_EDGE('',*,*,#392,.T.);
#170=ORIENTED_EDGE('',*,*,#393,.T.);
#171=ORIENTED_EDGE('',*,*,#390,.T.);
#172=ORIENTED_EDGE('',*,*,#334,.F.);
#173=ORIENTED_EDGE('',*,*,#394,.F.);
#174=ORIENTED_EDGE('',*,*,#333,.F.);
#175=ORIENTED_EDGE('',*,*,#395,.F.);
#176=ORIENTED_EDGE('',*,*,#396,.T.);
#177=ORIENTED_EDGE('',*,*,#394,.T.);
#178=ORIENTED_EDGE('',*,*,#359,.T.);
#179=ORIENTED_EDGE('',*,*,#387,.F.);
#180=ORIENTED_EDGE('',*,*,#397,.F.);
#181=ORIENTED_EDGE('',*,*,#395,.T.);
#182=ORIENTED_EDGE('',*,*,#386,.F.);
#183=ORIENTED_EDGE('',*,*,#398,.T.);
#184=ORIENTED_EDGE('',*,*,#399,.T.);
#185=ORIENTED_EDGE('',*,*,#392,.F.);
#186=ORIENTED_EDGE('',*,*,#396,.F.);
#187=ORIENTED_EDGE('',*,*,#397,.T.);
#188=ORIENTED_EDGE('',*,*,#400,.F.);
#189=ORIENTED_EDGE('',*,*,#401,.T.);
#190=ORIENTED_EDGE('',*,*,#402,.T.);
#191=ORIENTED_EDGE('',*,*,#304,.F.);
#192=ORIENTED_EDGE('',*,*,#403,.F.);
#193=ORIENTED_EDGE('',*,*,#404,.T.);
#194=ORIENTED_EDGE('',*,*,#400,.T.);
#195=ORIENTED_EDGE('',*,*,#309,.F.);
#196=ORIENTED_EDGE('',*,*,#405,.T.);
#197=ORIENTED_EDGE('',*,*,#406,.T.);
#198=ORIENTED_EDGE('',*,*,#403,.T.);
#199=ORIENTED_EDGE('',*,*,#308,.F.);
#200=ORIENTED_EDGE('',*,*,#407,.F.);
#201=ORIENTED_EDGE('',*,*,#307,.F.);
#202=ORIENTED_EDGE('',*,*,#408,.F.);
#203=ORIENTED_EDGE('',*,*,#409,.T.);
#204=ORIENTED_EDGE('',*,*,#407,.T.);
#205=ORIENTED_EDGE('',*,*,#306,.F.);
#206=ORIENTED_EDGE('',*,*,#410,.F.);
#207=ORIENTED_EDGE('',*,*,#411,.T.);
#208=ORIENTED_EDGE('',*,*,#408,.T.);
#209=ORIENTED_EDGE('',*,*,#402,.F.);
#210=ORIENTED_EDGE('',*,*,#412,.T.);
#211=ORIENTED_EDGE('',*,*,#413,.T.);
#212=ORIENTED_EDGE('',*,*,#410,.T.);
#213=ORIENTED_EDGE('',*,*,#305,.F.);
#214=ORIENTED_EDGE('',*,*,#413,.F.);
#215=ORIENTED_EDGE('',*,*,#414,.T.);
#216=ORIENTED_EDGE('',*,*,#415,.T.);
#217=ORIENTED_EDGE('',*,*,#405,.F.);
#218=ORIENTED_EDGE('',*,*,#409,.F.);
#219=ORIENTED_EDGE('',*,*,#411,.F.);
#220=ORIENTED_EDGE('',*,*,#416,.F.);
#221=ORIENTED_EDGE('',*,*,#417,.T.);
#222=ORIENTED_EDGE('',*,*,#418,.T.);
#223=ORIENTED_EDGE('',*,*,#315,.T.);
#224=ORIENTED_EDGE('',*,*,#419,.F.);
#225=ORIENTED_EDGE('',*,*,#420,.T.);
#226=ORIENTED_EDGE('',*,*,#416,.T.);
#227=ORIENTED_EDGE('',*,*,#314,.T.);
#228=ORIENTED_EDGE('',*,*,#421,.F.);
#229=ORIENTED_EDGE('',*,*,#422,.T.);
#230=ORIENTED_EDGE('',*,*,#419,.T.);
#231=ORIENTED_EDGE('',*,*,#319,.T.);
#232=ORIENTED_EDGE('',*,*,#423,.F.);
#233=ORIENTED_EDGE('',*,*,#318,.T.);
#234=ORIENTED_EDGE('',*,*,#424,.F.);
#235=ORIENTED_EDGE('',*,*,#425,.F.);
#236=ORIENTED_EDGE('',*,*,#423,.T.);
#237=ORIENTED_EDGE('',*,*,#317,.T.);
#238=ORIENTED_EDGE('',*,*,#426,.F.);
#239=ORIENTED_EDGE('',*,*,#427,.F.);
#240=ORIENTED_EDGE('',*,*,#424,.T.);
#241=ORIENTED_EDGE('',*,*,#418,.F.);
#242=ORIENTED_EDGE('',*,*,#428,.T.);
#243=ORIENTED_EDGE('',*,*,#429,.F.);
#244=ORIENTED_EDGE('',*,*,#426,.T.);
#245=ORIENTED_EDGE('',*,*,#316,.T.);
#246=ORIENTED_EDGE('',*,*,#430,.T.);
#247=ORIENTED_EDGE('',*,*,#431,.T.);
#248=ORIENTED_EDGE('',*,*,#421,.T.);
#249=ORIENTED_EDGE('',*,*,#425,.T.);
#250=ORIENTED_EDGE('',*,*,#427,.T.);
#251=ORIENTED_EDGE('',*,*,#429,.T.);
#252=ORIENTED_EDGE('',*,*,#428,.F.);
#253=ORIENTED_EDGE('',*,*,#417,.F.);
#254=ORIENTED_EDGE('',*,*,#432,.F.);
#255=ORIENTED_EDGE('',*,*,#430,.F.);
#256=ORIENTED_EDGE('',*,*,#432,.T.);
#257=ORIENTED_EDGE('',*,*,#420,.F.);
#258=ORIENTED_EDGE('',*,*,#422,.F.);
#259=ORIENTED_EDGE('',*,*,#431,.F.);
#260=ORIENTED_EDGE('',*,*,#406,.F.);
#261=ORIENTED_EDGE('',*,*,#415,.F.);
#262=ORIENTED_EDGE('',*,*,#433,.F.);
#263=ORIENTED_EDGE('',*,*,#404,.F.);
#264=ORIENTED_EDGE('',*,*,#433,.T.);
#265=ORIENTED_EDGE('',*,*,#414,.F.);
#266=ORIENTED_EDGE('',*,*,#412,.F.);
#267=ORIENTED_EDGE('',*,*,#401,.F.);
#268=ORIENTED_EDGE('',*,*,#393,.F.);
#269=ORIENTED_EDGE('',*,*,#399,.F.);
#270=ORIENTED_EDGE('',*,*,#434,.F.);
#271=ORIENTED_EDGE('',*,*,#391,.F.);
#272=ORIENTED_EDGE('',*,*,#434,.T.);
#273=ORIENTED_EDGE('',*,*,#398,.F.);
#274=ORIENTED_EDGE('',*,*,#385,.F.);
#275=ORIENTED_EDGE('',*,*,#389,.F.);
#276=ORIENTED_EDGE('',*,*,#379,.F.);
#277=ORIENTED_EDGE('',*,*,#381,.F.);
#278=ORIENTED_EDGE('',*,*,#435,.F.);
#279=ORIENTED_EDGE('',*,*,#382,.F.);
#280=ORIENTED_EDGE('',*,*,#435,.T.);
#281=ORIENTED_EDGE('',*,*,#369,.F.);
#282=ORIENTED_EDGE('',*,*,#372,.F.);
#283=ORIENTED_EDGE('',*,*,#383,.F.);
#284=ORIENTED_EDGE('',*,*,#436,.T.);
#285=ORIENTED_EDGE('',*,*,#297,.F.);
#286=ORIENTED_EDGE('',*,*,#437,.F.);
#287=ORIENTED_EDGE('',*,*,#363,.F.);
#288=ORIENTED_EDGE('',*,*,#336,.T.);
#289=ORIENTED_EDGE('',*,*,#361,.T.);
#290=ORIENTED_EDGE('',*,*,#437,.T.);
#291=ORIENTED_EDGE('',*,*,#296,.T.);
#292=ORIENTED_EDGE('',*,*,#298,.F.);
#293=ORIENTED_EDGE('',*,*,#436,.F.);
#294=ORIENTED_EDGE('',*,*,#362,.F.);
#295=ORIENTED_EDGE('',*,*,#340,.F.);
#296=EDGE_CURVE('',#438,#439,#530,.T.);
#297=EDGE_CURVE('',#438,#440,#531,.T.);
#298=EDGE_CURVE('',#440,#441,#532,.T.);
#299=EDGE_CURVE('',#442,#441,#533,.T.);
#300=EDGE_CURVE('',#443,#442,#534,.T.);
#301=EDGE_CURVE('',#443,#444,#535,.T.);
#302=EDGE_CURVE('',#444,#445,#536,.T.);
#303=EDGE_CURVE('',#439,#445,#537,.T.);
#304=EDGE_CURVE('',#446,#447,#538,.T.);
#305=EDGE_CURVE('',#447,#448,#539,.T.);
#306=EDGE_CURVE('',#448,#449,#540,.T.);
#307=EDGE_CURVE('',#449,#450,#541,.T.);
#308=EDGE_CURVE('',#450,#451,#542,.T.);
#309=EDGE_CURVE('',#451,#446,#543,.T.);
#310=EDGE_CURVE('',#452,#453,#544,.T.);
#311=EDGE_CURVE('',#453,#454,#545,.T.);
#312=EDGE_CURVE('',#455,#454,#546,.T.);
#313=EDGE_CURVE('',#452,#455,#547,.T.);
#314=EDGE_CURVE('',#456,#457,#548,.T.);
#315=EDGE_CURVE('',#458,#456,#549,.T.);
#316=EDGE_CURVE('',#459,#458,#550,.T.);
#317=EDGE_CURVE('',#460,#459,#551,.T.);
#318=EDGE_CURVE('',#461,#460,#552,.T.);
#319=EDGE_CURVE('',#457,#461,#553,.T.);
#320=EDGE_CURVE('',#462,#463,#554,.T.);
#321=EDGE_CURVE('',#463,#464,#555,.T.);
#322=EDGE_CURVE('',#464,#465,#556,.T.);
#323=EDGE_CURVE('',#466,#465,#557,.T.);
#324=EDGE_CURVE('',#467,#466,#558,.T.);
#325=EDGE_CURVE('',#468,#467,#559,.T.);
#326=EDGE_CURVE('',#469,#468,#560,.T.);
#327=EDGE_CURVE('',#470,#469,#561,.T.);
#328=EDGE_CURVE('',#470,#471,#562,.T.);
#329=EDGE_CURVE('',#472,#471,#563,.T.);
#330=EDGE_CURVE('',#473,#472,#564,.T.);
#331=EDGE_CURVE('',#473,#474,#565,.T.);
#332=EDGE_CURVE('',#474,#475,#566,.T.);
#333=EDGE_CURVE('',#475,#476,#567,.T.);
#334=EDGE_CURVE('',#476,#477,#568,.T.);
#335=EDGE_CURVE('',#477,#462,#569,.T.);
#336=EDGE_CURVE('',#439,#478,#570,.T.);
#337=EDGE_CURVE('',#445,#479,#571,.T.);
#338=EDGE_CURVE('',#480,#479,#572,.T.);
#339=EDGE_CURVE('',#442,#480,#573,.T.);
#340=EDGE_CURVE('',#441,#481,#574,.T.);
#341=EDGE_CURVE('',#482,#481,#575,.T.);
#342=EDGE_CURVE('',#482,#473,#576,.T.);
#343=EDGE_CURVE('',#483,#472,#577,.T.);
#344=EDGE_CURVE('',#478,#483,#578,.T.);
#345=EDGE_CURVE('',#480,#484,#579,.T.);
#346=EDGE_CURVE('',#484,#443,#580,.T.);
#347=EDGE_CURVE('',#485,#444,#581,.T.);
#348=EDGE_CURVE('',#479,#485,#582,.T.);
#349=EDGE_CURVE('',#486,#487,#583,.T.);
#350=EDGE_CURVE('',#488,#486,#584,.T.);
#351=EDGE_CURVE('',#488,#489,#585,.T.);
#352=EDGE_CURVE('',#489,#487,#586,.T.);
#353=EDGE_CURVE('',#484,#485,#587,.T.);
#354=EDGE_CURVE('',#490,#482,#588,.T.);
#355=EDGE_CURVE('',#474,#490,#589,.T.);
#356=EDGE_CURVE('',#471,#491,#590,.T.);
#357=EDGE_CURVE('',#491,#483,#591,.T.);
#358=EDGE_CURVE('',#465,#470,#592,.T.);
#359=EDGE_CURVE('',#475,#464,#593,.T.);
#360=EDGE_CURVE('',#490,#491,#594,.T.);
#361=EDGE_CURVE('',#478,#492,#595,.T.);
#362=EDGE_CURVE('',#481,#493,#596,.T.);
#363=EDGE_CURVE('',#493,#492,#597,.T.);
#364=EDGE_CURVE('',#452,#488,#598,.T.);
#365=EDGE_CURVE('',#453,#486,#599,.T.);
#366=EDGE_CURVE('',#454,#487,#600,.T.);
#367=EDGE_CURVE('',#455,#489,#601,.T.);
#368=EDGE_CURVE('',#494,#466,#602,.T.);
#369=EDGE_CURVE('',#494,#495,#603,.T.);
#370=EDGE_CURVE('',#495,#467,#604,.T.);
#371=EDGE_CURVE('',#496,#497,#605,.T.);
#372=EDGE_CURVE('',#496,#494,#606,.T.);
#373=EDGE_CURVE('',#497,#465,#607,.T.);
#374=EDGE_CURVE('',#498,#470,#608,.T.);
#375=EDGE_CURVE('',#497,#498,#609,.T.);
#376=EDGE_CURVE('',#499,#469,#610,.T.);
#377=EDGE_CURVE('',#498,#499,#611,.T.);
#378=EDGE_CURVE('',#500,#468,#612,.T.);
#379=EDGE_CURVE('',#500,#501,#613,.T.);
#380=EDGE_CURVE('',#499,#501,#614,.T.);
#381=EDGE_CURVE('',#495,#500,#615,.T.);
#382=EDGE_CURVE('',#501,#502,#616,.T.);
#383=EDGE_CURVE('',#502,#496,#617,.T.);
#384=EDGE_CURVE('',#503,#463,#618,.T.);
#385=EDGE_CURVE('',#503,#504,#619,.F.);
#386=EDGE_CURVE('',#504,#505,#620,.T.);
#387=EDGE_CURVE('',#505,#464,#621,.T.);
#388=EDGE_CURVE('',#506,#462,#622,.T.);
#389=EDGE_CURVE('',#506,#503,#623,.T.);
#390=EDGE_CURVE('',#507,#477,#624,.T.);
#391=EDGE_CURVE('',#507,#506,#625,.T.);
#392=EDGE_CURVE('',#508,#509,#626,.T.);
#393=EDGE_CURVE('',#509,#507,#627,.F.);
#394=EDGE_CURVE('',#508,#476,#628,.T.);
#395=EDGE_CURVE('',#510,#475,#629,.T.);
#396=EDGE_CURVE('',#510,#508,#630,.T.);
#397=EDGE_CURVE('',#510,#505,#631,.T.);
#398=EDGE_CURVE('',#504,#511,#632,.T.);
#399=EDGE_CURVE('',#511,#509,#633,.T.);
#400=EDGE_CURVE('',#512,#446,#634,.T.);
#401=EDGE_CURVE('',#512,#513,#635,.T.);
#402=EDGE_CURVE('',#513,#447,#636,.T.);
#403=EDGE_CURVE('',#514,#451,#637,.T.);
#404=EDGE_CURVE('',#514,#512,#638,.T.);
#405=EDGE_CURVE('',#515,#516,#639,.T.);
#406=EDGE_CURVE('',#516,#514,#640,.F.);
#407=EDGE_CURVE('',#515,#450,#641,.T.);
#408=EDGE_CURVE('',#517,#449,#642,.T.);
#409=EDGE_CURVE('',#517,#515,#643,.T.);
#410=EDGE_CURVE('',#518,#448,#644,.T.);
#411=EDGE_CURVE('',#518,#517,#645,.T.);
#412=EDGE_CURVE('',#513,#519,#646,.F.);
#413=EDGE_CURVE('',#519,#518,#647,.T.);
#414=EDGE_CURVE('',#519,#520,#648,.T.);
#415=EDGE_CURVE('',#520,#516,#649,.T.);
#416=EDGE_CURVE('',#521,#456,#650,.T.);
#417=EDGE_CURVE('',#521,#522,#651,.T.);
#418=EDGE_CURVE('',#522,#458,#652,.T.);
#419=EDGE_CURVE('',#523,#457,#653,.T.);
#420=EDGE_CURVE('',#523,#521,#654,.T.);
#421=EDGE_CURVE('',#524,#525,#655,.T.);
#422=EDGE_CURVE('',#524,#523,#656,.T.);
#423=EDGE_CURVE('',#525,#461,#657,.T.);
#424=EDGE_CURVE('',#526,#460,#658,.T.);
#425=EDGE_CURVE('',#525,#526,#659,.T.);
#426=EDGE_CURVE('',#527,#459,#660,.T.);
#427=EDGE_CURVE('',#526,#527,#661,.T.);
#428=EDGE_CURVE('',#522,#528,#662,.T.);
#429=EDGE_CURVE('',#527,#528,#663,.T.);
#430=EDGE_CURVE('',#528,#529,#664,.T.);
#431=EDGE_CURVE('',#529,#524,#665,.T.);
#432=EDGE_CURVE('',#529,#521,#666,.F.);
#433=EDGE_CURVE('',#512,#520,#667,.F.);
#434=EDGE_CURVE('',#506,#511,#668,.F.);
#435=EDGE_CURVE('',#502,#495,#669,.F.);
#436=EDGE_CURVE('',#493,#440,#670,.T.);
#437=EDGE_CURVE('',#492,#438,#671,.T.);
#438=VERTEX_POINT('',#1360);
#439=VERTEX_POINT('',#1361);
#440=VERTEX_POINT('',#1363);
#441=VERTEX_POINT('',#1365);
#442=VERTEX_POINT('',#1367);
#443=VERTEX_POINT('',#1369);
#444=VERTEX_POINT('',#1371);
#445=VERTEX_POINT('',#1373);
#446=VERTEX_POINT('',#1377);
#447=VERTEX_POINT('',#1378);
#448=VERTEX_POINT('',#1380);
#449=VERTEX_POINT('',#1382);
#450=VERTEX_POINT('',#1384);
#451=VERTEX_POINT('',#1386);
#452=VERTEX_POINT('',#1389);
#453=VERTEX_POINT('',#1390);
#454=VERTEX_POINT('',#1392);
#455=VERTEX_POINT('',#1394);
#456=VERTEX_POINT('',#1397);
#457=VERTEX_POINT('',#1398);
#458=VERTEX_POINT('',#1400);
#459=VERTEX_POINT('',#1402);
#460=VERTEX_POINT('',#1404);
#461=VERTEX_POINT('',#1406);
#462=VERTEX_POINT('',#1409);
#463=VERTEX_POINT('',#1410);
#464=VERTEX_POINT('',#1412);
#465=VERTEX_POINT('',#1414);
#466=VERTEX_POINT('',#1416);
#467=VERTEX_POINT('',#1418);
#468=VERTEX_POINT('',#1420);
#469=VERTEX_POINT('',#1422);
#470=VERTEX_POINT('',#1424);
#471=VERTEX_POINT('',#1426);
#472=VERTEX_POINT('',#1428);
#473=VERTEX_POINT('',#1430);
#474=VERTEX_POINT('',#1432);
#475=VERTEX_POINT('',#1434);
#476=VERTEX_POINT('',#1436);
#477=VERTEX_POINT('',#1438);
#478=VERTEX_POINT('',#1442);
#479=VERTEX_POINT('',#1444);
#480=VERTEX_POINT('',#1446);
#481=VERTEX_POINT('',#1449);
#482=VERTEX_POINT('',#1451);
#483=VERTEX_POINT('',#1454);
#484=VERTEX_POINT('',#1458);
#485=VERTEX_POINT('',#1462);
#486=VERTEX_POINT('',#1466);
#487=VERTEX_POINT('',#1467);
#488=VERTEX_POINT('',#1469);
#489=VERTEX_POINT('',#1471);
#490=VERTEX_POINT('',#1477);
#491=VERTEX_POINT('',#1481);
#492=VERTEX_POINT('',#1489);
#493=VERTEX_POINT('',#1491);
#494=VERTEX_POINT('',#1503);
#495=VERTEX_POINT('',#1505);
#496=VERTEX_POINT('',#1509);
#497=VERTEX_POINT('',#1510);
#498=VERTEX_POINT('',#1515);
#499=VERTEX_POINT('',#1519);
#500=VERTEX_POINT('',#1523);
#501=VERTEX_POINT('',#1525);
#502=VERTEX_POINT('',#1531);
#503=VERTEX_POINT('',#1535);
#504=VERTEX_POINT('',#1537);
#505=VERTEX_POINT('',#1539);
#506=VERTEX_POINT('',#1543);
#507=VERTEX_POINT('',#1547);
#508=VERTEX_POINT('',#1551);
#509=VERTEX_POINT('',#1552);
#510=VERTEX_POINT('',#1557);
#511=VERTEX_POINT('',#1563);
#512=VERTEX_POINT('',#1567);
#513=VERTEX_POINT('',#1569);
#514=VERTEX_POINT('',#1573);
#515=VERTEX_POINT('',#1577);
#516=VERTEX_POINT('',#1578);
#517=VERTEX_POINT('',#1583);
#518=VERTEX_POINT('',#1587);
#519=VERTEX_POINT('',#1591);
#520=VERTEX_POINT('',#1595);
#521=VERTEX_POINT('',#1599);
#522=VERTEX_POINT('',#1601);
#523=VERTEX_POINT('',#1605);
#524=VERTEX_POINT('',#1609);
#525=VERTEX_POINT('',#1610);
#526=VERTEX_POINT('',#1615);
#527=VERTEX_POINT('',#1619);
#528=VERTEX_POINT('',#1623);
#529=VERTEX_POINT('',#1627);
#530=LINE('',#1359,#672);
#531=LINE('',#1362,#673);
#532=LINE('',#1364,#674);
#533=LINE('',#1366,#675);
#534=LINE('',#1368,#676);
#535=LINE('',#1370,#677);
#536=LINE('',#1372,#678);
#537=LINE('',#1374,#679);
#538=LINE('',#1376,#680);
#539=LINE('',#1379,#681);
#540=LINE('',#1381,#682);
#541=LINE('',#1383,#683);
#542=LINE('',#1385,#684);
#543=LINE('',#1387,#685);
#544=LINE('',#1388,#686);
#545=LINE('',#1391,#687);
#546=LINE('',#1393,#688);
#547=LINE('',#1395,#689);
#548=LINE('',#1396,#690);
#549=LINE('',#1399,#691);
#550=LINE('',#1401,#692);
#551=LINE('',#1403,#693);
#552=LINE('',#1405,#694);
#553=LINE('',#1407,#695);
#554=LINE('',#1408,#696);
#555=LINE('',#1411,#697);
#556=LINE('',#1413,#698);
#557=LINE('',#1415,#699);
#558=LINE('',#1417,#700);
#559=LINE('',#1419,#701);
#560=LINE('',#1421,#702);
#561=LINE('',#1423,#703);
#562=LINE('',#1425,#704);
#563=LINE('',#1427,#705);
#564=LINE('',#1429,#706);
#565=LINE('',#1431,#707);
#566=LINE('',#1433,#708);
#567=LINE('',#1435,#709);
#568=LINE('',#1437,#710);
#569=LINE('',#1439,#711);
#570=LINE('',#1441,#712);
#571=LINE('',#1443,#713);
#572=LINE('',#1445,#714);
#573=LINE('',#1447,#715);
#574=LINE('',#1448,#716);
#575=LINE('',#1450,#717);
#576=LINE('',#1452,#718);
#577=LINE('',#1453,#719);
#578=LINE('',#1455,#720);
#579=LINE('',#1457,#721);
#580=LINE('',#1459,#722);
#581=LINE('',#1461,#723);
#582=LINE('',#1463,#724);
#583=LINE('',#1465,#725);
#584=LINE('',#1468,#726);
#585=LINE('',#1470,#727);
#586=LINE('',#1472,#728);
#587=LINE('',#1473,#729);
#588=LINE('',#1476,#730);
#589=LINE('',#1478,#731);
#590=LINE('',#1480,#732);
#591=LINE('',#1482,#733);
#592=LINE('',#1484,#734);
#593=LINE('',#1485,#735);
#594=LINE('',#1486,#736);
#595=LINE('',#1488,#737);
#596=LINE('',#1490,#738);
#597=LINE('',#1492,#739);
#598=LINE('',#1494,#740);
#599=LINE('',#1495,#741);
#600=LINE('',#1497,#742);
#601=LINE('',#1499,#743);
#602=LINE('',#1502,#744);
#603=LINE('',#1504,#745);
#604=LINE('',#1506,#746);
#605=LINE('',#1508,#747);
#606=LINE('',#1511,#748);
#607=LINE('',#1512,#749);
#608=LINE('',#1514,#750);
#609=LINE('',#1516,#751);
#610=LINE('',#1518,#752);
#611=LINE('',#1520,#753);
#612=LINE('',#1522,#754);
#613=LINE('',#1524,#755);
#614=LINE('',#1526,#756);
#615=LINE('',#1528,#757);
#616=LINE('',#1530,#758);
#617=LINE('',#1532,#759);
#618=LINE('',#1534,#760);
#619=LINE('',#1536,#761);
#620=LINE('',#1538,#762);
#621=LINE('',#1540,#763);
#622=LINE('',#1542,#764);
#623=LINE('',#1544,#765);
#624=LINE('',#1546,#766);
#625=LINE('',#1548,#767);
#626=LINE('',#1550,#768);
#627=LINE('',#1553,#769);
#628=LINE('',#1554,#770);
#629=LINE('',#1556,#771);
#630=LINE('',#1558,#772);
#631=LINE('',#1560,#773);
#632=LINE('',#1562,#774);
#633=LINE('',#1564,#775);
#634=LINE('',#1566,#776);
#635=LINE('',#1568,#777);
#636=LINE('',#1570,#778);
#637=LINE('',#1572,#779);
#638=LINE('',#1574,#780);
#639=LINE('',#1576,#781);
#640=LINE('',#1579,#782);
#641=LINE('',#1580,#783);
#642=LINE('',#1582,#784);
#643=LINE('',#1584,#785);
#644=LINE('',#1586,#786);
#645=LINE('',#1588,#787);
#646=LINE('',#1590,#788);
#647=LINE('',#1592,#789);
#648=LINE('',#1594,#790);
#649=LINE('',#1596,#791);
#650=LINE('',#1598,#792);
#651=LINE('',#1600,#793);
#652=LINE('',#1602,#794);
#653=LINE('',#1604,#795);
#654=LINE('',#1606,#796);
#655=LINE('',#1608,#797);
#656=LINE('',#1611,#798);
#657=LINE('',#1612,#799);
#658=LINE('',#1614,#800);
#659=LINE('',#1616,#801);
#660=LINE('',#1618,#802);
#661=LINE('',#1620,#803);
#662=LINE('',#1622,#804);
#663=LINE('',#1624,#805);
#664=LINE('',#1626,#806);
#665=LINE('',#1628,#807);
#666=LINE('',#1630,#808);
#667=LINE('',#1633,#809);
#668=LINE('',#1636,#810);
#669=LINE('',#1639,#811);
#670=LINE('',#1642,#812);
#671=LINE('',#1643,#813);
#672=VECTOR('',#1109,1.);
#673=VECTOR('',#1110,1.);
#674=VECTOR('',#1111,1.);
#675=VECTOR('',#1112,1.);
#676=VECTOR('',#1113,1.);
#677=VECTOR('',#1114,1.);
#678=VECTOR('',#1115,1.);
#679=VECTOR('',#1116,1.);
#680=VECTOR('',#1119,1.);
#681=VECTOR('',#1120,1.);
#682=VECTOR('',#1121,1.);
#683=VECTOR('',#1122,1.);
#684=VECTOR('',#1123,1.);
#685=VECTOR('',#1124,1.);
#686=VECTOR('',#1125,1.);
#687=VECTOR('',#1126,1.);
#688=VECTOR('',#1127,1.);
#689=VECTOR('',#1128,1.);
#690=VECTOR('',#1129,1.);
#691=VECTOR('',#1130,1.);
#692=VECTOR('',#1131,1.);
#693=VECTOR('',#1132,1.);
#694=VECTOR('',#1133,1.);
#695=VECTOR('',#1134,1.);
#696=VECTOR('',#1135,1.);
#697=VECTOR('',#1136,1.);
#698=VECTOR('',#1137,1.);
#699=VECTOR('',#1138,1.);
#700=VECTOR('',#1139,1.);
#701=VECTOR('',#1140,1.);
#702=VECTOR('',#1141,1.);
#703=VECTOR('',#1142,1.);
#704=VECTOR('',#1143,1.);
#705=VECTOR('',#1144,1.);
#706=VECTOR('',#1145,1.);
#707=VECTOR('',#1146,1.);
#708=VECTOR('',#1147,1.);
#709=VECTOR('',#1148,1.);
#710=VECTOR('',#1149,1.);
#711=VECTOR('',#1150,1.);
#712=VECTOR('',#1153,1.);
#713=VECTOR('',#1154,1.);
#714=VECTOR('',#1155,1.);
#715=VECTOR('',#1156,1.);
#716=VECTOR('',#1157,1.);
#717=VECTOR('',#1158,1.);
#718=VECTOR('',#1159,1.);
#719=VECTOR('',#1160,1.);
#720=VECTOR('',#1161,1.);
#721=VECTOR('',#1164,1.);
#722=VECTOR('',#1165,1.);
#723=VECTOR('',#1168,1.);
#724=VECTOR('',#1169,1.);
#725=VECTOR('',#1172,1.);
#726=VECTOR('',#1173,1.);
#727=VECTOR('',#1174,1.);
#728=VECTOR('',#1175,1.);
#729=VECTOR('',#1176,1.);
#730=VECTOR('',#1181,1.);
#731=VECTOR('',#1182,1.);
#732=VECTOR('',#1185,1.);
#733=VECTOR('',#1186,1.);
#734=VECTOR('',#1189,1.);
#735=VECTOR('',#1190,1.);
#736=VECTOR('',#1191,1.);
#737=VECTOR('',#1194,1.);
#738=VECTOR('',#1195,1.);
#739=VECTOR('',#1196,1.);
#740=VECTOR('',#1199,1.);
#741=VECTOR('',#1200,1.);
#742=VECTOR('',#1203,1.);
#743=VECTOR('',#1206,1.);
#744=VECTOR('',#1211,1.);
#745=VECTOR('',#1212,1.);
#746=VECTOR('',#1213,1.);
#747=VECTOR('',#1216,1.);
#748=VECTOR('',#1217,1.);
#749=VECTOR('',#1218,1.);
#750=VECTOR('',#1221,1.);
#751=VECTOR('',#1222,1.);
#752=VECTOR('',#1225,1.);
#753=VECTOR('',#1226,1.);
#754=VECTOR('',#1229,1.);
#755=VECTOR('',#1230,1.);
#756=VECTOR('',#1231,1.);
#757=VECTOR('',#1234,1.);
#758=VECTOR('',#1237,1.);
#759=VECTOR('',#1238,1.);
#760=VECTOR('',#1241,1.);
#761=VECTOR('',#1242,1.);
#762=VECTOR('',#1243,1.);
#763=VECTOR('',#1244,1.);
#764=VECTOR('',#1247,1.);
#765=VECTOR('',#1248,1.);
#766=VECTOR('',#1251,1.);
#767=VECTOR('',#1252,1.);
#768=VECTOR('',#1255,1.);
#769=VECTOR('',#1256,1.);
#770=VECTOR('',#1257,1.);
#771=VECTOR('',#1260,1.);
#772=VECTOR('',#1261,1.);
#773=VECTOR('',#1264,1.);
#774=VECTOR('',#1267,1.);
#775=VECTOR('',#1268,1.);
#776=VECTOR('',#1271,1.);
#777=VECTOR('',#1272,1.);
#778=VECTOR('',#1273,1.);
#779=VECTOR('',#1276,1.);
#780=VECTOR('',#1277,1.);
#781=VECTOR('',#1280,1.);
#782=VECTOR('',#1281,1.);
#783=VECTOR('',#1282,1.);
#784=VECTOR('',#1285,1.);
#785=VECTOR('',#1286,1.);
#786=VECTOR('',#1289,1.);
#787=VECTOR('',#1290,1.);
#788=VECTOR('',#1293,1.);
#789=VECTOR('',#1294,1.);
#790=VECTOR('',#1297,1.);
#791=VECTOR('',#1298,1.);
#792=VECTOR('',#1301,1.);
#793=VECTOR('',#1302,1.);
#794=VECTOR('',#1303,1.);
#795=VECTOR('',#1306,1.);
#796=VECTOR('',#1307,1.);
#797=VECTOR('',#1310,1.);
#798=VECTOR('',#1311,1.);
#799=VECTOR('',#1312,1.);
#800=VECTOR('',#1315,1.);
#801=VECTOR('',#1316,1.);
#802=VECTOR('',#1319,1.);
#803=VECTOR('',#1320,1.);
#804=VECTOR('',#1323,1.);
#805=VECTOR('',#1324,1.);
#806=VECTOR('',#1327,1.);
#807=VECTOR('',#1328,1.);
#808=VECTOR('',#1331,1.);
#809=VECTOR('',#1336,1.);
#810=VECTOR('',#1341,1.);
#811=VECTOR('',#1346,1.);
#812=VECTOR('',#1351,1.);
#813=VECTOR('',#1352,1.);
#814=EDGE_LOOP('',(#12,#13,#14,#15,#16,#17,#18,#19));
#815=EDGE_LOOP('',(#20,#21,#22,#23,#24,#25));
#816=EDGE_LOOP('',(#26,#27,#28,#29));
#817=EDGE_LOOP('',(#30,#31,#32,#33,#34,#35));
#818=EDGE_LOOP('',(#36,#37,#38,#39,#40,#41,#42,#43,#44,#45,#46,#47,#48,
#49,#50,#51));
#819=EDGE_LOOP('',(#52,#53,#54,#55,#56,#57,#58,#59,#60,#61,#62,#63));
#820=EDGE_LOOP('',(#64,#65,#66,#67));
#821=EDGE_LOOP('',(#68,#69,#70,#71));
#822=EDGE_LOOP('',(#72,#73,#74,#75));
#823=EDGE_LOOP('',(#76,#77,#78,#79));
#824=EDGE_LOOP('',(#80,#81,#82,#83));
#825=EDGE_LOOP('',(#84,#85,#86,#87));
#826=EDGE_LOOP('',(#88,#89,#90,#91));
#827=EDGE_LOOP('',(#92,#93,#94,#95,#96,#97,#98,#99));
#828=EDGE_LOOP('',(#100,#101,#102,#103,#104,#105,#106,#107));
#829=EDGE_LOOP('',(#108,#109,#110,#111));
#830=EDGE_LOOP('',(#112,#113,#114,#115));
#831=EDGE_LOOP('',(#116,#117,#118,#119));
#832=EDGE_LOOP('',(#120,#121,#122,#123));
#833=EDGE_LOOP('',(#124,#125,#126,#127));
#834=EDGE_LOOP('',(#128,#129,#130,#131,#132));
#835=EDGE_LOOP('',(#133,#134,#135,#136));
#836=EDGE_LOOP('',(#137,#138,#139,#140));
#837=EDGE_LOOP('',(#141,#142,#143,#144,#145));
#838=EDGE_LOOP('',(#146,#147,#148,#149));
#839=EDGE_LOOP('',(#150,#151,#152,#153,#154,#155));
#840=EDGE_LOOP('',(#156,#157,#158,#159,#160));
#841=EDGE_LOOP('',(#161,#162,#163,#164));
#842=EDGE_LOOP('',(#165,#166,#167,#168));
#843=EDGE_LOOP('',(#169,#170,#171,#172,#173));
#844=EDGE_LOOP('',(#174,#175,#176,#177));
#845=EDGE_LOOP('',(#178,#179,#180,#181));
#846=EDGE_LOOP('',(#182,#183,#184,#185,#186,#187));
#847=EDGE_LOOP('',(#188,#189,#190,#191));
#848=EDGE_LOOP('',(#192,#193,#194,#195));
#849=EDGE_LOOP('',(#196,#197,#198,#199,#200));
#850=EDGE_LOOP('',(#201,#202,#203,#204));
#851=EDGE_LOOP('',(#205,#206,#207,#208));
#852=EDGE_LOOP('',(#209,#210,#211,#212,#213));
#853=EDGE_LOOP('',(#214,#215,#216,#217,#218,#219));
#854=EDGE_LOOP('',(#220,#221,#222,#223));
#855=EDGE_LOOP('',(#224,#225,#226,#227));
#856=EDGE_LOOP('',(#228,#229,#230,#231,#232));
#857=EDGE_LOOP('',(#233,#234,#235,#236));
#858=EDGE_LOOP('',(#237,#238,#239,#240));
#859=EDGE_LOOP('',(#241,#242,#243,#244,#245));
#860=EDGE_LOOP('',(#246,#247,#248,#249,#250,#251));
#861=EDGE_LOOP('',(#252,#253,#254,#255));
#862=EDGE_LOOP('',(#256,#257,#258,#259));
#863=EDGE_LOOP('',(#260,#261,#262,#263));
#864=EDGE_LOOP('',(#264,#265,#266,#267));
#865=EDGE_LOOP('',(#268,#269,#270,#271));
#866=EDGE_LOOP('',(#272,#273,#274,#275));
#867=EDGE_LOOP('',(#276,#277,#278,#279));
#868=EDGE_LOOP('',(#280,#281,#282,#283));
#869=EDGE_LOOP('',(#284,#285,#286,#287));
#870=EDGE_LOOP('',(#288,#289,#290,#291));
#871=EDGE_LOOP('',(#292,#293,#294,#295));
#872=FACE_BOUND('',#814,.T.);
#873=FACE_BOUND('',#815,.T.);
#874=FACE_BOUND('',#816,.T.);
#875=FACE_BOUND('',#817,.T.);
#876=FACE_BOUND('',#818,.T.);
#877=FACE_BOUND('',#819,.T.);
#878=FACE_BOUND('',#820,.T.);
#879=FACE_BOUND('',#821,.T.);
#880=FACE_BOUND('',#822,.T.);
#881=FACE_BOUND('',#823,.T.);
#882=FACE_BOUND('',#824,.T.);
#883=FACE_BOUND('',#825,.T.);
#884=FACE_BOUND('',#826,.T.);
#885=FACE_BOUND('',#827,.T.);
#886=FACE_BOUND('',#828,.T.);
#887=FACE_BOUND('',#829,.T.);
#888=FACE_BOUND('',#830,.T.);
#889=FACE_BOUND('',#831,.T.);
#890=FACE_BOUND('',#832,.T.);
#891=FACE_BOUND('',#833,.T.);
#892=FACE_BOUND('',#834,.T.);
#893=FACE_BOUND('',#835,.T.);
#894=FACE_BOUND('',#836,.T.);
#895=FACE_BOUND('',#837,.T.);
#896=FACE_BOUND('',#838,.T.);
#897=FACE_BOUND('',#839,.T.);
#898=FACE_BOUND('',#840,.T.);
#899=FACE_BOUND('',#841,.T.);
#900=FACE_BOUND('',#842,.T.);
#901=FACE_BOUND('',#843,.T.);
#902=FACE_BOUND('',#844,.T.);
#903=FACE_BOUND('',#845,.T.);
#904=FACE_BOUND('',#846,.T.);
#905=FACE_BOUND('',#847,.T.);
#906=FACE_BOUND('',#848,.T.);
#907=FACE_BOUND('',#849,.T.);
#908=FACE_BOUND('',#850,.T.);
#909=FACE_BOUND('',#851,.T.);
#910=FACE_BOUND('',#852,.T.);
#911=FACE_BOUND('',#853,.T.);
#912=FACE_BOUND('',#854,.T.);
#913=FACE_BOUND('',#855,.T.);
#914=FACE_BOUND('',#856,.T.);
#915=FACE_BOUND('',#857,.T.);
#916=FACE_BOUND('',#858,.T.);
#917=FACE_BOUND('',#859,.T.);
#918=FACE_BOUND('',#860,.T.);
#919=FACE_BOUND('',#861,.T.);
#920=FACE_BOUND('',#862,.T.);
#921=FACE_BOUND('',#863,.T.);
#922=FACE_BOUND('',#864,.T.);
#923=FACE_BOUND('',#865,.T.);
#924=FACE_BOUND('',#866,.T.);
#925=FACE_BOUND('',#867,.T.);
#926=FACE_BOUND('',#868,.T.);
#927=FACE_BOUND('',#869,.T.);
#928=FACE_BOUND('',#870,.T.);
#929=FACE_BOUND('',#871,.T.);
#930=PLANE('',#1051);
#931=PLANE('',#1052);
#932=PLANE('',#1053);
#933=PLANE('',#1054);
#934=PLANE('',#1055);
#935=PLANE('',#1056);
#936=PLANE('',#1057);
#937=PLANE('',#1058);
#938=PLANE('',#1059);
#939=PLANE('',#1060);
#940=PLANE('',#1061);
#941=PLANE('',#1062);
#942=PLANE('',#1063);
#943=PLANE('',#1064);
#944=PLANE('',#1065);
#945=PLANE('',#1066);
#946=PLANE('',#1067);
#947=PLANE('',#1068);
#948=PLANE('',#1069);
#949=PLANE('',#1070);
#950=PLANE('',#1071);
#951=PLANE('',#1072);
#952=PLANE('',#1073);
#953=PLANE('',#1074);
#954=PLANE('',#1075);
#955=PLANE('',#1076);
#956=PLANE('',#1077);
#957=PLANE('',#1078);
#958=PLANE('',#1079);
#959=PLANE('',#1080);
#960=PLANE('',#1081);
#961=PLANE('',#1082);
#962=PLANE('',#1083);
#963=PLANE('',#1084);
#964=PLANE('',#1085);
#965=PLANE('',#1086);
#966=PLANE('',#1087);
#967=PLANE('',#1088);
#968=PLANE('',#1089);
#969=PLANE('',#1090);
#970=PLANE('',#1091);
#971=PLANE('',#1092);
#972=PLANE('',#1093);
#973=PLANE('',#1094);
#974=PLANE('',#1095);
#975=PLANE('',#1096);
#976=PLANE('',#1097);
#977=PLANE('',#1098);
#978=PLANE('',#1099);
#979=PLANE('',#1100);
#980=PLANE('',#1101);
#981=PLANE('',#1102);
#982=PLANE('',#1103);
#983=PLANE('',#1104);
#984=ADVANCED_FACE('',(#872),#930,.F.);
#985=ADVANCED_FACE('',(#873,#874,#875,#876),#931,.T.);
#986=ADVANCED_FACE('',(#877),#932,.T.);
#987=ADVANCED_FACE('',(#878),#933,.T.);
#988=ADVANCED_FACE('',(#879),#934,.F.);
#989=ADVANCED_FACE('',(#880,#881),#935,.F.);
#990=ADVANCED_FACE('',(#882),#936,.F.);
#991=ADVANCED_FACE('',(#883),#937,.F.);
#992=ADVANCED_FACE('',(#884),#938,.T.);
#993=ADVANCED_FACE('',(#885),#939,.T.);
#994=ADVANCED_FACE('',(#886),#940,.T.);
#995=ADVANCED_FACE('',(#887),#941,.F.);
#996=ADVANCED_FACE('',(#888),#942,.F.);
#997=ADVANCED_FACE('',(#889),#943,.T.);
#998=ADVANCED_FACE('',(#890),#944,.T.);
#999=ADVANCED_FACE('',(#891),#945,.F.);
#1000=ADVANCED_FACE('',(#892),#946,.F.);
#1001=ADVANCED_FACE('',(#893),#947,.F.);
#1002=ADVANCED_FACE('',(#894),#948,.F.);
#1003=ADVANCED_FACE('',(#895),#949,.F.);
#1004=ADVANCED_FACE('',(#896),#950,.F.);
#1005=ADVANCED_FACE('',(#897),#951,.T.);
#1006=ADVANCED_FACE('',(#898),#952,.T.);
#1007=ADVANCED_FACE('',(#899),#953,.T.);
#1008=ADVANCED_FACE('',(#900),#954,.T.);
#1009=ADVANCED_FACE('',(#901),#955,.T.);
#1010=ADVANCED_FACE('',(#902),#956,.T.);
#1011=ADVANCED_FACE('',(#903),#957,.F.);
#1012=ADVANCED_FACE('',(#904),#958,.T.);
#1013=ADVANCED_FACE('',(#905),#959,.T.);
#1014=ADVANCED_FACE('',(#906),#960,.T.);
#1015=ADVANCED_FACE('',(#907),#961,.T.);
#1016=ADVANCED_FACE('',(#908),#962,.T.);
#1017=ADVANCED_FACE('',(#909),#963,.T.);
#1018=ADVANCED_FACE('',(#910),#964,.T.);
#1019=ADVANCED_FACE('',(#911),#965,.T.);
#1020=ADVANCED_FACE('',(#912),#966,.F.);
#1021=ADVANCED_FACE('',(#913),#967,.F.);
#1022=ADVANCED_FACE('',(#914),#968,.F.);
#1023=ADVANCED_FACE('',(#915),#969,.F.);
#1024=ADVANCED_FACE('',(#916),#970,.F.);
#1025=ADVANCED_FACE('',(#917),#971,.F.);
#1026=ADVANCED_FACE('',(#918),#972,.T.);
#1027=ADVANCED_FACE('',(#919),#973,.T.);
#1028=ADVANCED_FACE('',(#920),#974,.T.);
#1029=ADVANCED_FACE('',(#921),#975,.F.);
#1030=ADVANCED_FACE('',(#922),#976,.F.);
#1031=ADVANCED_FACE('',(#923),#977,.F.);
#1032=ADVANCED_FACE('',(#924),#978,.F.);
#1033=ADVANCED_FACE('',(#925),#979,.T.);
#1034=ADVANCED_FACE('',(#926),#980,.T.);
#1035=ADVANCED_FACE('',(#927),#981,.T.);
#1036=ADVANCED_FACE('',(#928),#982,.F.);
#1037=ADVANCED_FACE('',(#929),#983,.T.);
#1038=CLOSED_SHELL('',(#984,#985,#986,#987,#988,#989,#990,#991,#992,#993,
#994,#995,#996,#997,#998,#999,#1000,#1001,#1002,#1003,#1004,#1005,#1006,
#1007,#1008,#1009,#1010,#1011,#1012,#1013,#1014,#1015,#1016,#1017,#1018,
#1019,#1020,#1021,#1022,#1023,#1024,#1025,#1026,#1027,#1028,#1029,#1030,
#1031,#1032,#1033,#1034,#1035,#1036,#1037));
#1039=STYLED_ITEM('',(#1040),#1047);
#1040=PRESENTATION_STYLE_ASSIGNMENT((#1041));
#1041=SURFACE_STYLE_USAGE(.BOTH.,#1042);
#1042=SURFACE_SIDE_STYLE('',(#1043));
#1043=SURFACE_STYLE_FILL_AREA(#1044);
#1044=FILL_AREA_STYLE('',(#1045));
#1045=FILL_AREA_STYLE_COLOUR('',#1046);
#1046=COLOUR_RGB('',0.615686274509804,0.811764705882353,0.929411764705882);
#1047=MANIFOLD_SOLID_BREP('Top Cover',#1038);
#1048=SHAPE_DEFINITION_REPRESENTATION(#1652,#1049);
#1049=SHAPE_REPRESENTATION('Top Cover',(#1050),#1647);
#1050=AXIS2_PLACEMENT_3D('',#1357,#1105,#1106);
#1051=AXIS2_PLACEMENT_3D('',#1358,#1107,#1108);
#1052=AXIS2_PLACEMENT_3D('',#1375,#1117,#1118);
#1053=AXIS2_PLACEMENT_3D('',#1440,#1151,#1152);
#1054=AXIS2_PLACEMENT_3D('',#1456,#1162,#1163);
#1055=AXIS2_PLACEMENT_3D('',#1460,#1166,#1167);
#1056=AXIS2_PLACEMENT_3D('',#1464,#1170,#1171);
#1057=AXIS2_PLACEMENT_3D('',#1474,#1177,#1178);
#1058=AXIS2_PLACEMENT_3D('',#1475,#1179,#1180);
#1059=AXIS2_PLACEMENT_3D('',#1479,#1183,#1184);
#1060=AXIS2_PLACEMENT_3D('',#1483,#1187,#1188);
#1061=AXIS2_PLACEMENT_3D('',#1487,#1192,#1193);
#1062=AXIS2_PLACEMENT_3D('',#1493,#1197,#1198);
#1063=AXIS2_PLACEMENT_3D('',#1496,#1201,#1202);
#1064=AXIS2_PLACEMENT_3D('',#1498,#1204,#1205);
#1065=AXIS2_PLACEMENT_3D('',#1500,#1207,#1208);
#1066=AXIS2_PLACEMENT_3D('',#1501,#1209,#1210);
#1067=AXIS2_PLACEMENT_3D('',#1507,#1214,#1215);
#1068=AXIS2_PLACEMENT_3D('',#1513,#1219,#1220);
#1069=AXIS2_PLACEMENT_3D('',#1517,#1223,#1224);
#1070=AXIS2_PLACEMENT_3D('',#1521,#1227,#1228);
#1071=AXIS2_PLACEMENT_3D('',#1527,#1232,#1233);
#1072=AXIS2_PLACEMENT_3D('',#1529,#1235,#1236);
#1073=AXIS2_PLACEMENT_3D('',#1533,#1239,#1240);
#1074=AXIS2_PLACEMENT_3D('',#1541,#1245,#1246);
#1075=AXIS2_PLACEMENT_3D('',#1545,#1249,#1250);
#1076=AXIS2_PLACEMENT_3D('',#1549,#1253,#1254);
#1077=AXIS2_PLACEMENT_3D('',#1555,#1258,#1259);
#1078=AXIS2_PLACEMENT_3D('',#1559,#1262,#1263);
#1079=AXIS2_PLACEMENT_3D('',#1561,#1265,#1266);
#1080=AXIS2_PLACEMENT_3D('',#1565,#1269,#1270);
#1081=AXIS2_PLACEMENT_3D('',#1571,#1274,#1275);
#1082=AXIS2_PLACEMENT_3D('',#1575,#1278,#1279);
#1083=AXIS2_PLACEMENT_3D('',#1581,#1283,#1284);
#1084=AXIS2_PLACEMENT_3D('',#1585,#1287,#1288);
#1085=AXIS2_PLACEMENT_3D('',#1589,#1291,#1292);
#1086=AXIS2_PLACEMENT_3D('',#1593,#1295,#1296);
#1087=AXIS2_PLACEMENT_3D('',#1597,#1299,#1300);
#1088=AXIS2_PLACEMENT_3D('',#1603,#1304,#1305);
#1089=AXIS2_PLACEMENT_3D('',#1607,#1308,#1309);
#1090=AXIS2_PLACEMENT_3D('',#1613,#1313,#1314);
#1091=AXIS2_PLACEMENT_3D('',#1617,#1317,#1318);
#1092=AXIS2_PLACEMENT_3D('',#1621,#1321,#1322);
#1093=AXIS2_PLACEMENT_3D('',#1625,#1325,#1326);
#1094=AXIS2_PLACEMENT_3D('',#1629,#1329,#1330);
#1095=AXIS2_PLACEMENT_3D('',#1631,#1332,#1333);
#1096=AXIS2_PLACEMENT_3D('',#1632,#1334,#1335);
#1097=AXIS2_PLACEMENT_3D('',#1634,#1337,#1338);
#1098=AXIS2_PLACEMENT_3D('',#1635,#1339,#1340);
#1099=AXIS2_PLACEMENT_3D('',#1637,#1342,#1343);
#1100=AXIS2_PLACEMENT_3D('',#1638,#1344,#1345);
#1101=AXIS2_PLACEMENT_3D('',#1640,#1347,#1348);
#1102=AXIS2_PLACEMENT_3D('',#1641,#1349,#1350);
#1103=AXIS2_PLACEMENT_3D('',#1644,#1353,#1354);
#1104=AXIS2_PLACEMENT_3D('',#1645,#1355,#1356);
#1105=DIRECTION('',(0.,0.,1.));
#1106=DIRECTION('',(1.,0.,0.));
#1107=DIRECTION('',(0.,0.965925826289068,-0.258819045102521));
#1108=DIRECTION('',(0.,0.258819045102521,0.965925826289068));
#1109=DIRECTION('',(-1.7347234759768E-16,-0.258819045102521,-0.965925826289068));
#1110=DIRECTION('',(1.,0.,0.));
#1111=DIRECTION('',(-1.7347234759768E-16,-0.258819045102521,-0.965925826289068));
#1112=DIRECTION('',(-1.,0.,0.));
#1113=DIRECTION('',(0.,-0.258819045102521,-0.965925826289068));
#1114=DIRECTION('',(-1.,0.,0.));
#1115=DIRECTION('',(0.,-0.258819045102521,-0.965925826289068));
#1116=DIRECTION('',(-1.,0.,0.));
#1117=DIRECTION('',(0.,-0.766044443118978,-0.64278760968654));
#1118=DIRECTION('',(0.,0.64278760968654,-0.766044443118978));
#1119=DIRECTION('',(0.,-0.64278760968654,0.766044443118978));
#1120=DIRECTION('',(1.,0.,0.));
#1121=DIRECTION('',(0.,0.64278760968654,-0.766044443118978));
#1122=DIRECTION('',(-1.,0.,0.));
#1123=DIRECTION('',(0.,-0.64278760968654,0.766044443118978));
#1124=DIRECTION('',(1.,-9.76210930556712E-16,1.1634028836207E-15));
#1125=DIRECTION('',(-1.,0.,0.));
#1126=DIRECTION('',(2.82643336208034E-16,-0.64278760968654,0.766044443118978));
#1127=DIRECTION('',(-1.,0.,0.));
#1128=DIRECTION('',(2.82643336208034E-16,-0.64278760968654,0.766044443118978));
#1129=DIRECTION('',(0.,-0.64278760968654,0.766044443118978));
#1130=DIRECTION('',(-1.,0.,0.));
#1131=DIRECTION('',(0.,-0.64278760968654,0.766044443118978));
#1132=DIRECTION('',(1.,0.,0.));
#1133=DIRECTION('',(0.,0.64278760968654,-0.766044443118978));
#1134=DIRECTION('',(-1.,0.,0.));
#1135=DIRECTION('',(-1.,0.,0.));
#1136=DIRECTION('',(0.,-0.64278760968654,0.766044443118978));
#1137=DIRECTION('',(-1.,0.,0.));
#1138=DIRECTION('',(0.,-0.64278760968654,0.766044443118978));
#1139=DIRECTION('',(1.,0.,0.));
#1140=DIRECTION('',(0.,-0.64278760968654,0.766044443118978));
#1141=DIRECTION('',(1.,0.,0.));
#1142=DIRECTION('',(0.,0.64278760968654,-0.766044443118978));
#1143=DIRECTION('',(-1.,0.,0.));
#1144=DIRECTION('',(0.,-0.64278760968654,0.766044443118978));
#1145=DIRECTION('',(-1.,0.,0.));
#1146=DIRECTION('',(0.,-0.64278760968654,0.766044443118978));
#1147=DIRECTION('',(-1.,0.,0.));
#1148=DIRECTION('',(0.,0.64278760968654,-0.766044443118978));
#1149=DIRECTION('',(-1.,0.,0.));
#1150=DIRECTION('',(0.,-0.64278760968654,0.766044443118978));
#1151=DIRECTION('',(0.,0.,-1.));
#1152=DIRECTION('',(1.,0.,0.));
#1153=DIRECTION('',(4.48979473569242E-17,1.,0.));
#1154=DIRECTION('',(0.,1.,0.));
#1155=DIRECTION('',(-1.,0.,0.));
#1156=DIRECTION('',(0.,1.,0.));
#1157=DIRECTION('',(4.48979473569242E-17,1.,0.));
#1158=DIRECTION('',(-1.,0.,0.));
#1159=DIRECTION('',(0.,1.,0.));
#1160=DIRECTION('',(0.,1.,0.));
#1161=DIRECTION('',(-1.,0.,0.));
#1162=DIRECTION('',(1.,0.,0.));
#1163=DIRECTION('',(0.,1.,0.));
#1164=DIRECTION('',(0.,-0.64278760968654,0.766044443118978));
#1165=DIRECTION('',(0.,-1.,0.));
#1166=DIRECTION('',(1.,0.,0.));
#1167=DIRECTION('',(0.,1.,0.));
#1168=DIRECTION('',(0.,-1.,0.));
#1169=DIRECTION('',(0.,-0.64278760968654,0.766044443118978));
#1170=DIRECTION('',(0.,-0.766044443118978,-0.64278760968654));
#1171=DIRECTION('',(0.,0.64278760968654,-0.766044443118978));
#1172=DIRECTION('',(2.82643336208034E-16,-0.64278760968654,0.766044443118978));
#1173=DIRECTION('',(-1.,0.,0.));
#1174=DIRECTION('',(2.82643336208034E-16,-0.64278760968654,0.766044443118978));
#1175=DIRECTION('',(-1.,0.,0.));
#1176=DIRECTION('',(-1.,0.,0.));
#1177=DIRECTION('',(0.,0.,-1.));
#1178=DIRECTION('',(-1.,0.,0.));
#1179=DIRECTION('',(1.,0.,0.));
#1180=DIRECTION('',(0.,1.,0.));
#1181=DIRECTION('',(0.,-0.258819045102521,-0.965925826289068));
#1182=DIRECTION('',(0.,-1.,0.));
#1183=DIRECTION('',(1.,0.,0.));
#1184=DIRECTION('',(0.,1.,0.));
#1185=DIRECTION('',(0.,-1.,0.));
#1186=DIRECTION('',(0.,-0.258819045102521,-0.965925826289068));
#1187=DIRECTION('',(0.,0.,-1.));
#1188=DIRECTION('',(-1.,0.,0.));
#1189=DIRECTION('',(-1.,0.,0.));
#1190=DIRECTION('',(-1.,0.,0.));
#1191=DIRECTION('',(-1.,0.,0.));
#1192=DIRECTION('',(0.,0.965925826289068,-0.258819045102521));
#1193=DIRECTION('',(0.,0.258819045102521,0.965925826289068));
#1194=DIRECTION('',(1.7347234759768E-16,0.258819045102521,0.965925826289068));
#1195=DIRECTION('',(1.7347234759768E-16,0.258819045102521,0.965925826289068));
#1196=DIRECTION('',(-1.,0.,0.));
#1197=DIRECTION('',(0.,0.64278760968654,-0.766044443118978));
#1198=DIRECTION('',(0.,0.766044443118978,0.64278760968654));
#1199=DIRECTION('',(0.,0.766044443118978,0.64278760968654));
#1200=DIRECTION('',(0.,0.766044443118978,0.64278760968654));
#1201=DIRECTION('',(-1.,-1.81679634474991E-16,2.16517357086773E-16));
#1202=DIRECTION('',(2.16517357086773E-16,0.,1.));
#1203=DIRECTION('',(0.,0.766044443118978,0.64278760968654));
#1204=DIRECTION('',(-1.,-1.81679634474991E-16,2.16517357086773E-16));
#1205=DIRECTION('',(2.16517357086773E-16,0.,1.));
#1206=DIRECTION('',(0.,0.766044443118978,0.64278760968654));
#1207=DIRECTION('',(0.,0.64278760968654,-0.766044443118978));
#1208=DIRECTION('',(0.,0.766044443118978,0.64278760968654));
#1209=DIRECTION('',(0.,-0.64278760968654,0.766044443118978));
#1210=DIRECTION('',(0.,-0.766044443118978,-0.64278760968654));
#1211=DIRECTION('',(0.,0.766044443118978,0.64278760968654));
#1212=DIRECTION('',(-1.,0.,0.));
#1213=DIRECTION('',(0.,0.766044443118978,0.64278760968654));
#1214=DIRECTION('',(-1.,0.,0.));
#1215=DIRECTION('',(0.,0.,1.));
#1216=DIRECTION('',(0.,-0.64278760968654,0.766044443118978));
#1217=DIRECTION('',(0.,0.996194698091746,-0.0871557427476554));
#1218=DIRECTION('',(0.,0.766044443118978,0.64278760968654));
#1219=DIRECTION('',(0.,0.64278760968654,-0.766044443118978));
#1220=DIRECTION('',(0.,0.766044443118978,0.64278760968654));
#1221=DIRECTION('',(0.,0.766044443118978,0.64278760968654));
#1222=DIRECTION('',(-1.,0.,0.));
#1223=DIRECTION('',(1.,0.,0.));
#1224=DIRECTION('',(0.,0.,-1.));
#1225=DIRECTION('',(0.,0.766044443118978,0.64278760968654));
#1226=DIRECTION('',(0.,0.64278760968654,-0.766044443118978));
#1227=DIRECTION('',(0.,-0.64278760968654,0.766044443118978));
#1228=DIRECTION('',(0.,-0.766044443118978,-0.64278760968654));
#1229=DIRECTION('',(0.,0.766044443118978,0.64278760968654));
#1230=DIRECTION('',(-0.707106781186541,-0.541675220419706,-0.454519477672048));
#1231=DIRECTION('',(1.,0.,0.));
#1232=DIRECTION('',(-1.,0.,0.));
#1233=DIRECTION('',(0.,0.,1.));
#1234=DIRECTION('',(0.,0.64278760968654,-0.766044443118978));
#1235=DIRECTION('',(0.,-0.766044443118978,-0.64278760968654));
#1236=DIRECTION('',(1.,0.,0.));
#1237=DIRECTION('',(0.,-0.64278760968654,0.766044443118978));
#1238=DIRECTION('',(1.,0.,0.));
#1239=DIRECTION('',(-1.,0.,0.));
#1240=DIRECTION('',(0.,0.,1.));
#1241=DIRECTION('',(0.,0.766044443118978,0.64278760968654));
#1242=DIRECTION('',(0.,0.996194698091747,-0.0871557427476422));
#1243=DIRECTION('',(0.,-0.64278760968654,0.766044443118978));
#1244=DIRECTION('',(0.,0.766044443118978,0.64278760968654));
#1245=DIRECTION('',(0.,0.64278760968654,-0.766044443118978));
#1246=DIRECTION('',(0.,0.766044443118978,0.64278760968654));
#1247=DIRECTION('',(0.,0.766044443118978,0.64278760968654));
#1248=DIRECTION('',(-1.,0.,0.));
#1249=DIRECTION('',(-1.,0.,0.));
#1250=DIRECTION('',(0.,0.,1.));
#1251=DIRECTION('',(0.,0.766044443118978,0.64278760968654));
#1252=DIRECTION('',(0.,-0.64278760968654,0.766044443118978));
#1253=DIRECTION('',(0.,0.64278760968654,-0.766044443118978));
#1254=DIRECTION('',(0.,0.766044443118978,0.64278760968654));
#1255=DIRECTION('',(-1.,0.,0.));
#1256=DIRECTION('',(0.707106781186549,-0.541675220419701,-0.454519477672043));
#1257=DIRECTION('',(0.,0.766044443118978,0.64278760968654));
#1258=DIRECTION('',(1.,0.,0.));
#1259=DIRECTION('',(0.,0.,-1.));
#1260=DIRECTION('',(0.,0.766044443118978,0.64278760968654));
#1261=DIRECTION('',(0.,0.64278760968654,-0.766044443118978));
#1262=DIRECTION('',(0.,0.64278760968654,-0.766044443118978));
#1263=DIRECTION('',(0.,0.766044443118978,0.64278760968654));
#1264=DIRECTION('',(-1.,0.,0.));
#1265=DIRECTION('',(0.,-0.766044443118978,-0.64278760968654));
#1266=DIRECTION('',(1.,0.,0.));
#1267=DIRECTION('',(1.,0.,0.));
#1268=DIRECTION('',(0.,0.64278760968654,-0.766044443118978));
#1269=DIRECTION('',(-1.,0.,0.));
#1270=DIRECTION('',(0.,0.,1.));
#1271=DIRECTION('',(0.,0.766044443118978,0.64278760968654));
#1272=DIRECTION('',(0.,-0.64278760968654,0.766044443118978));
#1273=DIRECTION('',(0.,0.766044443118978,0.64278760968654));
#1274=DIRECTION('',(-1.51871460470865E-15,-0.64278760968654,0.766044443118978));
#1275=DIRECTION('',(0.,-0.766044443118978,-0.64278760968654));
#1276=DIRECTION('',(0.,0.766044443118978,0.64278760968654));
#1277=DIRECTION('',(1.,-9.76210930556712E-16,1.1634028836207E-15));
#1278=DIRECTION('',(-1.,0.,0.));
#1279=DIRECTION('',(0.,0.,1.));
#1280=DIRECTION('',(0.,-0.64278760968654,0.766044443118978));
#1281=DIRECTION('',(0.,-0.0871557427476557,-0.996194698091746));
#1282=DIRECTION('',(0.,0.766044443118978,0.64278760968654));
#1283=DIRECTION('',(0.,0.64278760968654,-0.766044443118978));
#1284=DIRECTION('',(0.,0.766044443118978,0.64278760968654));
#1285=DIRECTION('',(0.,0.766044443118978,0.64278760968654));
#1286=DIRECTION('',(-1.,0.,0.));
#1287=DIRECTION('',(1.,0.,0.));
#1288=DIRECTION('',(0.,0.,-1.));
#1289=DIRECTION('',(0.,0.766044443118978,0.64278760968654));
#1290=DIRECTION('',(0.,0.64278760968654,-0.766044443118978));
#1291=DIRECTION('',(0.,-0.64278760968654,0.766044443118978));
#1292=DIRECTION('',(0.,-0.766044443118978,-0.64278760968654));
#1293=DIRECTION('',(-0.707106781186548,0.541675220419702,0.454519477672044));
#1294=DIRECTION('',(1.,0.,0.));
#1295=DIRECTION('',(0.,-0.766044443118978,-0.64278760968654));
#1296=DIRECTION('',(1.,0.,0.));
#1297=DIRECTION('',(0.,0.64278760968654,-0.766044443118978));
#1298=DIRECTION('',(-1.,9.76210930556712E-16,-1.1634028836207E-15));
#1299=DIRECTION('',(0.,0.64278760968654,-0.766044443118978));
#1300=DIRECTION('',(0.,0.766044443118978,0.64278760968654));
#1301=DIRECTION('',(0.,0.766044443118978,0.64278760968654));
#1302=DIRECTION('',(1.,0.,0.));
#1303=DIRECTION('',(0.,0.766044443118978,0.64278760968654));
#1304=DIRECTION('',(-1.,0.,0.));
#1305=DIRECTION('',(0.,0.,1.));
#1306=DIRECTION('',(0.,0.766044443118978,0.64278760968654));
#1307=DIRECTION('',(0.,0.64278760968654,-0.766044443118978));
#1308=DIRECTION('',(0.,0.64278760968654,-0.766044443118978));
#1309=DIRECTION('',(0.,0.766044443118978,0.64278760968654));
#1310=DIRECTION('',(-1.,0.,0.));
#1311=DIRECTION('',(0.707106781186548,0.541675220419702,0.454519477672044));
#1312=DIRECTION('',(0.,0.766044443118978,0.64278760968654));
#1313=DIRECTION('',(1.,0.,0.));
#1314=DIRECTION('',(0.,0.,-1.));
#1315=DIRECTION('',(0.,0.766044443118978,0.64278760968654));
#1316=DIRECTION('',(0.,0.64278760968654,-0.766044443118978));
#1317=DIRECTION('',(0.,-0.64278760968654,0.766044443118978));
#1318=DIRECTION('',(0.,-0.766044443118978,-0.64278760968654));
#1319=DIRECTION('',(0.,0.766044443118978,0.64278760968654));
#1320=DIRECTION('',(1.,0.,0.));
#1321=DIRECTION('',(-1.,0.,0.));
#1322=DIRECTION('',(0.,0.,1.));
#1323=DIRECTION('',(0.,-0.0871557427476568,-0.996194698091746));
#1324=DIRECTION('',(0.,-0.64278760968654,0.766044443118978));
#1325=DIRECTION('',(0.,-0.766044443118978,-0.64278760968654));
#1326=DIRECTION('',(1.,0.,0.));
#1327=DIRECTION('',(-1.,0.,0.));
#1328=DIRECTION('',(0.,-0.64278760968654,0.766044443118978));
#1329=DIRECTION('',(0.,-0.996194698091746,0.0871557427476568));
#1330=DIRECTION('',(1.,0.,0.));
#1331=DIRECTION('',(-0.577350269189625,-0.0711623659616782,-0.813389564930239));
#1332=DIRECTION('',(0.707106781186548,-0.541675220419702,-0.454519477672044));
#1333=DIRECTION('',(0.,0.64278760968654,-0.766044443118978));
#1334=DIRECTION('',(1.07389339567653E-15,0.996194698091746,-0.0871557427476557));
#1335=DIRECTION('',(1.,-9.76210930556712E-16,1.1634028836207E-15));
#1336=DIRECTION('',(-0.577350269189625,0.071162365961678,0.813389564930239));
#1337=DIRECTION('',(0.707106781186548,0.541675220419702,0.454519477672044));
#1338=DIRECTION('',(0.,-0.64278760968654,0.766044443118978));
#1339=DIRECTION('',(0.707106781186546,0.541675220419703,0.454519477672045));
#1340=DIRECTION('',(0.,-0.64278760968654,0.766044443118978));
#1341=DIRECTION('',(-0.577350269189634,0.813389564930234,-0.0711623659616658));
#1342=DIRECTION('',(0.,0.0871557427476422,0.996194698091747));
#1343=DIRECTION('',(-1.,0.,0.));
#1344=DIRECTION('',(0.707106781186554,-0.541675220419697,-0.45451947767204));
#1345=DIRECTION('',(0.,0.64278760968654,-0.766044443118978));
#1346=DIRECTION('',(-0.57735026918962,-0.813389564930243,0.0711623659616775));
#1347=DIRECTION('',(0.,-0.0871557427476554,-0.996194698091746));
#1348=DIRECTION('',(-1.,0.,0.));
#1349=DIRECTION('',(0.,-0.258819045102521,-0.965925826289068));
#1350=DIRECTION('',(0.,0.965925826289068,-0.258819045102521));
#1351=DIRECTION('',(0.,-0.965925826289068,0.258819045102521));
#1352=DIRECTION('',(0.,-0.965925826289068,0.258819045102521));
#1353=DIRECTION('',(-1.,4.48979473569242E-17,1.67561420691594E-16));
#1354=DIRECTION('',(1.67561420691594E-16,0.,1.));
#1355=DIRECTION('',(-1.,4.48979473569242E-17,1.67561420691594E-16));
#1356=DIRECTION('',(1.67561420691594E-16,0.,1.));
#1357=CARTESIAN_POINT('',(0.,0.,0.));
#1358=CARTESIAN_POINT('',(0.0925,0.0123156593940047,0.0609626665871386));
#1359=CARTESIAN_POINT('',(-0.0025,0.000329200485257854,0.0162285929368586));
#1360=CARTESIAN_POINT('',(-0.0025,0.000976248098014152,0.0186434075025813));
#1361=CARTESIAN_POINT('',(-0.0025,1.38235776991902E-18,0.015));
#1362=CARTESIAN_POINT('',(1.3010426069826E-18,0.000976248098014152,0.0186434075025813));
#1363=CARTESIAN_POINT('',(0.0025,0.000976248098014153,0.0186434075025813));
#1364=CARTESIAN_POINT('',(0.0025,0.000329200485257854,0.0162285929368586));
#1365=CARTESIAN_POINT('',(0.0025,1.38235776991902E-18,0.015));
#1366=CARTESIAN_POINT('',(0.0925,-2.60208521396521E-17,0.015));
#1367=CARTESIAN_POINT('',(0.0925,-2.60208521396521E-17,0.015));
#1368=CARTESIAN_POINT('',(0.0925,0.0123156593940047,0.0609626665871386));
#1369=CARTESIAN_POINT('',(0.0925,0.0246313187880095,0.106925333174277));
#1370=CARTESIAN_POINT('',(0.0925,0.0246313187880095,0.106925333174277));
#1371=CARTESIAN_POINT('',(-0.0925,0.0246313187880095,0.106925333174277));
#1372=CARTESIAN_POINT('',(-0.0925,0.0123156593940047,0.0609626665871386));
#1373=CARTESIAN_POINT('',(-0.0925,-2.60208521396521E-17,0.015));
#1374=CARTESIAN_POINT('',(0.0925,-2.60208521396521E-17,0.015));
#1375=CARTESIAN_POINT('',(0.0925,0.0766664864829639,0.0596770913677656));
#1376=CARTESIAN_POINT('',(0.08545,0.110316417850054,0.0195746647704871));
#1377=CARTESIAN_POINT('',(0.08545,0.111441296167006,0.0182340869950289));
#1378=CARTESIAN_POINT('',(0.08545,0.109191539533103,0.0209152425459453));
#1379=CARTESIAN_POINT('',(0.0862,0.109191539533103,0.0209152425459453));
#1380=CARTESIAN_POINT('',(0.08695,0.109191539533103,0.0209152425459453));
#1381=CARTESIAN_POINT('',(0.08695,0.110798508557319,0.0190001314381479));
#1382=CARTESIAN_POINT('',(0.08695,0.112405477581535,0.0170850203303504));
#1383=CARTESIAN_POINT('',(0.08445,0.112405477581535,0.0170850203303504));
#1384=CARTESIAN_POINT('',(0.08195,0.112405477581535,0.0170850203303504));
#1385=CARTESIAN_POINT('',(0.08195,0.111923386874271,0.0176595536626897));
#1386=CARTESIAN_POINT('',(0.08195,0.111441296167006,0.0182340869950289));
#1387=CARTESIAN_POINT('',(0.0837,0.111441296167006,0.0182340869950289));
#1388=CARTESIAN_POINT('',(-1.38777878078145E-17,0.108227358118573,0.0220643092106237));
#1389=CARTESIAN_POINT('',(0.08175,0.108227358118573,0.0220643092106237));
#1390=CARTESIAN_POINT('',(-0.08175,0.108227358118573,0.0220643092106237));
#1391=CARTESIAN_POINT('',(-0.08175,0.0766664864829638,0.0596770913677656));
#1392=CARTESIAN_POINT('',(-0.08175,0.0451056148473547,0.0972898735249074));
#1393=CARTESIAN_POINT('',(1.38777878078145E-17,0.0451056148473547,0.0972898735249074));
#1394=CARTESIAN_POINT('',(0.08175,0.0451056148473548,0.0972898735249074));
#1395=CARTESIAN_POINT('',(0.08175,0.0766664864829638,0.0596770913677656));
#1396=CARTESIAN_POINT('',(-0.08525,0.110316417850054,0.0195746647704871));
#1397=CARTESIAN_POINT('',(-0.08525,0.111441296167006,0.0182340869950289));
#1398=CARTESIAN_POINT('',(-0.08525,0.109191539533103,0.0209152425459453));
#1399=CARTESIAN_POINT('',(-0.0835,0.111441296167006,0.0182340869950289));
#1400=CARTESIAN_POINT('',(-0.08175,0.111441296167006,0.0182340869950289));
#1401=CARTESIAN_POINT('',(-0.08175,0.111923386874271,0.0176595536626897));
#1402=CARTESIAN_POINT('',(-0.08175,0.112405477581535,0.0170850203303504));
#1403=CARTESIAN_POINT('',(-0.08425,0.112405477581535,0.0170850203303504));
#1404=CARTESIAN_POINT('',(-0.08675,0.112405477581535,0.0170850203303504));
#1405=CARTESIAN_POINT('',(-0.08675,0.110798508557319,0.0190001314381479));
#1406=CARTESIAN_POINT('',(-0.08675,0.109191539533103,0.0209152425459453));
#1407=CARTESIAN_POINT('',(-0.086,0.109191539533103,0.0209152425459453));
#1408=CARTESIAN_POINT('',(0.0837,0.0396419201650192,0.103801251291419));
#1409=CARTESIAN_POINT('',(0.08545,0.0396419201650191,0.103801251291419));
#1410=CARTESIAN_POINT('',(0.08195,0.0396419201650191,0.103801251291419));
#1411=CARTESIAN_POINT('',(0.08195,0.0391598294577543,0.104375784623758));
#1412=CARTESIAN_POINT('',(0.08195,0.0386987034716995,0.104925333174277));
#1413=CARTESIAN_POINT('',(0.0925,0.0386987034716995,0.104925333174277));
#1414=CARTESIAN_POINT('',(-0.08175,0.0386987034716995,0.104925333174277));
#1415=CARTESIAN_POINT('',(-0.08175,0.0391598294577543,0.104375784623758));
#1416=CARTESIAN_POINT('',(-0.08175,0.0396419201650192,0.103801251291419));
#1417=CARTESIAN_POINT('',(-0.0835,0.0396419201650192,0.103801251291419));
#1418=CARTESIAN_POINT('',(-0.08525,0.0396419201650192,0.103801251291419));
#1419=CARTESIAN_POINT('',(-0.08525,0.0407667984819707,0.10246067351596));
#1420=CARTESIAN_POINT('',(-0.08525,0.0418916767989221,0.101120095740502));
#1421=CARTESIAN_POINT('',(-0.086,0.0418916767989221,0.101120095740502));
#1422=CARTESIAN_POINT('',(-0.08675,0.0418916767989221,0.101120095740502));
#1423=CARTESIAN_POINT('',(-0.08675,0.0402847077747057,0.1030352068483));
#1424=CARTESIAN_POINT('',(-0.08675,0.0386987034716995,0.104925333174277));
#1425=CARTESIAN_POINT('',(0.0925,0.0386987034716995,0.104925333174277));
#1426=CARTESIAN_POINT('',(-0.0905,0.0386987034716995,0.104925333174277));
#1427=CARTESIAN_POINT('',(-0.0905,0.0766664864829639,0.0596770913677656));
#1428=CARTESIAN_POINT('',(-0.0905,0.11415501737173,0.015));
#1429=CARTESIAN_POINT('',(0.,0.11415501737173,0.015));
#1430=CARTESIAN_POINT('',(0.0905,0.11415501737173,0.015));
#1431=CARTESIAN_POINT('',(0.0905,0.0766664864829639,0.0596770913677656));
#1432=CARTESIAN_POINT('',(0.0905,0.0386987034716995,0.104925333174277));
#1433=CARTESIAN_POINT('',(0.0925,0.0386987034716995,0.104925333174277));
#1434=CARTESIAN_POINT('',(0.08695,0.0386987034716995,0.104925333174277));
#1435=CARTESIAN_POINT('',(0.08695,0.0402847077747057,0.1030352068483));
#1436=CARTESIAN_POINT('',(0.08695,0.041891676798922,0.101120095740502));
#1437=CARTESIAN_POINT('',(0.0862,0.041891676798922,0.101120095740502));
#1438=CARTESIAN_POINT('',(0.08545,0.041891676798922,0.101120095740502));
#1439=CARTESIAN_POINT('',(0.08545,0.0407667984819707,0.10246067351596));
#1440=CARTESIAN_POINT('',(0.,0.0583829159751971,0.015));
#1441=CARTESIAN_POINT('',(-0.0025,0.0583829159751971,0.015));
#1442=CARTESIAN_POINT('',(-0.0025,0.00207055236082017,0.015));
#1443=CARTESIAN_POINT('',(-0.0925,0.0583829159751971,0.015));
#1444=CARTESIAN_POINT('',(-0.0925,0.116765831950394,0.015));
#1445=CARTESIAN_POINT('',(0.0925,0.116765831950394,0.015));
#1446=CARTESIAN_POINT('',(0.0925,0.116765831950394,0.015));
#1447=CARTESIAN_POINT('',(0.0925,0.0583829159751971,0.015));
#1448=CARTESIAN_POINT('',(0.0025,0.0583829159751971,0.015));
#1449=CARTESIAN_POINT('',(0.0025,0.00207055236082017,0.015));
#1450=CARTESIAN_POINT('',(0.0925,0.00207055236082017,0.015));
#1451=CARTESIAN_POINT('',(0.0905,0.00207055236082017,0.015));
#1452=CARTESIAN_POINT('',(0.0905,0.0583829159751971,0.015));
#1453=CARTESIAN_POINT('',(-0.0905,0.0583829159751971,0.015));
#1454=CARTESIAN_POINT('',(-0.0905,0.00207055236082017,0.015));
#1455=CARTESIAN_POINT('',(0.0925,0.00207055236082017,0.015));
#1456=CARTESIAN_POINT('',(0.0925,0.0583829159751971,0.0534626665871387));
#1457=CARTESIAN_POINT('',(0.0925,0.0781985753692018,0.0609626665871387));
#1458=CARTESIAN_POINT('',(0.0925,0.0396313187880094,0.106925333174277));
#1459=CARTESIAN_POINT('',(0.0925,0.0321313187880094,0.106925333174277));
#1460=CARTESIAN_POINT('',(-0.0925,0.0583829159751971,0.0534626665871387));
#1461=CARTESIAN_POINT('',(-0.0925,0.0321313187880094,0.106925333174277));
#1462=CARTESIAN_POINT('',(-0.0925,0.0396313187880094,0.106925333174277));
#1463=CARTESIAN_POINT('',(-0.0925,0.0781985753692018,0.0609626665871387));
#1464=CARTESIAN_POINT('',(0.0925,0.0781985753692018,0.0609626665871387));
#1465=CARTESIAN_POINT('',(-0.08175,0.0781985753692018,0.0609626665871387));
#1466=CARTESIAN_POINT('',(-0.08175,0.109759447004811,0.0233498844299968));
#1467=CARTESIAN_POINT('',(-0.08175,0.0466377037335927,0.0985754487442805));
#1468=CARTESIAN_POINT('',(-1.38777878078145E-17,0.109759447004811,0.0233498844299968));
#1469=CARTESIAN_POINT('',(0.08175,0.109759447004811,0.0233498844299968));
#1470=CARTESIAN_POINT('',(0.08175,0.0781985753692018,0.0609626665871387));
#1471=CARTESIAN_POINT('',(0.08175,0.0466377037335927,0.0985754487442805));
#1472=CARTESIAN_POINT('',(1.38777878078145E-17,0.0466377037335927,0.0985754487442805));
#1473=CARTESIAN_POINT('',(0.0925,0.0396313187880094,0.106925333174277));
#1474=CARTESIAN_POINT('',(0.0925,0.0321313187880094,0.106925333174277));
#1475=CARTESIAN_POINT('',(0.0905,0.0583829159751971,0.0534626665871387));
#1476=CARTESIAN_POINT('',(0.0905,0.0142475110465829,0.0604450284969336));
#1477=CARTESIAN_POINT('',(0.0905,0.0261659727639674,0.104925333174277));
#1478=CARTESIAN_POINT('',(0.0905,0.0321313187880094,0.104925333174277));
#1479=CARTESIAN_POINT('',(-0.0905,0.0583829159751971,0.0534626665871387));
#1480=CARTESIAN_POINT('',(-0.0905,0.0321313187880094,0.104925333174277));
#1481=CARTESIAN_POINT('',(-0.0905,0.0261659727639674,0.104925333174277));
#1482=CARTESIAN_POINT('',(-0.0905,0.0142475110465829,0.0604450284969336));
#1483=CARTESIAN_POINT('',(0.0925,0.0321313187880094,0.104925333174277));
#1484=CARTESIAN_POINT('',(0.0925,0.0386987034716995,0.104925333174277));
#1485=CARTESIAN_POINT('',(0.0925,0.0386987034716995,0.104925333174277));
#1486=CARTESIAN_POINT('',(0.0925,0.0261659727639674,0.104925333174277));
#1487=CARTESIAN_POINT('',(0.0925,0.0142475110465829,0.0604450284969336));
#1488=CARTESIAN_POINT('',(-0.0025,0.0142475110465829,0.0604450284969336));
#1489=CARTESIAN_POINT('',(-0.0025,0.00290809975059231,0.0181257694123762));
#1490=CARTESIAN_POINT('',(0.0025,0.0142475110465829,0.0604450284969336));
#1491=CARTESIAN_POINT('',(0.0025,0.00290809975059231,0.0181257694123762));
#1492=CARTESIAN_POINT('',(0.0925,0.00290809975059229,0.0181257694123762));
#1493=CARTESIAN_POINT('',(-1.38777878078145E-17,0.0412369119747531,-0.034147349441057));
#1494=CARTESIAN_POINT('',(0.08175,0.0412369119747531,-0.034147349441057));
#1495=CARTESIAN_POINT('',(-0.08175,0.0412369119747531,-0.034147349441057));
#1496=CARTESIAN_POINT('',(-0.08175,0.00967604033914397,0.00346543271608484));
#1497=CARTESIAN_POINT('',(-0.08175,-0.0218848312964651,0.0410782148732266));
#1498=CARTESIAN_POINT('',(0.08175,0.00967604033914397,0.00346543271608484));
#1499=CARTESIAN_POINT('',(0.08175,-0.0218848312964651,0.0410782148732266));
#1500=CARTESIAN_POINT('',(1.38777878078145E-17,-0.0218848312964651,0.0410782148732266));
#1501=CARTESIAN_POINT('',(-0.0835,0.0377268090572217,0.102194282267202));
#1502=CARTESIAN_POINT('',(-0.08175,0.0377268090572217,0.102194282267202));
#1503=CARTESIAN_POINT('',(-0.08175,0.0383396446117169,0.102708512354952));
#1504=CARTESIAN_POINT('',(-0.08525,0.0383396446117169,0.102708512354952));
#1505=CARTESIAN_POINT('',(-0.08525,0.0383396446117169,0.102708512354952));
#1506=CARTESIAN_POINT('',(-0.08525,0.0377268090572217,0.102194282267202));
#1507=CARTESIAN_POINT('',(-0.08175,0.0372447183499569,0.102768815599542));
#1508=CARTESIAN_POINT('',(-0.08175,0.0372447183499569,0.102768815599542));
#1509=CARTESIAN_POINT('',(-0.08175,0.0372125789694725,0.102807117821698));
#1510=CARTESIAN_POINT('',(-0.08175,0.036783592363902,0.103318364150061));
#1511=CARTESIAN_POINT('',(-0.08175,0.0372125789694725,0.102807117821698));
#1512=CARTESIAN_POINT('',(-0.08175,0.036783592363902,0.103318364150061));
#1513=CARTESIAN_POINT('',(0.0925,0.036783592363902,0.103318364150061));
#1514=CARTESIAN_POINT('',(-0.08675,0.036783592363902,0.103318364150061));
#1515=CARTESIAN_POINT('',(-0.08675,0.036783592363902,0.103318364150061));
#1516=CARTESIAN_POINT('',(0.0925,0.036783592363902,0.103318364150061));
#1517=CARTESIAN_POINT('',(-0.08675,0.0383695966669083,0.101428237824083));
#1518=CARTESIAN_POINT('',(-0.08675,0.0399765656911246,0.099513126716286));
#1519=CARTESIAN_POINT('',(-0.08675,0.0399765656911246,0.099513126716286));
#1520=CARTESIAN_POINT('',(-0.08675,0.0383695966669083,0.101428237824083));
#1521=CARTESIAN_POINT('',(-0.086,0.0399765656911246,0.099513126716286));
#1522=CARTESIAN_POINT('',(-0.08525,0.0399765656911246,0.099513126716286));
#1523=CARTESIAN_POINT('',(-0.08525,0.0405894012456198,0.100027356804035));
#1524=CARTESIAN_POINT('',(-0.08605,0.0399765656911246,0.099513126716286));
#1525=CARTESIAN_POINT('',(-0.08605,0.0399765656911246,0.099513126716286));
#1526=CARTESIAN_POINT('',(-0.086,0.0399765656911246,0.099513126716286));
#1527=CARTESIAN_POINT('',(-0.08525,0.0388516873741732,0.100853704491744));
#1528=CARTESIAN_POINT('',(-0.08525,0.0405894012456198,0.100027356804035));
#1529=CARTESIAN_POINT('',(0.,0.0745012669533121,0.0583681899538323));
#1530=CARTESIAN_POINT('',(-0.08605,0.0377268090572217,0.102194282267202));
#1531=CARTESIAN_POINT('',(-0.08605,0.0372125789694725,0.102807117821698));
#1532=CARTESIAN_POINT('',(-0.08175,0.0372125789694725,0.102807117821698));
#1533=CARTESIAN_POINT('',(0.08195,0.0372447183499569,0.102768815599542));
#1534=CARTESIAN_POINT('',(0.08195,0.0377268090572217,0.102194282267202));
#1535=CARTESIAN_POINT('',(0.08195,0.0383396446117169,0.102708512354952));
#1536=CARTESIAN_POINT('',(0.08195,0.0372477997707927,0.102804036400862));
#1537=CARTESIAN_POINT('',(0.08195,0.0372125789694725,0.102807117821698));
#1538=CARTESIAN_POINT('',(0.08195,0.0372447183499569,0.102768815599542));
#1539=CARTESIAN_POINT('',(0.08195,0.036783592363902,0.103318364150061));
#1540=CARTESIAN_POINT('',(0.08195,0.036783592363902,0.103318364150061));
#1541=CARTESIAN_POINT('',(0.0837,0.0377268090572217,0.102194282267202));
#1542=CARTESIAN_POINT('',(0.08545,0.0377268090572217,0.102194282267202));
#1543=CARTESIAN_POINT('',(0.08545,0.0383396446117169,0.102708512354952));
#1544=CARTESIAN_POINT('',(0.0837,0.0383396446117169,0.102708512354952));
#1545=CARTESIAN_POINT('',(0.08545,0.0388516873741732,0.100853704491744));
#1546=CARTESIAN_POINT('',(0.08545,0.0399765656911246,0.099513126716286));
#1547=CARTESIAN_POINT('',(0.08545,0.0405894012456198,0.100027356804035));
#1548=CARTESIAN_POINT('',(0.08545,0.0394645229286684,0.101367934579493));
#1549=CARTESIAN_POINT('',(0.0862,0.0399765656911246,0.099513126716286));
#1550=CARTESIAN_POINT('',(0.0862,0.0399765656911246,0.099513126716286));
#1551=CARTESIAN_POINT('',(0.08695,0.0399765656911246,0.099513126716286));
#1552=CARTESIAN_POINT('',(0.08625,0.0399765656911246,0.099513126716286));
#1553=CARTESIAN_POINT('',(0.086225,0.0399957168022026,0.0995291964065281));
#1554=CARTESIAN_POINT('',(0.08695,0.0399765656911246,0.099513126716286));
#1555=CARTESIAN_POINT('',(0.08695,0.0383695966669082,0.101428237824083));
#1556=CARTESIAN_POINT('',(0.08695,0.036783592363902,0.103318364150061));
#1557=CARTESIAN_POINT('',(0.08695,0.036783592363902,0.103318364150061));
#1558=CARTESIAN_POINT('',(0.08695,0.0383695966669082,0.101428237824083));
#1559=CARTESIAN_POINT('',(0.0925,0.036783592363902,0.103318364150061));
#1560=CARTESIAN_POINT('',(0.0925,0.036783592363902,0.103318364150061));
#1561=CARTESIAN_POINT('',(0.,0.0745012669533121,0.0583681899538323));
#1562=CARTESIAN_POINT('',(0.,0.0372125789694725,0.102807117821698));
#1563=CARTESIAN_POINT('',(0.08625,0.0372125789694725,0.102807117821698));
#1564=CARTESIAN_POINT('',(0.08625,0.0745012669533121,0.0583681899538323));
#1565=CARTESIAN_POINT('',(0.08545,0.108401306742257,0.0179676957462708));
#1566=CARTESIAN_POINT('',(0.08545,0.109526185059208,0.0166271179708126));
#1567=CARTESIAN_POINT('',(0.08545,0.110139020613703,0.0171413480585618));
#1568=CARTESIAN_POINT('',(0.08545,0.109014142296752,0.01848192583402));
#1569=CARTESIAN_POINT('',(0.08545,0.1078892639798,0.0198225036094782));
#1570=CARTESIAN_POINT('',(0.08545,0.107276428425305,0.019308273521729));
#1571=CARTESIAN_POINT('',(0.0837,0.109526185059208,0.0166271179708126));
#1572=CARTESIAN_POINT('',(0.08195,0.109526185059208,0.0166271179708126));
#1573=CARTESIAN_POINT('',(0.08195,0.110139020613703,0.0171413480585618));
#1574=CARTESIAN_POINT('',(0.0837,0.110139020613703,0.0171413480585618));
#1575=CARTESIAN_POINT('',(0.08195,0.110008275766473,0.0160525846384733));
#1576=CARTESIAN_POINT('',(0.08195,0.110008275766473,0.0160525846384733));
#1577=CARTESIAN_POINT('',(0.08195,0.110490366473738,0.0154780513061341));
#1578=CARTESIAN_POINT('',(0.08195,0.110040415146957,0.0160142824163174));
#1579=CARTESIAN_POINT('',(0.08195,0.110043496567793,0.0160495032176375));
#1580=CARTESIAN_POINT('',(0.08195,0.110490366473738,0.0154780513061341));
#1581=CARTESIAN_POINT('',(0.08445,0.110490366473738,0.0154780513061341));
#1582=CARTESIAN_POINT('',(0.08695,0.110490366473738,0.0154780513061341));
#1583=CARTESIAN_POINT('',(0.08695,0.110490366473738,0.0154780513061341));
#1584=CARTESIAN_POINT('',(0.08445,0.110490366473738,0.0154780513061341));
#1585=CARTESIAN_POINT('',(0.08695,0.108883397449522,0.0173931624139315));
#1586=CARTESIAN_POINT('',(0.08695,0.107276428425305,0.019308273521729));
#1587=CARTESIAN_POINT('',(0.08695,0.107276428425305,0.019308273521729));
#1588=CARTESIAN_POINT('',(0.08695,0.108883397449522,0.0173931624139315));
#1589=CARTESIAN_POINT('',(0.0862,0.107276428425305,0.019308273521729));
#1590=CARTESIAN_POINT('',(0.086225,0.107295579536383,0.0193243432119711));
#1591=CARTESIAN_POINT('',(0.08625,0.107276428425305,0.019308273521729));
#1592=CARTESIAN_POINT('',(0.0862,0.107276428425305,0.019308273521729));
#1593=CARTESIAN_POINT('',(0.,0.0745012669533121,0.0583681899538323));
#1594=CARTESIAN_POINT('',(0.08625,0.0745012669533121,0.0583681899538323));
#1595=CARTESIAN_POINT('',(0.08625,0.110040415146957,0.0160142824163174));
#1596=CARTESIAN_POINT('',(8.39683630910608E-17,0.110040415146957,0.0160142824163173));
#1597=CARTESIAN_POINT('',(-0.0835,0.109526185059208,0.0166271179708126));
#1598=CARTESIAN_POINT('',(-0.08525,0.109526185059208,0.0166271179708126));
#1599=CARTESIAN_POINT('',(-0.08525,0.110139020613703,0.0171413480585617));
#1600=CARTESIAN_POINT('',(-0.08175,0.110139020613703,0.0171413480585617));
#1601=CARTESIAN_POINT('',(-0.08175,0.110139020613703,0.0171413480585617));
#1602=CARTESIAN_POINT('',(-0.08175,0.109526185059208,0.0166271179708126));
#1603=CARTESIAN_POINT('',(-0.08525,0.108401306742257,0.0179676957462708));
#1604=CARTESIAN_POINT('',(-0.08525,0.107276428425305,0.0193082735217289));
#1605=CARTESIAN_POINT('',(-0.08525,0.1078892639798,0.0198225036094782));
#1606=CARTESIAN_POINT('',(-0.08525,0.110139020613703,0.0171413480585617));
#1607=CARTESIAN_POINT('',(-0.086,0.107276428425305,0.0193082735217289));
#1608=CARTESIAN_POINT('',(-0.086,0.107276428425305,0.0193082735217289));
#1609=CARTESIAN_POINT('',(-0.08605,0.107276428425305,0.0193082735217289));
#1610=CARTESIAN_POINT('',(-0.08675,0.107276428425305,0.0193082735217289));
#1611=CARTESIAN_POINT('',(-0.08605,0.107276428425305,0.0193082735217289));
#1612=CARTESIAN_POINT('',(-0.08675,0.107276428425305,0.0193082735217289));
#1613=CARTESIAN_POINT('',(-0.08675,0.108883397449522,0.0173931624139315));
#1614=CARTESIAN_POINT('',(-0.08675,0.110490366473738,0.0154780513061341));
#1615=CARTESIAN_POINT('',(-0.08675,0.110490366473738,0.0154780513061341));
#1616=CARTESIAN_POINT('',(-0.08675,0.108883397449522,0.0173931624139315));
#1617=CARTESIAN_POINT('',(-0.08425,0.110490366473738,0.0154780513061341));
#1618=CARTESIAN_POINT('',(-0.08175,0.110490366473738,0.0154780513061341));
#1619=CARTESIAN_POINT('',(-0.08175,0.110490366473738,0.0154780513061341));
#1620=CARTESIAN_POINT('',(-0.08425,0.110490366473738,0.0154780513061341));
#1621=CARTESIAN_POINT('',(-0.08175,0.110008275766473,0.0160525846384733));
#1622=CARTESIAN_POINT('',(-0.08175,0.110040415146957,0.0160142824163173));
#1623=CARTESIAN_POINT('',(-0.08175,0.110040415146957,0.0160142824163173));
#1624=CARTESIAN_POINT('',(-0.08175,0.110008275766473,0.0160525846384733));
#1625=CARTESIAN_POINT('',(0.,0.0745012669533121,0.0583681899538323));
#1626=CARTESIAN_POINT('',(-0.08525,0.110040415146957,0.0160142824163173));
#1627=CARTESIAN_POINT('',(-0.08605,0.110040415146957,0.0160142824163173));
#1628=CARTESIAN_POINT('',(-0.08605,0.107276428425305,0.0193082735217289));
#1629=CARTESIAN_POINT('',(0.,0.110040415146957,0.0160142824163173));
#1630=CARTESIAN_POINT('',(-0.0676203001229409,0.112312001594914,0.0419786343267042));
#1631=CARTESIAN_POINT('',(-0.08605,0.0745012669533121,0.0583681899538323));
#1632=CARTESIAN_POINT('',(0.0837,0.110139020613703,0.0171413480585618));
#1633=CARTESIAN_POINT('',(0.0848666666666667,0.110210920433206,0.0179631667560316));
#1634=CARTESIAN_POINT('',(0.08545,0.109014142296752,0.01848192583402));
#1635=CARTESIAN_POINT('',(0.08545,0.0394645229286684,0.101367934579493));
#1636=CARTESIAN_POINT('',(0.0848666666666667,0.0391614633091869,0.102636612535449));
#1637=CARTESIAN_POINT('',(0.0837,0.0383396446117169,0.102708512354952));
#1638=CARTESIAN_POINT('',(-0.08605,0.0745012669533121,0.0583681899538323));
#1639=CARTESIAN_POINT('',(-0.0573666666666672,0.0776225783507773,0.0992717009827439));
#1640=CARTESIAN_POINT('',(0.,0.0372125789694725,0.102807117821698));
#1641=CARTESIAN_POINT('',(1.3010426069826E-18,0.23633629647614,-0.0444211273908875));
#1642=CARTESIAN_POINT('',(0.0025,0.23633629647614,-0.0444211273908875));
#1643=CARTESIAN_POINT('',(-0.0025,0.23633629647614,-0.0444211273908875));
#1644=CARTESIAN_POINT('',(-0.0025,0.235689248863383,-0.0468359419566101));
#1645=CARTESIAN_POINT('',(0.0025,0.235689248863383,-0.0468359419566101));
#1646=MECHANICAL_DESIGN_GEOMETRIC_PRESENTATION_REPRESENTATION('',(#1039),
#1647);
#1647=(
GEOMETRIC_REPRESENTATION_CONTEXT(3)
GLOBAL_UNCERTAINTY_ASSIGNED_CONTEXT((#1648))
GLOBAL_UNIT_ASSIGNED_CONTEXT((#1651,#1650,#1649))
REPRESENTATION_CONTEXT('Top Cover','TOP_LEVEL_ASSEMBLY_PART')
);
#1648=UNCERTAINTY_MEASURE_WITH_UNIT(LENGTH_MEASURE(1.E-8),#1651,
'DISTANCE_ACCURACY_VALUE','Maximum Tolerance applied to model');
#1649=(
NAMED_UNIT(*)
SI_UNIT($,.STERADIAN.)
SOLID_ANGLE_UNIT()
);
#1650=(
NAMED_UNIT(*)
PLANE_ANGLE_UNIT()
SI_UNIT($,.RADIAN.)
);
#1651=(
LENGTH_UNIT()
NAMED_UNIT(*)
SI_UNIT($,.METRE.)
);
#1652=PRODUCT_DEFINITION_SHAPE('','',#1653);
#1653=PRODUCT_DEFINITION('','',#1655,#1654);
#1654=PRODUCT_DEFINITION_CONTEXT('',#1661,'design');
#1655=PRODUCT_DEFINITION_FORMATION_WITH_SPECIFIED_SOURCE('','',#1657,
 .NOT_KNOWN.);
#1656=PRODUCT_RELATED_PRODUCT_CATEGORY('','',(#1657));
#1657=PRODUCT('Top Cover','Top Cover','Top Cover',(#1659));
#1658=PRODUCT_CATEGORY('','');
#1659=PRODUCT_CONTEXT('',#1661,'mechanical');
#1660=APPLICATION_PROTOCOL_DEFINITION('international standard',
'ap242_managed_model_based_3d_engineering',2020,#1661);
#1661=APPLICATION_CONTEXT('managed model based 3d engineering');
ENDSEC;
END-ISO-10303-21;
